<?xml version="1.0" encoding="utf-8"?>
<!-- Generator: Adobe Illustrator 16.0.0, SVG Export Plug-In . SVG Version: 6.00 Build 0)  -->
<!DOCTYPE svg PUBLIC "-//W3C//DTD SVG 1.1//EN" "http://www.w3.org/Graphics/SVG/1.1/DTD/svg11.dtd">
<svg version="1.1" id="Layer_1" xmlns="http://www.w3.org/2000/svg" xmlns:xlink="http://www.w3.org/1999/xlink" x="0px" y="0px"
	 width="432px" height="288px" viewBox="0 0 432 288" enable-background="new 0 0 432 288" xml:space="preserve">
<g id="figure_1">
	<g id="axes_1">
		<g id="patch_3">
			<g>
				<g>
					<defs>
						<rect id="SVGID_1_" x="54" y="34.56" width="334.8" height="217.44"/>
					</defs>
					<clipPath id="SVGID_2_">
						<use xlink:href="#SVGID_1_"  overflow="visible"/>
					</clipPath>
					<path clip-path="url(#SVGID_2_)" fill="#8B0000" d="M54,242.116h12.015v-56.478H54V242.116z"/>
				</g>
			</g>
		</g>
		<g id="patch_4">
			<g>
				<g>
					<defs>
						<rect id="SVGID_3_" x="54" y="34.56" width="334.8" height="217.44"/>
					</defs>
					<clipPath id="SVGID_4_">
						<use xlink:href="#SVGID_3_"  overflow="visible"/>
					</clipPath>
					<path clip-path="url(#SVGID_4_)" fill="#8B0000" d="M54,171.52h166.57v-56.479H54V171.52z"/>
				</g>
			</g>
		</g>
		<g id="patch_5">
			<g>
				<g>
					<defs>
						<rect id="SVGID_5_" x="54" y="34.56" width="334.8" height="217.44"/>
					</defs>
					<clipPath id="SVGID_6_">
						<use xlink:href="#SVGID_5_"  overflow="visible"/>
					</clipPath>
					<path clip-path="url(#SVGID_6_)" fill="#8B0000" d="M54,100.921h318.857V44.444H54V100.921z"/>
				</g>
			</g>
		</g>
		<g id="matplotlib.axis_1">
			<g id="xtick_1">
				<g id="line2d_1">
					<g>
						<g>
							<path id="mde374bf789" stroke="#000000" stroke-width="0.8" stroke-linejoin="round" d="M54,252v3.5"/>
						</g>
					</g>
				</g>
				<g id="text_1">
					<g transform="translate(50.81875 266.598437)scale(0.1 -0.1)">
						<g>
							<path id="DejaVuSans-30" d="M31.783,66.404c-5.073,0-8.892-2.5-11.455-7.5c-2.554-4.99-3.828-12.5-3.828-22.529
								c0-9.99,1.274-17.48,3.828-22.48c2.563-5,6.382-7.5,11.455-7.5c5.112,0,8.945,2.5,11.499,7.5
								c2.563,5,3.843,12.49,3.843,22.48c0,10.029-1.279,17.539-3.843,22.529C40.729,63.904,36.896,66.404,31.783,66.404z
								 M31.783,74.217c8.174,0,14.419-3.232,18.73-9.697c4.316-6.465,6.47-15.84,6.47-28.145c0-12.266-2.153-21.641-6.47-28.105
								c-4.312-6.465-10.557-9.688-18.73-9.688c-8.169,0-14.409,3.223-18.721,9.688s-6.47,15.84-6.47,28.105
								c0,12.305,2.158,21.68,6.47,28.145S23.614,74.217,31.783,74.217z"/>
						</g>
					</g>
				</g>
			</g>
			<g id="xtick_2">
				<g id="line2d_2">
					<g>
						<g>
							<path id="mde374bf789_1_" stroke="#000000" stroke-width="0.8" stroke-linejoin="round" d="M192.171,252v3.5"/>
						</g>
					</g>
				</g>
				<g id="text_2">
					<g transform="translate(185.808929 266.598437)scale(0.1 -0.1)">
						<g>
							<path id="DejaVuSans-31" d="M12.404,8.299h16.113v55.625l-17.534-3.516v8.984l17.437,3.516h9.863V8.299h16.108v-8.301H12.404
								V8.299z"/>
						</g>
						<g>
							<path id="DejaVuSans-30_1_" d="M95.402,66.404c-5.068,0-8.887-2.5-11.45-7.5c-2.554-4.99-3.828-12.5-3.828-22.529
								c0-9.99,1.274-17.48,3.828-22.48c2.563-5,6.382-7.5,11.45-7.5c5.117,0,8.95,2.5,11.504,7.5c2.559,5,3.843,12.49,3.843,22.48
								c0,10.029-1.284,17.539-3.843,22.529C104.352,63.904,100.519,66.404,95.402,66.404z M95.402,74.217
								c8.179,0,14.424-3.232,18.735-9.697s6.47-15.84,6.47-28.145c0-12.266-2.158-21.641-6.47-28.105s-10.557-9.688-18.735-9.688
								c-8.164,0-14.404,3.223-18.716,9.688s-6.47,15.84-6.47,28.105c0,12.305,2.158,21.68,6.47,28.145S87.238,74.217,95.402,74.217
								z"/>
						</g>
					</g>
				</g>
			</g>
			<g id="xtick_3">
				<g id="line2d_3">
					<g>
						<g>
							<path id="mde374bf789_2_" stroke="#000000" stroke-width="0.8" stroke-linejoin="round" d="M330.343,252v3.5"/>
						</g>
					</g>
				</g>
				<g id="text_3">
					<g transform="translate(323.980357 266.598437)scale(0.1 -0.1)">
						<g>
							<path id="DejaVuSans-32" d="M19.191,8.299h34.414v-8.301H7.325v8.301c3.74,3.877,8.838,9.072,15.303,15.596
								s10.527,10.742,12.188,12.637c3.154,3.535,5.352,6.543,6.602,9.004c1.27,2.461,1.895,4.873,1.895,7.246
								c0,3.877-1.357,7.031-4.082,9.473c-2.715,2.441-6.26,3.672-10.625,3.672c-3.086,0-6.357-0.547-9.795-1.611
								c-3.428-1.074-7.09-2.705-10.996-4.893v9.971c3.965,1.592,7.676,2.793,11.123,3.604c3.457,0.82,6.621,1.221,9.482,1.221
								c7.559,0,13.574-1.885,18.066-5.674c4.492-3.77,6.729-8.809,6.729-15.117c0-3.008-0.557-5.85-1.68-8.535
								c-1.113-2.676-3.164-5.84-6.133-9.473c-0.811-0.957-3.398-3.691-7.764-8.203C33.282,22.703,27.14,16.395,19.191,8.299z"/>
						</g>
						<g>
							<path id="DejaVuSans-30_2_" d="M95.402,66.404c-5.068,0-8.887-2.5-11.455-7.5c-2.549-4.99-3.828-12.5-3.828-22.529
								c0-9.99,1.279-17.48,3.828-22.48c2.568-5,6.387-7.5,11.455-7.5c5.117,0,8.955,2.5,11.504,7.5
								c2.559,5,3.838,12.49,3.838,22.48c0,10.029-1.279,17.539-3.838,22.529C104.357,63.904,100.519,66.404,95.402,66.404z
								 M95.402,74.217c8.184,0,14.424-3.232,18.74-9.697c4.307-6.465,6.465-15.84,6.465-28.145c0-12.266-2.158-21.641-6.465-28.105
								c-4.316-6.465-10.557-9.688-18.74-9.688c-8.164,0-14.404,3.223-18.721,9.688c-4.307,6.465-6.465,15.84-6.465,28.105
								c0,12.305,2.158,21.68,6.465,28.145C80.997,70.984,87.238,74.217,95.402,74.217z"/>
						</g>
					</g>
				</g>
			</g>
			<g id="text_4">
				<g transform="translate(157.04375 280.276563)scale(0.1 -0.1)">
					<g>
						<path id="DejaVuSans-4c" d="M9.812,72.902h9.858V8.293h35.503V0.002H9.812V72.902z"/>
					</g>
					<g>
						<path id="DejaVuSans-6f" d="M86.306,48.39c-4.81,0-8.618-1.875-11.421-5.645c-2.803-3.75-4.204-8.906-4.204-15.449
							s1.392-11.699,4.175-15.449c2.788-3.77,6.606-5.645,11.45-5.645c4.795,0,8.584,1.885,11.377,5.654
							c2.803,3.779,4.204,8.936,4.204,15.439c0,6.484-1.401,11.621-4.204,15.41C94.89,46.496,91.101,48.39,86.306,48.39z
							 M86.306,55.998c7.812,0,13.95-2.539,18.408-7.627c4.468-5.068,6.704-12.09,6.704-21.074c0-8.945-2.236-15.977-6.704-21.074
							c-4.458-5.098-10.596-7.646-18.408-7.646c-7.842,0-13.989,2.549-18.438,7.646c-4.438,5.098-6.655,12.129-6.655,21.074
							c0,8.984,2.217,16.006,6.655,21.074C72.317,53.459,78.464,55.998,86.306,55.998z"/>
					</g>
					<g>
						<path id="DejaVuSans-61" d="M151.159,27.482c-7.261,0-12.29-0.83-15.093-2.48c-2.803-1.66-4.204-4.492-4.204-8.506
							c0-3.184,1.055-5.713,3.159-7.588c2.104-1.865,4.956-2.803,8.56-2.803c4.99,0,8.989,1.768,12.002,5.303
							c3.008,3.525,4.517,8.223,4.517,14.072v2.002H151.159z M169.084,31.203V0.002H160.1v8.291
							c-2.056-3.311-4.609-5.762-7.676-7.344c-3.062-1.582-6.807-2.373-11.23-2.373c-5.596,0-10.049,1.572-13.359,4.717
							c-3.306,3.145-4.956,7.363-4.956,12.627c0,6.143,2.061,10.781,6.172,13.906c4.126,3.125,10.273,4.688,18.438,4.688H160.1
							v0.889c0,4.141-1.362,7.344-4.082,9.6c-2.715,2.256-6.533,3.389-11.45,3.389c-3.125,0-6.172-0.371-9.141-1.123
							c-2.959-0.752-5.801-1.875-8.53-3.379v8.311c3.281,1.27,6.465,2.227,9.561,2.852s6.104,0.947,9.033,0.947
							c7.915,0,13.828-2.051,17.734-6.152C167.131,45.754,169.084,39.543,169.084,31.203z"/>
					</g>
					<g>
						<path id="DejaVuSans-6e" d="M233.049,33.019V0.002h-8.984v32.715c0,5.186-1.011,9.053-3.032,11.611
							c-2.021,2.578-5.044,3.857-9.077,3.857c-4.854,0-8.682-1.543-11.484-4.639c-2.803-3.086-4.204-7.295-4.204-12.637V0.002
							h-9.028v54.688h9.028v-8.506c2.158,3.301,4.688,5.752,7.593,7.383c2.92,1.621,6.284,2.432,10.098,2.432
							c6.279,0,11.03-1.943,14.248-5.83C231.433,46.281,233.049,40.568,233.049,33.019z"/>
					</g>
					<g>
						<path id="DejaVuSans-73" d="M285.818,53.078v-8.496c-2.529,1.299-5.166,2.266-7.905,2.92
							c-2.729,0.654-5.562,0.986-8.501,0.986c-4.458,0-7.803-0.684-10.029-2.051c-2.231-1.367-3.345-3.418-3.345-6.152
							c0-2.09,0.796-3.721,2.393-4.912c1.592-1.182,4.8-2.314,9.624-3.389l3.076-0.684c6.377-1.367,10.908-3.301,13.594-5.781
							c2.69-2.5,4.033-5.967,4.033-10.43c0-5.078-2.012-9.102-6.03-12.07c-4.023-2.969-9.551-4.443-16.582-4.443
							c-2.925,0-5.977,0.283-9.155,0.859c-3.174,0.576-6.519,1.436-10.029,2.568v9.277c3.32-1.729,6.592-3.027,9.81-3.887
							c3.228-0.859,6.411-1.289,9.58-1.289c4.233,0,7.48,0.723,9.751,2.178c2.28,1.445,3.428,3.486,3.428,6.123
							c0,2.441-0.825,4.307-2.476,5.605c-1.636,1.309-5.234,2.559-10.811,3.77l-3.125,0.732c-5.566,1.162-9.585,2.959-12.065,5.391
							c-2.466,2.432-3.701,5.752-3.701,9.99c0,5.137,1.821,9.111,5.474,11.904c3.643,2.803,8.818,4.199,15.527,4.199
							c3.315,0,6.436-0.244,9.355-0.732C280.647,54.787,283.352,54.054,285.818,53.078z"/>
					</g>
					<g>
						<path id="DejaVuSans-20" d="M293.635,0.002"/>
					</g>
					<g>
						<path id="DejaVuSans-77" d="M329.626,54.689h8.984l11.235-42.676l11.172,42.676h10.596l11.23-42.676l11.191,42.676h8.984
							L388.703,0.002h-10.591l-11.768,44.824L354.533,0.002h-10.61L329.626,54.689z"/>
					</g>
					<g>
						<path id="DejaVuSans-69" d="M416.633,54.689h8.984V0.002h-8.984V54.689z M416.633,75.988h8.984V64.592h-8.984V75.988z"/>
					</g>
					<g>
						<path id="DejaVuSans-74" d="M453.308,70.217V54.689h18.501v-6.982h-18.501V18.019c0-4.463,0.61-7.324,1.826-8.594
							c1.221-1.27,3.706-1.914,7.456-1.914h9.219v-7.51h-9.219c-6.938,0-11.724,1.289-14.36,3.877s-3.955,7.305-3.955,14.141v29.688
							h-6.592v6.982h6.592v15.527H453.308L453.308,70.217z"/>
					</g>
					<g>
						<path id="DejaVuSans-68" d="M529.094,33.019V0.002h-8.984v32.715c0,5.186-1.011,9.053-3.032,11.611
							c-2.021,2.578-5.044,3.857-9.077,3.857c-4.854,0-8.682-1.543-11.484-4.639c-2.803-3.086-4.204-7.295-4.204-12.637V0.002
							h-9.028v75.986h9.028V46.183c2.158,3.301,4.688,5.752,7.593,7.383c2.92,1.621,6.284,2.432,10.098,2.432
							c6.279,0,11.03-1.943,14.248-5.83C527.478,46.281,529.094,40.568,529.094,33.019z"/>
					</g>
					<g>
						<path id="DejaVuSans-20_1_" d="M537.58,0.002"/>
					</g>
					<g>
						<path id="DejaVuSans-70" d="M587.478,8.205v-29.004h-9.028v75.488h9.028v-8.301c1.895,3.252,4.282,5.664,7.163,7.236
							c2.881,1.582,6.328,2.373,10.322,2.373c6.65,0,12.041-2.627,16.182-7.9c4.16-5.273,6.24-12.207,6.24-20.801
							s-2.08-15.527-6.24-20.811c-4.141-5.273-9.531-7.91-16.182-7.91c-3.994,0-7.441,0.791-10.322,2.373
							S589.372,4.953,587.478,8.205z M618.059,27.297c0,6.602-1.367,11.787-4.082,15.547s-6.445,5.645-11.201,5.645
							s-8.501-1.885-11.221-5.645c-2.715-3.76-4.077-8.945-4.077-15.547s1.362-11.787,4.077-15.547
							c2.72-3.76,6.465-5.645,11.221-5.645s8.486,1.885,11.201,5.645S618.059,20.695,618.059,27.297z"/>
					</g>
					<g>
						<path id="DejaVuSans-72" d="M673.957,46.301c-1.016,0.586-2.109,1.006-3.301,1.279c-1.191,0.283-2.5,0.42-3.926,0.42
							c-5.078,0-8.984-1.65-11.699-4.951c-2.715-3.311-4.082-8.047-4.082-14.238V0.002h-9.023v54.688h9.023v-8.506
							c1.895,3.32,4.355,5.791,7.383,7.393c3.027,1.611,6.719,2.422,11.045,2.422c0.615,0,1.299-0.039,2.041-0.127
							c0.762-0.068,1.582-0.195,2.49-0.352L673.957,46.301z"/>
					</g>
					<g>
						<path id="DejaVuSans-6f_1_" d="M704.543,48.39c-4.824,0-8.633-1.875-11.426-5.645c-2.803-3.75-4.199-8.906-4.199-15.449
							s1.387-11.699,4.16-15.449c2.793-3.77,6.621-5.645,11.465-5.645c4.785,0,8.574,1.885,11.367,5.654
							c2.803,3.779,4.199,8.936,4.199,15.439c0,6.484-1.396,11.621-4.199,15.41C713.117,46.496,709.328,48.39,704.543,48.39z
							 M704.543,55.998c7.812,0,13.945-2.539,18.398-7.627c4.473-5.068,6.699-12.09,6.699-21.074c0-8.945-2.227-15.977-6.699-21.074
							c-4.453-5.098-10.586-7.646-18.398-7.646c-7.852,0-13.994,2.549-18.438,7.646s-6.66,12.129-6.66,21.074
							c0,8.984,2.217,16.006,6.66,21.074C690.549,53.459,696.692,55.998,704.543,55.998z"/>
					</g>
					<g>
						<path id="DejaVuSans-62" d="M783.801,27.297c0,6.602-1.367,11.787-4.082,15.547s-6.455,5.645-11.201,5.645
							c-4.756,0-8.506-1.885-11.221-5.645s-4.082-8.945-4.082-15.547s1.367-11.787,4.082-15.547s6.465-5.645,11.221-5.645
							c4.746,0,8.486,1.885,11.201,5.645S783.801,20.695,783.801,27.297z M753.215,46.388c1.895,3.252,4.287,5.664,7.158,7.236
							c2.881,1.582,6.328,2.373,10.332,2.373c6.65,0,12.041-2.627,16.182-7.9c4.16-5.273,6.24-12.207,6.24-20.801
							s-2.08-15.527-6.24-20.811c-4.141-5.273-9.531-7.91-16.182-7.91c-4.004,0-7.451,0.791-10.332,2.373
							c-2.871,1.582-5.264,4.004-7.158,7.256V0.002h-9.023v75.986h9.023V46.388z"/>
					</g>
					<g>
						<path id="DejaVuSans-6c" d="M808.01,75.988h8.984V0.002h-8.984V75.988z"/>
					</g>
					<g>
						<path id="DejaVuSans-65" d="M882.571,29.592v-4.385h-41.309c0.391-6.191,2.266-10.898,5.586-14.141
							c3.34-3.242,7.988-4.863,13.945-4.863c3.447,0,6.797,0.42,10.029,1.27c3.232,0.84,6.455,2.109,9.658,3.809V2.785
							c-3.232-1.367-6.543-2.412-9.922-3.125c-3.389-0.723-6.816-1.084-10.293-1.084c-8.73,0-15.645,2.539-20.742,7.607
							c-5.098,5.088-7.637,11.963-7.637,20.625c0,8.945,2.422,16.055,7.246,21.299c4.834,5.264,11.357,7.891,19.57,7.891
							c7.344,0,13.164-2.373,17.441-7.109C880.432,44.162,882.571,37.726,882.571,29.592z M873.586,32.238
							c-0.059,4.902-1.436,8.818-4.121,11.748c-2.695,2.939-6.25,4.404-10.674,4.404c-5.01,0-9.014-1.416-12.031-4.248
							c-3.018-2.842-4.746-6.826-5.205-11.973L873.586,32.238z"/>
					</g>
					<g>
						<path id="DejaVuSans-6d" d="M939.895,44.191c2.246,4.043,4.941,7.012,8.066,8.936c3.125,1.914,6.797,2.871,11.025,2.871
							c5.693,0,10.088-1.992,13.193-5.986c3.086-3.975,4.629-9.648,4.629-16.992V0.002h-9.023v32.715
							c0,5.244-0.938,9.131-2.793,11.66c-1.855,2.539-4.688,3.809-8.496,3.809c-4.648,0-8.34-1.543-11.035-4.639
							c-2.705-3.086-4.053-7.295-4.053-12.637V0.002h-9.033v32.715c0,5.273-0.918,9.17-2.773,11.689s-4.727,3.779-8.594,3.779
							c-4.6,0-8.252-1.553-10.957-4.658c-2.695-3.105-4.043-7.305-4.043-12.617V0.002h-9.043v54.688h9.043v-8.506
							c2.051,3.359,4.512,5.83,7.363,7.422c2.871,1.602,6.27,2.393,10.215,2.393c3.975,0,7.354-1.006,10.137-3.027
							C936.496,50.959,938.567,48.029,939.895,44.191z"/>
					</g>
					<g>
						<path id="DejaVuSans-73_1_" d="M1029.582,53.078v-8.496c-2.529,1.299-5.156,2.266-7.9,2.92
							c-2.725,0.654-5.566,0.986-8.506,0.986c-4.453,0-7.793-0.684-10.029-2.051c-2.227-1.367-3.34-3.418-3.34-6.152
							c0-2.09,0.791-3.721,2.393-4.912c1.592-1.182,4.805-2.314,9.619-3.389l3.076-0.684c6.377-1.367,10.908-3.301,13.594-5.781
							c2.695-2.5,4.033-5.967,4.033-10.43c0-5.078-2.002-9.102-6.025-12.07s-9.551-4.443-16.582-4.443
							c-2.93,0-5.977,0.283-9.16,0.859c-3.174,0.576-6.523,1.436-10.029,2.568v9.277c3.33-1.729,6.592-3.027,9.814-3.887
							s6.406-1.289,9.58-1.289c4.229,0,7.471,0.723,9.746,2.178c2.285,1.445,3.428,3.486,3.428,6.123
							c0,2.441-0.82,4.307-2.471,5.605c-1.631,1.309-5.244,2.559-10.81,3.77l-3.125,0.732c-5.566,1.162-9.59,2.959-12.07,5.391
							c-2.461,2.432-3.701,5.752-3.701,9.99c0,5.137,1.826,9.111,5.469,11.904c3.643,2.803,8.818,4.199,15.537,4.199
							c3.31,0,6.426-0.244,9.355-0.732C1024.416,54.787,1027.121,54.054,1029.582,53.078z"/>
					</g>
					<g>
						<path id="DejaVuSans-20_2_" d="M1037.404,0.002"/>
					</g>
					<g>
						<path id="DejaVuSans-69_1_" d="M1078.615,54.689h8.984V0.002h-8.984V54.689z M1078.615,75.988h8.984V64.592h-8.984V75.988z"/>
					</g>
					<g>
						<path id="DejaVuSans-6e_1_" d="M1151.867,33.019V0.002h-8.984v32.715c0,5.186-1.016,9.053-3.027,11.611
							c-2.031,2.578-5.059,3.857-9.082,3.857c-4.863,0-8.691-1.543-11.484-4.639c-2.803-3.086-4.199-7.295-4.199-12.637V0.002
							h-9.043v54.688h9.043v-8.506c2.148,3.301,4.688,5.752,7.588,7.383c2.92,1.621,6.279,2.432,10.088,2.432
							c6.289,0,11.035-1.943,14.258-5.83S1151.867,40.568,1151.867,33.019z"/>
					</g>
					<g>
						<path id="DejaVuSans-20_3_" d="M1160.354,0.002"/>
					</g>
					<g>
						<path id="DejaVuSans-25" d="M1264.846,32.082c-2.842,0-5.059-1.211-6.67-3.613c-1.602-2.402-2.412-5.762-2.412-10.059
							c0-4.238,0.811-7.559,2.412-9.99c1.611-2.432,3.828-3.643,6.67-3.643c2.764,0,4.951,1.211,6.562,3.643s2.422,5.752,2.422,9.99
							c0,4.268-0.811,7.617-2.422,10.029C1269.797,30.871,1267.609,32.082,1264.846,32.082z M1264.846,38.283
							c5.146,0,9.229-1.787,12.246-5.381c3.037-3.574,4.551-8.398,4.551-14.492s-1.523-10.918-4.561-14.492
							c-3.047-3.555-7.129-5.342-12.236-5.342c-5.205,0-9.326,1.787-12.363,5.342c-3.018,3.574-4.531,8.398-4.531,14.492
							c0,6.123,1.523,10.967,4.561,14.531C1255.559,36.496,1259.66,38.283,1264.846,38.283z M1214.455,68.019
							c-2.803,0-5.01-1.211-6.631-3.643c-1.602-2.412-2.402-5.752-2.402-9.99c0-4.287,0.801-7.637,2.393-10.059
							c1.592-2.402,3.799-3.613,6.641-3.613c2.832,0,5.049,1.211,6.65,3.613c1.621,2.422,2.422,5.771,2.422,10.059
							c0,4.199-0.811,7.52-2.432,9.961C1219.465,66.789,1217.258,68.019,1214.455,68.019z M1258.547,74.22h7.812l-45.605-75.645
							h-7.812L1258.547,74.22z M1214.455,74.22c5.146,0,9.248-1.787,12.295-5.342c3.066-3.564,4.59-8.398,4.59-14.492
							c0-6.143-1.523-10.996-4.561-14.541c-3.037-3.555-7.148-5.332-12.324-5.332c-5.186,0-9.268,1.787-12.285,5.342
							c-3.008,3.574-4.512,8.418-4.512,14.531c0,6.064,1.514,10.879,4.531,14.453C1205.217,72.433,1209.309,74.22,1214.455,74.22z"
							/>
					</g>
				</g>
			</g>
		</g>
		<g id="matplotlib.axis_2">
			<g id="ytick_1">
				<g id="text_5">
					<g transform="translate(-1.048438 217.676621)scale(0.1 -0.1)">
						<g>
							<path id="DejaVuSans-4c_1_" d="M9.811,72.899h9.863V8.29h35.498v-8.291H9.811V72.899z"/>
						</g>
						<g>
							<path id="DejaVuSans-65_1_" d="M111.901,29.598v-4.395H70.587c0.396-6.191,2.261-10.898,5.596-14.141S84.161,6.2,90.118,6.2
								c3.447,0,6.792,0.43,10.034,1.27c3.237,0.84,6.455,2.109,9.653,3.809V2.782c-3.228-1.367-6.533-2.402-9.922-3.125
								C96.5-1.066,93.068-1.417,89.586-1.417c-8.726,0-15.64,2.529-20.732,7.598c-5.093,5.088-7.642,11.963-7.642,20.625
								c0,8.955,2.417,16.055,7.251,21.309s11.353,7.891,19.561,7.891c7.358,0,13.174-2.373,17.456-7.109
								S111.901,37.723,111.901,29.598z M102.916,32.235c-0.063,4.902-1.436,8.828-4.126,11.748
								c-2.686,2.939-6.245,4.404-10.669,4.404c-5.01,0-9.023-1.416-12.031-4.248c-3.013-2.832-4.746-6.826-5.205-11.963
								L102.916,32.235z"/>
						</g>
						<g>
							<path id="DejaVuSans-61_1_" d="M151.5,27.489c-7.256,0-12.29-0.84-15.093-2.49s-4.204-4.482-4.204-8.506
								c0-3.184,1.055-5.713,3.159-7.588c2.104-1.865,4.956-2.803,8.56-2.803c4.99,0,8.994,1.777,12.002,5.303
								c3.013,3.525,4.517,8.223,4.517,14.072v2.012H151.5z M169.425,31.2V-0.001h-8.984V8.29c-2.051-3.301-4.609-5.752-7.671-7.344
								c-3.066-1.582-6.807-2.363-11.235-2.363c-5.596,0-10.049,1.562-13.359,4.707c-3.301,3.154-4.956,7.363-4.956,12.637
								c0,6.143,2.061,10.781,6.172,13.906c4.126,3.125,10.273,4.688,18.438,4.688h12.612v0.879c0,4.141-1.362,7.344-4.077,9.6
								c-2.72,2.256-6.538,3.389-11.455,3.389c-3.125,0-6.172-0.371-9.141-1.123c-2.959-0.752-5.801-1.875-8.53-3.369v8.301
								c3.281,1.279,6.47,2.227,9.561,2.852c3.101,0.645,6.108,0.957,9.033,0.957c7.915,0,13.828-2.051,17.734-6.162
								C167.472,45.751,169.425,39.54,169.425,31.2z"/>
						</g>
						<g>
							<path id="DejaVuSans-73_2_" d="M222.78,53.075v-8.496c-2.529,1.299-5.166,2.275-7.905,2.92
								c-2.729,0.654-5.562,0.986-8.501,0.986c-4.458,0-7.798-0.684-10.029-2.051c-2.227-1.367-3.345-3.418-3.345-6.152
								c0-2.09,0.796-3.721,2.393-4.902c1.592-1.191,4.8-2.324,9.624-3.398l3.076-0.684c6.377-1.367,10.908-3.291,13.594-5.781
								c2.69-2.49,4.033-5.967,4.033-10.43c0-5.078-2.012-9.102-6.03-12.07c-4.023-2.959-9.546-4.434-16.577-4.434
								c-2.93,0-5.981,0.283-9.16,0.859c-3.174,0.566-6.519,1.426-10.029,2.559v9.277c3.325-1.729,6.592-3.027,9.814-3.887
								c3.218-0.859,6.411-1.289,9.575-1.289c4.229,0,7.48,0.732,9.751,2.178c2.28,1.455,3.423,3.486,3.423,6.123
								c0,2.441-0.825,4.316-2.471,5.605c-1.636,1.309-5.239,2.559-10.811,3.77l-3.125,0.742c-5.561,1.162-9.585,2.959-12.065,5.391
								c-2.466,2.422-3.701,5.752-3.701,9.98c0,5.146,1.821,9.111,5.469,11.904c3.647,2.803,8.823,4.209,15.532,4.209
								c3.311,0,6.431-0.254,9.36-0.742C217.609,54.784,220.314,54.051,222.78,53.075z"/>
						</g>
						<g>
							<path id="DejaVuSans-74_1_" d="M248.912,70.223V54.686h18.501v-6.982h-18.501V18.016c0-4.453,0.61-7.324,1.826-8.594
								c1.221-1.27,3.706-1.914,7.456-1.914h9.219v-7.51h-9.219c-6.938,0-11.724,1.299-14.36,3.877
								c-2.637,2.598-3.955,7.305-3.955,14.141v29.688h-6.592v6.982h6.592v15.537H248.912z"/>
						</g>
						<g>
							<path id="DejaVuSans-20_4_" d="M269.811-0.001"/>
						</g>
						<g>
							<path id="DejaVuSans-72_1_" d="M342.706,46.298c-1.011,0.586-2.109,1.016-3.296,1.279c-1.191,0.283-2.495,0.42-3.926,0.42
								c-5.083,0-8.984-1.65-11.699-4.951c-2.72-3.301-4.082-8.047-4.082-14.229V-0.001h-9.028v54.688h9.028V46.18
								c1.899,3.33,4.355,5.791,7.378,7.402c3.032,1.611,6.714,2.422,11.045,2.422c0.615,0,1.299-0.049,2.046-0.137
								c0.752-0.068,1.582-0.186,2.485-0.352L342.706,46.298z"/>
						</g>
						<g>
							<path id="DejaVuSans-69_2_" d="M352.13,54.686h8.984V-0.001h-8.984V54.686z M352.13,75.985h8.984V64.598h-8.984V75.985z"/>
						</g>
						<g>
							<path id="DejaVuSans-73_3_" d="M414.772,53.075v-8.496c-2.529,1.299-5.166,2.275-7.905,2.92
								c-2.729,0.654-5.562,0.986-8.501,0.986c-4.458,0-7.798-0.684-10.029-2.051s-3.345-3.418-3.345-6.152
								c0-2.09,0.796-3.721,2.393-4.902c1.592-1.191,4.8-2.324,9.624-3.398l3.076-0.684c6.377-1.367,10.908-3.291,13.594-5.781
								c2.69-2.49,4.033-5.967,4.033-10.43c0-5.078-2.012-9.102-6.03-12.07c-4.023-2.959-9.546-4.434-16.577-4.434
								c-2.93,0-5.981,0.283-9.16,0.859c-3.174,0.566-6.519,1.426-10.029,2.559v9.277c3.325-1.729,6.592-3.027,9.814-3.887
								c3.218-0.859,6.411-1.289,9.575-1.289c4.229,0,7.48,0.732,9.751,2.178c2.28,1.455,3.423,3.486,3.423,6.123
								c0,2.441-0.825,4.316-2.471,5.605c-1.636,1.309-5.239,2.559-10.811,3.77l-3.125,0.742c-5.562,1.162-9.585,2.959-12.065,5.391
								c-2.466,2.422-3.701,5.752-3.701,9.98c0,5.146,1.821,9.111,5.469,11.904c3.647,2.803,8.823,4.209,15.532,4.209
								c3.311,0,6.431-0.254,9.36-0.742C409.601,54.784,412.306,54.051,414.772,53.075z"/>
						</g>
						<g>
							<path id="DejaVuSans-6b" d="M431.671,75.985h9.028V31.102l26.816,23.584h11.465L449.982,29.11l30.234-29.111h-11.719
								l-27.798,26.709V-0.001h-9.028V75.985z"/>
						</g>
					</g>
				</g>
			</g>
			<g id="ytick_2">
				<g id="text_6">
					<g transform="translate(-10.440625 147.079219)scale(0.1 -0.1)">
						<g>
							<path id="DejaVuSans-4d" d="M9.812,72.906h14.702l18.594-49.614l18.706,49.614h14.702V0.001h-9.624v64.014l-18.799-50h-9.907
								l-18.794,50V0.001h-9.58V72.906z"/>
						</g>
						<g>
							<path id="DejaVuSans-65_2_" d="M142.483,29.596v-4.39h-41.313c0.396-6.191,2.261-10.898,5.596-14.141
								c3.33-3.242,7.979-4.863,13.936-4.863c3.447,0,6.792,0.43,10.034,1.27c3.237,0.84,6.455,2.109,9.653,3.809V2.784
								c-3.228-1.367-6.533-2.402-9.922-3.125c-3.384-0.723-6.816-1.074-10.298-1.074c-8.726,0-15.64,2.529-20.732,7.598
								c-5.093,5.088-7.642,11.963-7.642,20.63c0,8.95,2.417,16.045,7.251,21.299c4.834,5.259,11.353,7.891,19.561,7.891
								c7.358,0,13.174-2.373,17.456-7.109C140.344,44.161,142.483,37.731,142.483,29.596z M133.498,32.233
								c-0.063,4.907-1.436,8.823-4.126,11.753c-2.686,2.935-6.245,4.404-10.669,4.404c-5.015,0-9.023-1.416-12.031-4.248
								c-3.013-2.832-4.746-6.826-5.205-11.968L133.498,32.233z"/>
						</g>
						<g>
							<path id="DejaVuSans-64" d="M193.21,46.393v29.59h8.984V0.001h-8.984v8.203c-1.885-3.252-4.272-5.674-7.158-7.256
								c-2.876-1.582-6.333-2.363-10.376-2.363c-6.602,0-11.982,2.627-16.138,7.9c-4.146,5.283-6.221,12.217-6.221,20.811
								s2.075,15.527,6.221,20.796c4.155,5.273,9.536,7.91,16.138,7.91c4.043,0,7.5-0.796,10.376-2.378
								C188.938,52.052,191.325,49.64,193.21,46.393z M162.6,27.296c0-6.602,1.357-11.787,4.077-15.547s6.455-5.645,11.206-5.645
								c4.746,0,8.486,1.885,11.216,5.645c2.739,3.76,4.111,8.945,4.111,15.547c0,6.606-1.372,11.787-4.111,15.547
								c-2.729,3.76-6.47,5.64-11.216,5.64c-4.751,0-8.486-1.88-11.206-5.64S162.6,33.903,162.6,27.296z"/>
						</g>
						<g>
							<path id="DejaVuSans-69_3_" d="M220.7,54.689h8.984V0.001H220.7V54.689z M220.7,75.983h8.984V64.596H220.7V75.983z"/>
						</g>
						<g>
							<path id="DejaVuSans-61_2_" d="M273.342,27.487c-7.261,0-12.29-0.83-15.093-2.485c-2.803-1.65-4.204-4.492-4.204-8.506
								c0-3.184,1.055-5.713,3.159-7.588c2.104-1.865,4.956-2.803,8.56-2.803c4.99,0,8.989,1.777,12.002,5.303
								s4.517,8.223,4.517,14.072v2.007H273.342z M291.267,31.202V0.001h-8.984v8.291c-2.051-3.301-4.609-5.762-7.671-7.344
								c-3.066-1.582-6.812-2.363-11.235-2.363c-5.596,0-10.049,1.562-13.359,4.707c-3.301,3.145-4.956,7.363-4.956,12.637
								c0,6.133,2.061,10.776,6.172,13.901c4.126,3.125,10.273,4.688,18.438,4.688h12.612v0.889c0,4.136-1.362,7.334-4.077,9.595
								c-2.72,2.261-6.538,3.389-11.455,3.389c-3.125,0-6.172-0.376-9.141-1.123c-2.959-0.752-5.801-1.875-8.53-3.374v8.311
								c3.281,1.27,6.47,2.217,9.565,2.842c3.096,0.64,6.104,0.957,9.028,0.957c7.915,0,13.828-2.056,17.734-6.157
								C289.314,45.748,291.267,39.537,291.267,31.202z"/>
						</g>
						<g>
							<path id="DejaVuSans-6e_2_" d="M355.232,33.014V0.001h-8.984v32.72c0,5.176-1.011,9.043-3.032,11.606
								c-2.017,2.573-5.044,3.862-9.077,3.862c-4.854,0-8.682-1.548-11.484-4.644c-2.803-3.081-4.204-7.295-4.204-12.642V0.001
								h-9.028v54.688h9.028v-8.501c2.158,3.291,4.688,5.752,7.598,7.373c2.915,1.626,6.279,2.441,10.093,2.441
								c6.279,0,11.03-1.943,14.248-5.83C353.62,46.285,355.232,40.568,355.232,33.014z"/>
						</g>
						<g>
							<path id="DejaVuSans-20_5_" d="M363.723,0.001"/>
						</g>
						<g>
							<path id="DejaVuSans-72_2_" d="M436.618,46.295c-1.011,0.586-2.109,1.011-3.296,1.284c-1.191,0.278-2.495,0.42-3.926,0.42
								c-5.083,0-8.984-1.65-11.699-4.951c-2.72-3.301-4.082-8.047-4.082-14.233V0.001h-9.028v54.688h9.028v-8.501
								c1.899,3.325,4.355,5.786,7.378,7.393c3.032,1.611,6.714,2.422,11.045,2.422c0.615,0,1.299-0.044,2.046-0.127
								c0.752-0.073,1.582-0.19,2.485-0.361L436.618,46.295z"/>
						</g>
						<g>
							<path id="DejaVuSans-69_4_" d="M446.042,54.689h8.984V0.001h-8.984V54.689z M446.042,75.983h8.984V64.596h-8.984V75.983z"/>
						</g>
						<g>
							<path id="DejaVuSans-73_4_" d="M508.684,53.077v-8.501c-2.529,1.304-5.166,2.28-7.905,2.925
								c-2.729,0.654-5.562,0.981-8.501,0.981c-4.458,0-7.798-0.679-10.029-2.046c-2.231-1.362-3.345-3.418-3.345-6.157
								c0-2.08,0.796-3.716,2.393-4.902c1.592-1.191,4.8-2.319,9.624-3.394l3.076-0.688c6.377-1.362,10.908-3.291,13.594-5.776
								c2.69-2.49,4.033-5.967,4.033-10.43c0-5.078-2.012-9.102-6.03-12.07c-4.023-2.959-9.546-4.434-16.577-4.434
								c-2.93,0-5.981,0.273-9.16,0.859c-3.174,0.566-6.519,1.426-10.029,2.559v9.277c3.325-1.729,6.592-3.027,9.814-3.887
								c3.218-0.859,6.411-1.289,9.575-1.289c4.229,0,7.48,0.723,9.751,2.178c2.28,1.445,3.423,3.486,3.423,6.123
								c0,2.441-0.825,4.307-2.471,5.605c-1.636,1.309-5.239,2.559-10.811,3.77l-3.125,0.742c-5.562,1.162-9.585,2.959-12.065,5.386
								c-2.466,2.427-3.701,5.752-3.701,9.98c0,5.146,1.821,9.116,5.469,11.909c3.647,2.803,8.823,4.204,15.532,4.204
								c3.311,0,6.431-0.249,9.36-0.737C503.513,54.786,506.218,54.059,508.684,53.077z"/>
						</g>
						<g>
							<path id="DejaVuSans-6b_1_" d="M525.583,75.983h9.028V31.11l26.816,23.579h11.465l-28.999-25.581l30.234-29.106h-11.719
								l-27.798,26.704V0.001h-9.028V75.983L525.583,75.983z"/>
						</g>
					</g>
				</g>
			</g>
			<g id="ytick_3">
				<g id="text_7">
					<g transform="translate(-12.334375 76.481816)scale(0.1 -0.1)">
						<g>
							<path id="DejaVuSans-48" d="M9.814,72.904h9.858V43.016h35.845v29.888h9.858V-0.001h-9.858V34.72H19.672V-0.001H9.814V72.904
								z"/>
						</g>
						<g>
							<path id="DejaVuSans-69_5_" d="M84.618,54.686h8.984V-0.001h-8.984V54.686z M84.618,75.985h8.984V64.594h-8.984V75.985z"/>
						</g>
						<g>
							<path id="DejaVuSans-67" d="M148.383,27.982c0,6.514-1.343,11.553-4.028,15.127c-2.676,3.584-6.445,5.376-11.299,5.376
								c-4.81,0-8.56-1.792-11.25-5.376c-2.686-3.574-4.028-8.613-4.028-15.127c0-6.475,1.343-11.509,4.028-15.093
								c2.69-3.584,6.44-5.376,11.25-5.376c4.854,0,8.623,1.792,11.299,5.376C147.04,16.473,148.383,21.508,148.383,27.982z
								 M157.367,6.781c0-9.302-2.065-16.226-6.201-20.767c-4.126-4.541-10.454-6.812-18.984-6.812
								c-3.154,0-6.138,0.234-8.936,0.703c-2.803,0.469-5.522,1.191-8.159,2.173v8.735c2.637-1.431,5.239-2.48,7.812-3.159
								c2.573-0.688,5.195-1.03,7.861-1.03c5.894,0,10.308,1.538,13.232,4.609c2.93,3.071,4.39,7.72,4.39,13.936v4.453
								c-1.851-3.228-4.229-5.64-7.124-7.231c-2.896-1.597-6.362-2.393-10.405-2.393c-6.699,0-12.1,2.554-16.201,7.656
								c-4.106,5.117-6.157,11.89-6.157,20.327c0,8.462,2.051,15.244,6.157,20.347c4.102,5.112,9.502,7.671,16.201,7.671
								c4.043,0,7.51-0.796,10.405-2.393c2.896-1.592,5.273-3.999,7.124-7.217v8.296h8.984V6.781L157.367,6.781z"/>
						</g>
						<g>
							<path id="DejaVuSans-68_1_" d="M221.347,33.016V-0.001h-8.984v32.72c0,5.176-1.011,9.048-3.032,11.611
								c-2.021,2.573-5.049,3.857-9.077,3.857c-4.854,0-8.682-1.548-11.484-4.639c-2.803-3.086-4.204-7.3-4.204-12.642V-0.001
								h-9.033v75.986h9.033v-29.8c2.158,3.296,4.688,5.752,7.593,7.378c2.92,1.626,6.284,2.437,10.093,2.437
								c6.284,0,11.035-1.943,14.253-5.83C219.731,46.288,221.347,40.57,221.347,33.016z"/>
						</g>
						<g>
							<path id="DejaVuSans-65_3_" d="M286.039,29.594v-4.39h-41.313c0.396-6.187,2.261-10.903,5.591-14.141
								c3.335-3.242,7.983-4.858,13.94-4.858c3.447,0,6.792,0.42,10.029,1.265c3.242,0.845,6.46,2.114,9.658,3.813V2.782
								c-3.232-1.367-6.538-2.407-9.922-3.125c-3.389-0.718-6.816-1.079-10.298-1.079c-8.73,0-15.64,2.539-20.732,7.607
								c-5.098,5.088-7.642,11.963-7.642,20.625c0,8.95,2.417,16.05,7.251,21.299C247.431,53.368,253.954,56,262.162,56
								c7.354,0,13.174-2.368,17.451-7.109C283.896,44.164,286.039,37.728,286.039,29.594z M277.055,32.235
								c-0.063,4.907-1.44,8.823-4.126,11.748c-2.69,2.939-6.245,4.409-10.674,4.409c-5.01,0-9.019-1.416-12.031-4.253
								c-3.008-2.832-4.746-6.821-5.2-11.968L277.055,32.235z"/>
						</g>
						<g>
							<path id="DejaVuSans-73_5_" d="M335.639,53.08v-8.501c-2.529,1.304-5.166,2.275-7.905,2.92
								c-2.729,0.659-5.562,0.986-8.501,0.986c-4.458,0-7.803-0.684-10.029-2.046c-2.231-1.367-3.345-3.418-3.345-6.157
								c0-2.085,0.796-3.721,2.388-4.907c1.597-1.187,4.805-2.319,9.629-3.389l3.076-0.688c6.377-1.367,10.908-3.291,13.594-5.781
								s4.033-5.962,4.033-10.425c0-5.083-2.012-9.106-6.035-12.075c-4.019-2.959-9.546-4.438-16.577-4.438
								c-2.925,0-5.977,0.288-9.155,0.859c-3.179,0.571-6.519,1.426-10.029,2.563v9.282c3.32-1.729,6.592-3.027,9.81-3.892
								c3.218-0.854,6.411-1.284,9.58-1.284c4.233,0,7.48,0.728,9.751,2.173c2.28,1.45,3.418,3.491,3.418,6.128
								c0,2.437-0.82,4.307-2.466,5.605c-1.636,1.304-5.239,2.559-10.815,3.77l-3.125,0.732c-5.557,1.167-9.58,2.964-12.061,5.391
								c-2.471,2.427-3.701,5.757-3.701,9.985c0,5.146,1.821,9.116,5.469,11.904c3.647,2.803,8.823,4.204,15.527,4.204
								c3.315,0,6.436-0.244,9.36-0.732C330.468,54.789,333.168,54.056,335.639,53.08z"/>
						</g>
						<g>
							<path id="DejaVuSans-74_2_" d="M361.772,70.219V54.686h18.496v-6.982h-18.496V18.016c0-4.458,0.605-7.324,1.826-8.594
								s3.701-1.909,7.451-1.909h9.219v-7.515h-9.219c-6.934,0-11.724,1.294-14.355,3.877c-2.637,2.593-3.955,7.305-3.955,14.141
								v29.688h-6.592v6.982h6.592v15.532H361.772L361.772,70.219z"/>
						</g>
						<g>
							<path id="DejaVuSans-20_6_" d="M382.665-0.001"/>
						</g>
						<g>
							<path id="DejaVuSans-72_3_" d="M455.561,46.298c-1.011,0.581-2.109,1.011-3.296,1.279c-1.187,0.283-2.495,0.425-3.921,0.425
								c-5.083,0-8.984-1.65-11.704-4.956c-2.72-3.301-4.077-8.047-4.077-14.233V-0.001h-9.033v54.688h9.033v-8.501
								c1.895,3.325,4.355,5.791,7.373,7.393c3.032,1.616,6.714,2.422,11.05,2.422c0.615,0,1.294-0.039,2.046-0.127
								c0.752-0.068,1.577-0.19,2.485-0.356L455.561,46.298z"/>
						</g>
						<g>
							<path id="DejaVuSans-69_6_" d="M464.989,54.686h8.984V-0.001h-8.984V54.686z M464.989,75.985h8.984V64.594h-8.984V75.985z"/>
						</g>
						<g>
							<path id="DejaVuSans-73_6_" d="M527.631,53.08v-8.501c-2.529,1.304-5.166,2.275-7.905,2.92
								c-2.729,0.659-5.562,0.986-8.501,0.986c-4.458,0-7.803-0.684-10.029-2.046c-2.231-1.367-3.345-3.418-3.345-6.157
								c0-2.085,0.796-3.721,2.388-4.907c1.597-1.187,4.805-2.319,9.629-3.389l3.076-0.688c6.377-1.367,10.908-3.291,13.594-5.781
								s4.033-5.962,4.033-10.425c0-5.083-2.012-9.106-6.035-12.075c-4.019-2.959-9.546-4.438-16.577-4.438
								c-2.925,0-5.977,0.288-9.155,0.859s-6.519,1.426-10.029,2.563v9.282c3.32-1.729,6.592-3.027,9.81-3.892
								c3.218-0.854,6.411-1.284,9.58-1.284c4.229,0,7.48,0.728,9.751,2.173c2.28,1.45,3.418,3.491,3.418,6.128
								c0,2.437-0.82,4.307-2.466,5.605c-1.636,1.304-5.239,2.559-10.815,3.77l-3.125,0.732c-5.562,1.167-9.58,2.964-12.061,5.391
								c-2.471,2.427-3.701,5.757-3.701,9.985c0,5.146,1.821,9.116,5.469,11.904C498.275,54.598,503.456,56,510.16,56
								c3.315,0,6.436-0.244,9.36-0.732C522.46,54.789,525.16,54.056,527.631,53.08z"/>
						</g>
						<g>
							<path id="DejaVuSans-6b_2_" d="M544.526,75.985h9.033V31.107l26.812,23.579h11.47L562.841,29.11l30.234-29.111h-11.719
								l-27.798,26.704V-0.001h-9.033V75.985L544.526,75.985z"/>
						</g>
					</g>
				</g>
			</g>
		</g>
	</g>
</g>
<text transform="matrix(1 0 0 1 336.041 76.624)" fill="#FFFFFF" font-family="'MyriadPro-Regular'" font-size="12">23.1%</text>
<text transform="matrix(1 0 0 1 72.5 217.8184)" fill="#231F20" font-family="'MyriadPro-Regular'" font-size="12">0.9%</text>
<text transform="matrix(1 0 0 1 183.8296 147.624)" fill="#FFFFFF" font-family="'MyriadPro-Regular'" font-size="12">12.1%</text>
</svg>
