<?xml version="1.0" encoding="utf-8"?>
<!-- Generator: Adobe Illustrator 16.0.0, SVG Export Plug-In . SVG Version: 6.00 Build 0)  -->
<!DOCTYPE svg PUBLIC "-//W3C//DTD SVG 1.1//EN" "http://www.w3.org/Graphics/SVG/1.1/DTD/svg11.dtd">
<svg version="1.1" id="Layer_1" xmlns="http://www.w3.org/2000/svg" xmlns:xlink="http://www.w3.org/1999/xlink" x="0px" y="0px"
	 width="432px" height="288px" viewBox="0 0 432 288" enable-background="new 0 0 432 288" xml:space="preserve">
<g id="figure_1">
	<g id="axes_1">
		<g id="patch_3">
			<g>
				<g>
					<defs>
						<rect id="SVGID_1_" x="54" y="34.56" width="334.8" height="217.44"/>
					</defs>
					<clipPath id="SVGID_2_">
						<use xlink:href="#SVGID_1_"  overflow="visible"/>
					</clipPath>
					<path clip-path="url(#SVGID_2_)" fill="#8B0000" d="M54,241.128h218.104v-21.744H54V241.128z"/>
				</g>
			</g>
		</g>
		<g id="patch_4">
			<g>
				<g>
					<defs>
						<rect id="SVGID_3_" x="54" y="34.56" width="334.8" height="217.44"/>
					</defs>
					<clipPath id="SVGID_4_">
						<use xlink:href="#SVGID_3_"  overflow="visible"/>
					</clipPath>
					<path clip-path="url(#SVGID_4_)" fill="#8B0000" d="M54,197.641h254.191v-21.744H54V197.641z"/>
				</g>
			</g>
		</g>
		<g id="patch_5">
			<g>
				<g>
					<defs>
						<rect id="SVGID_5_" x="54" y="34.56" width="334.8" height="217.44"/>
					</defs>
					<clipPath id="SVGID_6_">
						<use xlink:href="#SVGID_5_"  overflow="visible"/>
					</clipPath>
					<path clip-path="url(#SVGID_6_)" fill="#8B0000" d="M54,154.152h282.766v-21.744H54V154.152z"/>
				</g>
			</g>
		</g>
		<g id="patch_6">
			<g>
				<g>
					<defs>
						<rect id="SVGID_7_" x="54" y="34.56" width="334.8" height="217.44"/>
					</defs>
					<clipPath id="SVGID_8_">
						<use xlink:href="#SVGID_7_"  overflow="visible"/>
					</clipPath>
					<path clip-path="url(#SVGID_8_)" fill="#8B0000" d="M54,110.664h300.438V88.92H54V110.664z"/>
				</g>
			</g>
		</g>
		<g id="patch_7">
			<g>
				<g>
					<path fill="#8B0000" d="M54,67.176h318.857V45.432H54V67.176z"/>
				</g>
			</g>
		</g>
		<g id="matplotlib.axis_1">
			<g id="xtick_1">
				<g id="line2d_1">
					<g>
						<g>
							<path id="mcb7c84416a" stroke="#000000" stroke-width="0.8" stroke-linejoin="round" d="M54,252v3.5"/>
						</g>
					</g>
				</g>
				<g id="text_1">
					<g transform="translate(50.81875 266.598437)scale(0.1 -0.1)">
						<g>
							<path id="DejaVuSans-30" d="M31.783,66.404c-5.073,0-8.892-2.5-11.455-7.5c-2.554-4.99-3.828-12.5-3.828-22.529
								c0-9.99,1.274-17.48,3.828-22.48c2.563-5,6.382-7.5,11.455-7.5c5.112,0,8.945,2.5,11.499,7.5
								c2.563,5,3.843,12.49,3.843,22.48c0,10.029-1.279,17.539-3.843,22.529C40.729,63.904,36.896,66.404,31.783,66.404z
								 M31.783,74.217c8.174,0,14.419-3.232,18.73-9.697c4.316-6.465,6.47-15.84,6.47-28.145c0-12.266-2.153-21.641-6.47-28.105
								c-4.312-6.465-10.557-9.688-18.73-9.688c-8.169,0-14.409,3.223-18.721,9.688s-6.47,15.84-6.47,28.105
								c0,12.305,2.158,21.68,6.47,28.145S23.614,74.217,31.783,74.217z"/>
						</g>
					</g>
				</g>
			</g>
			<g id="xtick_2">
				<g id="line2d_2">
					<g>
						<g>
							<path id="mcb7c84416a_1_" stroke="#000000" stroke-width="0.8" stroke-linejoin="round" d="M164.279,252v3.5"/>
						</g>
					</g>
				</g>
				<g id="text_2">
					<g transform="translate(161.097519 266.598437)scale(0.1 -0.1)">
						<g>
							<path id="DejaVuSans-35" d="M10.797,72.908h38.721v-8.311H19.831V46.736c1.426,0.488,2.852,0.85,4.277,1.094
								c1.44,0.244,2.876,0.361,4.316,0.361c8.135,0,14.575-2.227,19.326-6.689c4.761-4.463,7.139-10.498,7.139-18.115
								c0-7.842-2.441-13.945-7.324-18.291C42.677,0.75,35.792-1.418,26.906-1.418c-3.062,0-6.182,0.254-9.36,0.781
								c-3.164,0.518-6.44,1.299-9.824,2.344v9.922c2.925-1.602,5.952-2.783,9.077-3.564c3.125-0.781,6.426-1.172,9.907-1.172
								c5.635,0,10.093,1.475,13.374,4.434c3.291,2.959,4.937,6.982,4.937,12.061s-1.646,9.092-4.937,12.051
								c-3.281,2.969-7.739,4.453-13.374,4.453c-2.637,0-5.269-0.293-7.891-0.879c-2.617-0.586-5.288-1.484-8.018-2.734V72.908z"/>
						</g>
					</g>
				</g>
			</g>
			<g id="xtick_3">
				<g id="line2d_3">
					<g>
						<g>
							<path id="mcb7c84416a_2_" stroke="#000000" stroke-width="0.8" stroke-linejoin="round" d="M274.559,252v3.5"/>
						</g>
					</g>
				</g>
				<g id="text_3">
					<g transform="translate(268.195037 266.598437)scale(0.1 -0.1)">
						<g>
							<path id="DejaVuSans-31" d="M12.405,8.299h16.113v55.625l-17.539-3.516v8.984l17.441,3.516h9.863V8.299h16.113v-8.301H12.405
								V8.299z"/>
						</g>
						<g>
							<path id="DejaVuSans-30_1_" d="M95.403,66.404c-5.068,0-8.896-2.5-11.455-7.5c-2.549-4.99-3.828-12.5-3.828-22.529
								c0-9.99,1.279-17.48,3.828-22.48c2.559-5,6.387-7.5,11.455-7.5c5.117,0,8.955,2.5,11.494,7.5
								c2.568,5,3.848,12.49,3.848,22.48c0,10.029-1.279,17.539-3.848,22.529C104.358,63.904,100.52,66.404,95.403,66.404z
								 M95.403,74.217c8.174,0,14.424-3.232,18.74-9.697c4.307-6.465,6.465-15.84,6.465-28.145c0-12.266-2.158-21.641-6.465-28.105
								c-4.316-6.465-10.566-9.688-18.74-9.688c-8.164,0-14.404,3.223-18.721,9.688s-6.465,15.84-6.465,28.105
								c0,12.305,2.148,21.68,6.465,28.145S87.239,74.217,95.403,74.217z"/>
						</g>
					</g>
				</g>
			</g>
			<g id="xtick_4">
				<g id="line2d_4">
					<g>
						<g>
							<path id="mcb7c84416a_3_" stroke="#000000" stroke-width="0.8" stroke-linejoin="round" d="M384.836,252v3.5"/>
						</g>
					</g>
				</g>
				<g id="text_4">
					<g transform="translate(378.473806 266.598437)scale(0.1 -0.1)">
						<g>
							<path id="DejaVuSans-31_1_" d="M12.41,8.299h16.104v55.625l-17.529-3.516v8.984l17.441,3.516h9.854V8.299h16.113v-8.301
								H12.41V8.299z"/>
						</g>
						<g>
							<path id="DejaVuSans-35_1_" d="M74.422,72.908h38.721v-8.311H83.455V46.736c1.426,0.488,2.852,0.85,4.277,1.094
								c1.436,0.244,2.871,0.361,4.316,0.361c8.135,0,14.57-2.227,19.326-6.689s7.139-10.498,7.139-18.115
								c0-7.842-2.441-13.945-7.324-18.291c-4.893-4.346-11.777-6.514-20.664-6.514c-3.057,0-6.182,0.254-9.355,0.781
								c-3.164,0.518-6.445,1.299-9.824,2.344v9.922c2.92-1.602,5.947-2.783,9.072-3.564s6.426-1.172,9.912-1.172
								c5.635,0,10.088,1.475,13.369,4.434c3.291,2.959,4.941,6.982,4.941,12.061s-1.65,9.092-4.941,12.051
								c-3.281,2.969-7.734,4.453-13.369,4.453c-2.637,0-5.273-0.293-7.891-0.879s-5.293-1.484-8.018-2.734V72.908L74.422,72.908z"
								/>
						</g>
					</g>
				</g>
			</g>
			<g id="text_5">
				<g transform="translate(157.04375 280.276563)scale(0.1 -0.1)">
					<g>
						<path id="DejaVuSans-4c" d="M9.812,72.902h9.858V8.293h35.503V0.002H9.812V72.902z"/>
					</g>
					<g>
						<path id="DejaVuSans-6f" d="M86.306,48.39c-4.81,0-8.618-1.875-11.421-5.645c-2.803-3.75-4.204-8.906-4.204-15.449
							s1.392-11.699,4.175-15.449c2.788-3.77,6.606-5.645,11.45-5.645c4.795,0,8.584,1.885,11.377,5.654
							c2.803,3.779,4.204,8.936,4.204,15.439c0,6.484-1.401,11.621-4.204,15.41C94.89,46.496,91.101,48.39,86.306,48.39z
							 M86.306,55.998c7.812,0,13.95-2.539,18.408-7.627c4.468-5.068,6.704-12.09,6.704-21.074c0-8.945-2.236-15.977-6.704-21.074
							c-4.458-5.098-10.596-7.646-18.408-7.646c-7.842,0-13.989,2.549-18.438,7.646c-4.438,5.098-6.655,12.129-6.655,21.074
							c0,8.984,2.217,16.006,6.655,21.074C72.317,53.459,78.464,55.998,86.306,55.998z"/>
					</g>
					<g>
						<path id="DejaVuSans-61" d="M151.159,27.482c-7.261,0-12.29-0.83-15.093-2.48c-2.803-1.66-4.204-4.492-4.204-8.506
							c0-3.184,1.055-5.713,3.159-7.588c2.104-1.865,4.956-2.803,8.56-2.803c4.99,0,8.989,1.768,12.002,5.303
							c3.008,3.525,4.517,8.223,4.517,14.072v2.002H151.159z M169.084,31.203V0.002H160.1v8.291
							c-2.056-3.311-4.609-5.762-7.676-7.344c-3.062-1.582-6.807-2.373-11.23-2.373c-5.596,0-10.049,1.572-13.359,4.717
							c-3.306,3.145-4.956,7.363-4.956,12.627c0,6.143,2.061,10.781,6.172,13.906c4.126,3.125,10.273,4.688,18.438,4.688H160.1
							v0.889c0,4.141-1.362,7.344-4.082,9.6c-2.715,2.256-6.533,3.389-11.45,3.389c-3.125,0-6.172-0.371-9.141-1.123
							c-2.959-0.752-5.801-1.875-8.53-3.379v8.311c3.281,1.27,6.465,2.227,9.561,2.852s6.104,0.947,9.033,0.947
							c7.915,0,13.828-2.051,17.734-6.152C167.131,45.754,169.084,39.543,169.084,31.203z"/>
					</g>
					<g>
						<path id="DejaVuSans-6e" d="M233.049,33.019V0.002h-8.984v32.715c0,5.186-1.011,9.053-3.032,11.611
							c-2.021,2.578-5.044,3.857-9.077,3.857c-4.854,0-8.682-1.543-11.484-4.639c-2.803-3.086-4.204-7.295-4.204-12.637V0.002
							h-9.028v54.688h9.028v-8.506c2.158,3.301,4.688,5.752,7.593,7.383c2.92,1.621,6.284,2.432,10.098,2.432
							c6.279,0,11.03-1.943,14.248-5.83C231.433,46.281,233.049,40.568,233.049,33.019z"/>
					</g>
					<g>
						<path id="DejaVuSans-73" d="M285.818,53.078v-8.496c-2.529,1.299-5.166,2.266-7.905,2.92
							c-2.729,0.654-5.562,0.986-8.501,0.986c-4.458,0-7.803-0.684-10.029-2.051c-2.231-1.367-3.345-3.418-3.345-6.152
							c0-2.09,0.796-3.721,2.393-4.912c1.592-1.182,4.8-2.314,9.624-3.389l3.076-0.684c6.377-1.367,10.908-3.301,13.594-5.781
							c2.69-2.5,4.033-5.967,4.033-10.43c0-5.078-2.012-9.102-6.03-12.07c-4.023-2.969-9.551-4.443-16.582-4.443
							c-2.925,0-5.977,0.283-9.155,0.859c-3.174,0.576-6.519,1.436-10.029,2.568v9.277c3.32-1.729,6.592-3.027,9.81-3.887
							c3.228-0.859,6.411-1.289,9.58-1.289c4.233,0,7.48,0.723,9.751,2.178c2.28,1.445,3.428,3.486,3.428,6.123
							c0,2.441-0.825,4.307-2.476,5.605c-1.636,1.309-5.234,2.559-10.811,3.77l-3.125,0.732c-5.566,1.162-9.585,2.959-12.065,5.391
							c-2.466,2.432-3.701,5.752-3.701,9.99c0,5.137,1.821,9.111,5.474,11.904c3.643,2.803,8.818,4.199,15.527,4.199
							c3.315,0,6.436-0.244,9.355-0.732C280.647,54.787,283.352,54.054,285.818,53.078z"/>
					</g>
					<g>
						<path id="DejaVuSans-20" d="M293.635,0.002"/>
					</g>
					<g>
						<path id="DejaVuSans-77" d="M329.626,54.689h8.984l11.235-42.676l11.172,42.676h10.596l11.23-42.676l11.191,42.676h8.984
							L388.703,0.002h-10.591l-11.768,44.824L354.533,0.002h-10.61L329.626,54.689z"/>
					</g>
					<g>
						<path id="DejaVuSans-69" d="M416.633,54.689h8.984V0.002h-8.984V54.689z M416.633,75.988h8.984V64.592h-8.984V75.988z"/>
					</g>
					<g>
						<path id="DejaVuSans-74" d="M453.308,70.217V54.689h18.501v-6.982h-18.501V18.019c0-4.463,0.61-7.324,1.826-8.594
							c1.221-1.27,3.706-1.914,7.456-1.914h9.219v-7.51h-9.219c-6.938,0-11.724,1.289-14.36,3.877s-3.955,7.305-3.955,14.141v29.688
							h-6.592v6.982h6.592v15.527H453.308L453.308,70.217z"/>
					</g>
					<g>
						<path id="DejaVuSans-68" d="M529.094,33.019V0.002h-8.984v32.715c0,5.186-1.011,9.053-3.032,11.611
							c-2.021,2.578-5.044,3.857-9.077,3.857c-4.854,0-8.682-1.543-11.484-4.639c-2.803-3.086-4.204-7.295-4.204-12.637V0.002
							h-9.028v75.986h9.028V46.183c2.158,3.301,4.688,5.752,7.593,7.383c2.92,1.621,6.284,2.432,10.098,2.432
							c6.279,0,11.03-1.943,14.248-5.83C527.478,46.281,529.094,40.568,529.094,33.019z"/>
					</g>
					<g>
						<path id="DejaVuSans-20_1_" d="M537.58,0.002"/>
					</g>
					<g>
						<path id="DejaVuSans-70" d="M587.478,8.205v-29.004h-9.028v75.488h9.028v-8.301c1.895,3.252,4.282,5.664,7.163,7.236
							c2.881,1.582,6.328,2.373,10.322,2.373c6.65,0,12.041-2.627,16.182-7.9c4.16-5.273,6.24-12.207,6.24-20.801
							s-2.08-15.527-6.24-20.811c-4.141-5.273-9.531-7.91-16.182-7.91c-3.994,0-7.441,0.791-10.322,2.373
							S589.372,4.953,587.478,8.205z M618.059,27.297c0,6.602-1.367,11.787-4.082,15.547s-6.445,5.645-11.201,5.645
							s-8.501-1.885-11.221-5.645c-2.715-3.76-4.077-8.945-4.077-15.547s1.362-11.787,4.077-15.547
							c2.72-3.76,6.465-5.645,11.221-5.645s8.486,1.885,11.201,5.645S618.059,20.695,618.059,27.297z"/>
					</g>
					<g>
						<path id="DejaVuSans-72" d="M673.957,46.301c-1.016,0.586-2.109,1.006-3.301,1.279c-1.191,0.283-2.5,0.42-3.926,0.42
							c-5.078,0-8.984-1.65-11.699-4.951c-2.715-3.311-4.082-8.047-4.082-14.238V0.002h-9.023v54.688h9.023v-8.506
							c1.895,3.32,4.355,5.791,7.383,7.393c3.027,1.611,6.719,2.422,11.045,2.422c0.615,0,1.299-0.039,2.041-0.127
							c0.762-0.068,1.582-0.195,2.49-0.352L673.957,46.301z"/>
					</g>
					<g>
						<path id="DejaVuSans-6f_1_" d="M704.543,48.39c-4.824,0-8.633-1.875-11.426-5.645c-2.803-3.75-4.199-8.906-4.199-15.449
							s1.387-11.699,4.16-15.449c2.793-3.77,6.621-5.645,11.465-5.645c4.785,0,8.574,1.885,11.367,5.654
							c2.803,3.779,4.199,8.936,4.199,15.439c0,6.484-1.396,11.621-4.199,15.41C713.117,46.496,709.328,48.39,704.543,48.39z
							 M704.543,55.998c7.812,0,13.945-2.539,18.398-7.627c4.473-5.068,6.699-12.09,6.699-21.074c0-8.945-2.227-15.977-6.699-21.074
							c-4.453-5.098-10.586-7.646-18.398-7.646c-7.852,0-13.994,2.549-18.438,7.646s-6.66,12.129-6.66,21.074
							c0,8.984,2.217,16.006,6.66,21.074C690.549,53.459,696.692,55.998,704.543,55.998z"/>
					</g>
					<g>
						<path id="DejaVuSans-62" d="M783.801,27.297c0,6.602-1.367,11.787-4.082,15.547s-6.455,5.645-11.201,5.645
							c-4.756,0-8.506-1.885-11.221-5.645s-4.082-8.945-4.082-15.547s1.367-11.787,4.082-15.547s6.465-5.645,11.221-5.645
							c4.746,0,8.486,1.885,11.201,5.645S783.801,20.695,783.801,27.297z M753.215,46.388c1.895,3.252,4.287,5.664,7.158,7.236
							c2.881,1.582,6.328,2.373,10.332,2.373c6.65,0,12.041-2.627,16.182-7.9c4.16-5.273,6.24-12.207,6.24-20.801
							s-2.08-15.527-6.24-20.811c-4.141-5.273-9.531-7.91-16.182-7.91c-4.004,0-7.451,0.791-10.332,2.373
							c-2.871,1.582-5.264,4.004-7.158,7.256V0.002h-9.023v75.986h9.023V46.388z"/>
					</g>
					<g>
						<path id="DejaVuSans-6c" d="M808.01,75.988h8.984V0.002h-8.984V75.988z"/>
					</g>
					<g>
						<path id="DejaVuSans-65" d="M882.571,29.592v-4.385h-41.309c0.391-6.191,2.266-10.898,5.586-14.141
							c3.34-3.242,7.988-4.863,13.945-4.863c3.447,0,6.797,0.42,10.029,1.27c3.232,0.84,6.455,2.109,9.658,3.809V2.785
							c-3.232-1.367-6.543-2.412-9.922-3.125c-3.389-0.723-6.816-1.084-10.293-1.084c-8.73,0-15.645,2.539-20.742,7.607
							c-5.098,5.088-7.637,11.963-7.637,20.625c0,8.945,2.422,16.055,7.246,21.299c4.834,5.264,11.357,7.891,19.57,7.891
							c7.344,0,13.164-2.373,17.441-7.109C880.432,44.162,882.571,37.726,882.571,29.592z M873.586,32.238
							c-0.059,4.902-1.436,8.818-4.121,11.748c-2.695,2.939-6.25,4.404-10.674,4.404c-5.01,0-9.014-1.416-12.031-4.248
							c-3.018-2.842-4.746-6.826-5.205-11.973L873.586,32.238z"/>
					</g>
					<g>
						<path id="DejaVuSans-6d" d="M939.895,44.191c2.246,4.043,4.941,7.012,8.066,8.936c3.125,1.914,6.797,2.871,11.025,2.871
							c5.693,0,10.088-1.992,13.193-5.986c3.086-3.975,4.629-9.648,4.629-16.992V0.002h-9.023v32.715
							c0,5.244-0.938,9.131-2.793,11.66c-1.855,2.539-4.688,3.809-8.496,3.809c-4.648,0-8.34-1.543-11.035-4.639
							c-2.705-3.086-4.053-7.295-4.053-12.637V0.002h-9.033v32.715c0,5.273-0.918,9.17-2.773,11.689s-4.727,3.779-8.594,3.779
							c-4.6,0-8.252-1.553-10.957-4.658c-2.695-3.105-4.043-7.305-4.043-12.617V0.002h-9.043v54.688h9.043v-8.506
							c2.051,3.359,4.512,5.83,7.363,7.422c2.871,1.602,6.27,2.393,10.215,2.393c3.975,0,7.354-1.006,10.137-3.027
							C936.496,50.959,938.567,48.029,939.895,44.191z"/>
					</g>
					<g>
						<path id="DejaVuSans-73_1_" d="M1029.582,53.078v-8.496c-2.529,1.299-5.156,2.266-7.9,2.92
							c-2.725,0.654-5.566,0.986-8.506,0.986c-4.453,0-7.793-0.684-10.029-2.051c-2.227-1.367-3.34-3.418-3.34-6.152
							c0-2.09,0.791-3.721,2.393-4.912c1.592-1.182,4.805-2.314,9.619-3.389l3.076-0.684c6.377-1.367,10.908-3.301,13.594-5.781
							c2.695-2.5,4.033-5.967,4.033-10.43c0-5.078-2.002-9.102-6.025-12.07s-9.551-4.443-16.582-4.443
							c-2.93,0-5.977,0.283-9.16,0.859c-3.174,0.576-6.523,1.436-10.029,2.568v9.277c3.33-1.729,6.592-3.027,9.814-3.887
							s6.406-1.289,9.58-1.289c4.229,0,7.471,0.723,9.746,2.178c2.285,1.445,3.428,3.486,3.428,6.123
							c0,2.441-0.82,4.307-2.471,5.605c-1.631,1.309-5.244,2.559-10.81,3.77l-3.125,0.732c-5.566,1.162-9.59,2.959-12.07,5.391
							c-2.461,2.432-3.701,5.752-3.701,9.99c0,5.137,1.826,9.111,5.469,11.904c3.643,2.803,8.818,4.199,15.537,4.199
							c3.31,0,6.426-0.244,9.355-0.732C1024.416,54.787,1027.121,54.054,1029.582,53.078z"/>
					</g>
					<g>
						<path id="DejaVuSans-20_2_" d="M1037.404,0.002"/>
					</g>
					<g>
						<path id="DejaVuSans-69_1_" d="M1078.615,54.689h8.984V0.002h-8.984V54.689z M1078.615,75.988h8.984V64.592h-8.984V75.988z"/>
					</g>
					<g>
						<path id="DejaVuSans-6e_1_" d="M1151.867,33.019V0.002h-8.984v32.715c0,5.186-1.016,9.053-3.027,11.611
							c-2.031,2.578-5.059,3.857-9.082,3.857c-4.863,0-8.691-1.543-11.484-4.639c-2.803-3.086-4.199-7.295-4.199-12.637V0.002
							h-9.043v54.688h9.043v-8.506c2.148,3.301,4.688,5.752,7.588,7.383c2.92,1.621,6.279,2.432,10.088,2.432
							c6.289,0,11.035-1.943,14.258-5.83S1151.867,40.568,1151.867,33.019z"/>
					</g>
					<g>
						<path id="DejaVuSans-20_3_" d="M1160.354,0.002"/>
					</g>
					<g>
						<path id="DejaVuSans-25" d="M1264.846,32.082c-2.842,0-5.059-1.211-6.67-3.613c-1.602-2.402-2.412-5.762-2.412-10.059
							c0-4.238,0.811-7.559,2.412-9.99c1.611-2.432,3.828-3.643,6.67-3.643c2.764,0,4.951,1.211,6.562,3.643s2.422,5.752,2.422,9.99
							c0,4.268-0.811,7.617-2.422,10.029C1269.797,30.871,1267.609,32.082,1264.846,32.082z M1264.846,38.283
							c5.146,0,9.229-1.787,12.246-5.381c3.037-3.574,4.551-8.398,4.551-14.492s-1.523-10.918-4.561-14.492
							c-3.047-3.555-7.129-5.342-12.236-5.342c-5.205,0-9.326,1.787-12.363,5.342c-3.018,3.574-4.531,8.398-4.531,14.492
							c0,6.123,1.523,10.967,4.561,14.531C1255.559,36.496,1259.66,38.283,1264.846,38.283z M1214.455,68.019
							c-2.803,0-5.01-1.211-6.631-3.643c-1.602-2.412-2.402-5.752-2.402-9.99c0-4.287,0.801-7.637,2.393-10.059
							c1.592-2.402,3.799-3.613,6.641-3.613c2.832,0,5.049,1.211,6.65,3.613c1.621,2.422,2.422,5.771,2.422,10.059
							c0,4.199-0.811,7.52-2.432,9.961C1219.465,66.789,1217.258,68.019,1214.455,68.019z M1258.547,74.22h7.812l-45.605-75.645
							h-7.812L1258.547,74.22z M1214.455,74.22c5.146,0,9.248-1.787,12.295-5.342c3.066-3.564,4.59-8.398,4.59-14.492
							c0-6.143-1.523-10.996-4.561-14.541c-3.037-3.555-7.148-5.332-12.324-5.332c-5.186,0-9.268,1.787-12.285,5.342
							c-3.008,3.574-4.512,8.418-4.512,14.531c0,6.064,1.514,10.879,4.531,14.453C1205.217,72.433,1209.309,74.22,1214.455,74.22z"
							/>
					</g>
				</g>
			</g>
		</g>
		<g id="matplotlib.axis_2">
			<g id="ytick_1">
				<g id="text_6">
					<g transform="translate(-8.553125 234.055219)scale(0.1 -0.1)">
						<g>
							<path id="DejaVuSans-43" d="M64.409,67.281V56.89c-3.325,3.096-6.865,5.4-10.625,6.924
								c-3.765,1.523-7.759,2.295-11.987,2.295c-8.33,0-14.712-2.549-19.141-7.646c-4.424-5.088-6.641-12.451-6.641-22.09
								c0-9.6,2.217-16.953,6.641-22.051c4.429-5.088,10.811-7.637,19.141-7.637c4.229,0,8.223,0.762,11.987,2.305
								c3.76,1.523,7.3,3.838,10.625,6.934V5.611c-3.452-2.344-7.104-4.102-10.972-5.283C49.584-0.835,45.512-1.42,41.22-1.42
								c-11.045,0-19.741,3.379-26.094,10.117C8.784,15.464,5.61,24.693,5.61,36.372c0,11.719,3.174,20.957,9.517,27.705
								c6.353,6.768,15.049,10.146,26.094,10.146c4.355,0,8.457-0.586,12.31-1.738C57.397,71.333,61.02,69.595,64.409,67.281z"/>
						</g>
						<g>
							<path id="DejaVuSans-72_1_" d="M110.932,46.294c-1.011,0.586-2.109,1.016-3.296,1.289s-2.495,0.41-3.921,0.41
								c-5.083,0-8.984-1.641-11.704-4.941s-4.077-8.047-4.077-14.238V0.005h-9.033v54.688h9.033v-8.506
								c1.895,3.33,4.355,5.791,7.373,7.393c3.032,1.611,6.714,2.422,11.05,2.422c0.615,0,1.294-0.039,2.046-0.127
								c0.752-0.068,1.577-0.186,2.485-0.361L110.932,46.294z"/>
						</g>
						<g>
							<path id="DejaVuSans-65_1_" d="M167.109,29.595v-4.395h-41.313c0.396-6.191,2.261-10.898,5.596-14.141
								s7.979-4.863,13.936-4.863c3.447,0,6.792,0.43,10.034,1.27c3.237,0.84,6.455,2.119,9.653,3.809V2.779
								c-3.228-1.367-6.533-2.402-9.922-3.125c-3.384-0.723-6.816-1.074-10.293-1.074c-8.73,0-15.645,2.539-20.737,7.607
								c-5.093,5.088-7.642,11.963-7.642,20.625c0,8.955,2.417,16.045,7.251,21.299s11.353,7.891,19.565,7.891
								c7.354,0,13.169-2.373,17.451-7.109C164.97,44.165,167.109,37.73,167.109,29.595z M158.124,32.232
								c-0.063,4.902-1.436,8.828-4.126,11.758c-2.686,2.93-6.245,4.395-10.669,4.395c-5.01,0-9.023-1.406-12.031-4.238
								c-3.013-2.832-4.746-6.826-5.205-11.973L158.124,32.232z"/>
						</g>
						<g>
							<path id="DejaVuSans-64" d="M217.836,46.392v29.59h8.984V0.005h-8.984v8.203c-1.885-3.262-4.272-5.674-7.158-7.256
								c-2.871-1.582-6.333-2.373-10.371-2.373c-6.606,0-11.987,2.637-16.143,7.91c-4.146,5.273-6.221,12.207-6.221,20.801
								s2.075,15.527,6.221,20.801c4.155,5.273,9.536,7.91,16.143,7.91c4.038,0,7.5-0.791,10.371-2.383
								C213.564,52.056,215.951,49.634,217.836,46.392z M187.226,27.29c0-6.602,1.362-11.777,4.077-15.547
								c2.72-3.75,6.455-5.635,11.206-5.635s8.486,1.885,11.216,5.635c2.739,3.77,4.111,8.945,4.111,15.547
								c0,6.611-1.372,11.797-4.111,15.547c-2.729,3.77-6.465,5.645-11.216,5.645s-8.486-1.875-11.206-5.645
								C188.588,39.087,187.226,33.902,187.226,27.29z"/>
						</g>
						<g>
							<path id="DejaVuSans-69_2_" d="M245.326,54.693h8.984V0.005h-8.984V54.693z M245.326,75.982h8.984V64.595h-8.984V75.982z"/>
						</g>
						<g>
							<path id="DejaVuSans-74_1_" d="M282.001,70.22V54.693h18.501v-6.992h-18.501V18.013c0-4.453,0.61-7.324,1.831-8.594
								c1.216-1.27,3.701-1.904,7.451-1.904h9.219v-7.51h-9.219c-6.938,0-11.724,1.289-14.36,3.867
								c-2.637,2.598-3.95,7.305-3.95,14.141v29.688h-6.597v6.992h6.597V70.22H282.001z"/>
						</g>
						<g>
							<path id="DejaVuSans-20_4_" d="M302.9,0.005"/>
						</g>
						<g>
							<path id="DejaVuSans-63" d="M383.466,52.593v-8.408c-2.539,1.406-5.088,2.461-7.642,3.164
								c-2.549,0.693-5.127,1.035-7.734,1.035c-5.83,0-10.361-1.836-13.594-5.547c-3.218-3.682-4.824-8.867-4.824-15.547
								c0-6.67,1.606-11.855,4.824-15.557c3.232-3.682,7.764-5.537,13.594-5.537c2.607,0,5.186,0.352,7.734,1.055
								c2.554,0.703,5.103,1.748,7.642,3.154V2.095c-2.51-1.172-5.107-2.041-7.798-2.627c-2.676-0.596-5.527-0.889-8.56-0.889
								c-8.242,0-14.785,2.588-19.644,7.764c-4.844,5.176-7.266,12.158-7.266,20.947c0,8.926,2.451,15.938,7.344,21.035
								c4.907,5.117,11.626,7.676,20.156,7.676c2.764,0,5.459-0.293,8.096-0.859S380.986,53.736,383.466,52.593z"/>
						</g>
						<g>
							<path id="DejaVuSans-61_1_" d="M423.949,27.486c-7.261,0-12.295-0.83-15.098-2.48c-2.798-1.66-4.199-4.492-4.199-8.506
								c0-3.193,1.05-5.713,3.154-7.588s4.956-2.803,8.564-2.803c4.985,0,8.989,1.768,11.997,5.303
								c3.013,3.525,4.517,8.223,4.517,14.072v2.002H423.949z M441.869,31.197V0.005h-8.984v8.291
								c-2.051-3.311-4.609-5.762-7.671-7.344s-6.807-2.373-11.235-2.373c-5.596,0-10.049,1.572-13.359,4.717
								c-3.301,3.145-4.951,7.354-4.951,12.627c0,6.143,2.056,10.781,6.172,13.906c4.121,3.125,10.269,4.688,18.438,4.688h12.607
								v0.889c0,4.131-1.357,7.334-4.077,9.6c-2.72,2.256-6.538,3.379-11.455,3.379c-3.125,0-6.172-0.371-9.141-1.113
								c-2.959-0.762-5.801-1.875-8.53-3.379v8.311c3.281,1.27,6.47,2.217,9.561,2.842c3.096,0.645,6.108,0.957,9.033,0.957
								c7.915,0,13.828-2.051,17.734-6.152S441.869,39.537,441.869,31.197z"/>
						</g>
						<g>
							<path id="DejaVuSans-72_2_" d="M492.055,46.294c-1.011,0.586-2.109,1.016-3.296,1.289s-2.495,0.41-3.921,0.41
								c-5.083,0-8.984-1.641-11.704-4.941s-4.077-8.047-4.077-14.238V0.005h-9.033v54.688h9.033v-8.506
								c1.895,3.33,4.351,5.791,7.373,7.393c3.032,1.611,6.714,2.422,11.045,2.422c0.615,0,1.299-0.039,2.051-0.127
								c0.747-0.068,1.577-0.186,2.48-0.361L492.055,46.294z"/>
						</g>
						<g>
							<path id="DejaVuSans-64_1_" d="M537.45,46.392v29.59h8.984V0.005h-8.984v8.203c-1.885-3.262-4.272-5.674-7.158-7.256
								c-2.876-1.582-6.333-2.373-10.376-2.373c-6.602,0-11.982,2.637-16.138,7.91c-4.146,5.273-6.221,12.207-6.221,20.801
								s2.075,15.527,6.221,20.801c4.155,5.273,9.536,7.91,16.138,7.91c4.043,0,7.5-0.791,10.376-2.383
								C533.178,52.056,535.566,49.634,537.45,46.392z M506.84,27.29c0-6.602,1.357-11.777,4.077-15.547
								c2.72-3.75,6.455-5.635,11.206-5.635c4.746,0,8.486,1.885,11.216,5.635c2.739,3.77,4.111,8.945,4.111,15.547
								c0,6.611-1.372,11.797-4.111,15.547c-2.729,3.77-6.47,5.645-11.216,5.645c-4.751,0-8.486-1.875-11.206-5.645
								C508.198,39.087,506.84,33.902,506.84,27.29z"/>
						</g>
					</g>
				</g>
			</g>
			<g id="ytick_2">
				<g id="text_7">
					<g transform="translate(-53.028125 190.567219)scale(0.1 -0.1)">
						<g>
							<path id="DejaVuSans-48" d="M9.813,72.908h9.858V43.016h35.845v29.893h9.858v-72.91h-9.858v34.717H19.671V-0.002H9.813
								V72.908z"/>
						</g>
						<g>
							<path id="DejaVuSans-6f_2_" d="M105.804,48.387c-4.81,0-8.618-1.875-11.421-5.635s-4.204-8.916-4.204-15.459
								s1.392-11.689,4.175-15.449c2.788-3.76,6.606-5.645,11.45-5.645c4.795,0,8.584,1.895,11.377,5.664
								c2.803,3.779,4.204,8.926,4.204,15.43c0,6.484-1.401,11.621-4.204,15.41C114.388,46.492,110.599,48.387,105.804,48.387z
								 M105.804,56.004c7.812,0,13.95-2.539,18.408-7.627c4.468-5.068,6.704-12.1,6.704-21.084c0-8.945-2.236-15.977-6.704-21.074
								c-4.458-5.098-10.596-7.637-18.408-7.637c-7.842,0-13.989,2.539-18.438,7.637c-4.438,5.098-6.655,12.129-6.655,21.074
								c0,8.984,2.217,16.016,6.655,21.084C91.815,53.465,97.962,56.004,105.804,56.004z"/>
						</g>
						<g>
							<path id="DejaVuSans-6d_1_" d="M188.377,44.188c2.251,4.043,4.937,7.021,8.062,8.936c3.125,1.924,6.802,2.881,11.03,2.881
								c5.698,0,10.098-1.992,13.188-5.986c3.096-3.975,4.644-9.648,4.644-17.002V-0.002h-9.033v32.725
								c0,5.234-0.933,9.121-2.798,11.65c-1.855,2.549-4.683,3.818-8.481,3.818c-4.658,0-8.34-1.553-11.05-4.648
								c-2.695-3.086-4.048-7.295-4.048-12.637V-0.002h-9.028v32.725c0,5.273-0.928,9.16-2.783,11.68s-4.717,3.789-8.594,3.789
								c-4.595,0-8.242-1.562-10.952-4.658c-2.7-3.105-4.048-7.314-4.048-12.627V-0.002h-9.028v54.688h9.028V46.19
								c2.051,3.35,4.512,5.83,7.378,7.422c2.861,1.592,6.265,2.393,10.2,2.393c3.979,0,7.358-1.016,10.142-3.037
								C184.989,50.965,187.044,48.035,188.377,44.188z"/>
						</g>
						<g>
							<path id="DejaVuSans-65_2_" d="M289.993,29.598v-4.395H248.68c0.396-6.191,2.261-10.898,5.596-14.141
								c3.33-3.242,7.979-4.863,13.936-4.863c3.447,0,6.792,0.43,10.029,1.27c3.242,0.84,6.46,2.109,9.658,3.809V2.781
								c-3.228-1.367-6.538-2.402-9.922-3.125s-6.816-1.074-10.298-1.074c-8.73,0-15.64,2.539-20.732,7.607
								c-5.093,5.088-7.642,11.963-7.642,20.625c0,8.945,2.417,16.045,7.251,21.299s11.353,7.891,19.561,7.891
								c7.354,0,13.174-2.373,17.456-7.109C287.85,44.168,289.993,37.723,289.993,29.598z M281.009,32.235
								c-0.063,4.902-1.44,8.828-4.126,11.748c-2.686,2.939-6.245,4.404-10.674,4.404c-5.01,0-9.019-1.406-12.031-4.248
								c-3.008-2.832-4.741-6.826-5.2-11.963L281.009,32.235z"/>
						</g>
						<g>
							<path id="DejaVuSans-20_5_" d="M295.311-0.002"/>
						</g>
						<g>
							<path id="DejaVuSans-69_3_" d="M336.522,54.686h8.984V-0.002h-8.984V54.686z M336.522,75.985h8.984V64.598h-8.984V75.985z"/>
						</g>
						<g>
							<path id="DejaVuSans-6d_2_" d="M406.883,44.188c2.251,4.043,4.937,7.021,8.062,8.936c3.125,1.924,6.802,2.881,11.03,2.881
								c5.698,0,10.098-1.992,13.188-5.986c3.096-3.975,4.644-9.648,4.644-17.002V-0.002h-9.033v32.725
								c0,5.234-0.933,9.121-2.798,11.65c-1.855,2.549-4.683,3.818-8.481,3.818c-4.658,0-8.34-1.553-11.05-4.648
								c-2.695-3.086-4.048-7.295-4.048-12.637V-0.002h-9.028v32.725c0,5.273-0.928,9.16-2.783,11.68s-4.717,3.789-8.594,3.789
								c-4.595,0-8.242-1.562-10.952-4.658c-2.7-3.105-4.048-7.314-4.048-12.627V-0.002h-9.028v54.688h9.028V46.19
								c2.051,3.35,4.512,5.83,7.378,7.422c2.861,1.592,6.265,2.393,10.2,2.393c3.979,0,7.358-1.016,10.142-3.037
								C403.494,50.965,405.55,48.035,406.883,44.188z"/>
						</g>
						<g>
							<path id="DejaVuSans-70_1_" d="M470.404,8.201v-28.994h-9.028v75.479h9.028v-8.291c1.895,3.242,4.282,5.664,7.158,7.227
								c2.886,1.582,6.328,2.383,10.327,2.383c6.646,0,12.041-2.637,16.187-7.91c4.155-5.273,6.235-12.207,6.235-20.801
								s-2.08-15.527-6.235-20.811c-4.146-5.264-9.541-7.9-16.187-7.9c-3.999,0-7.441,0.781-10.327,2.373
								C474.686,2.537,472.298,4.949,470.404,8.201z M500.985,27.293c0,6.602-1.362,11.797-4.082,15.547
								c-2.715,3.77-6.45,5.645-11.201,5.645c-4.761,0-8.501-1.875-11.221-5.645c-2.715-3.75-4.077-8.945-4.077-15.547
								s1.362-11.777,4.077-15.547c2.72-3.75,6.46-5.635,11.221-5.635c4.751,0,8.486,1.885,11.201,5.635
								C499.622,15.516,500.985,20.692,500.985,27.293z"/>
						</g>
						<g>
							<path id="DejaVuSans-72_3_" d="M556.883,46.297c-1.011,0.586-2.109,1.016-3.301,1.279c-1.187,0.283-2.495,0.42-3.921,0.42
								c-5.083,0-8.984-1.641-11.704-4.951c-2.715-3.301-4.077-8.047-4.077-14.229V-0.002h-9.028v54.688h9.028V46.19
								c1.895,3.32,4.355,5.791,7.378,7.393c3.027,1.611,6.714,2.422,11.045,2.422c0.615,0,1.299-0.039,2.046-0.127
								c0.752-0.068,1.577-0.195,2.485-0.361L556.883,46.297z"/>
						</g>
						<g>
							<path id="DejaVuSans-6f_3_" d="M587.464,48.387c-4.814,0-8.623-1.875-11.421-5.635c-2.803-3.76-4.204-8.916-4.204-15.459
								s1.392-11.689,4.17-15.449c2.793-3.76,6.611-5.645,11.455-5.645c4.79,0,8.584,1.895,11.372,5.664
								c2.803,3.779,4.204,8.926,4.204,15.43c0,6.484-1.401,11.621-4.204,15.41C596.048,46.492,592.254,48.387,587.464,48.387z
								 M587.464,56.004c7.812,0,13.945-2.539,18.403-7.627c4.473-5.068,6.704-12.1,6.704-21.084c0-8.945-2.231-15.977-6.704-21.074
								c-4.458-5.098-10.591-7.637-18.403-7.637c-7.847,0-13.989,2.539-18.438,7.637c-4.438,5.098-6.655,12.129-6.655,21.074
								c0,8.984,2.217,16.016,6.655,21.084C573.475,53.465,579.617,56.004,587.464,56.004z"/>
						</g>
						<g>
							<path id="DejaVuSans-76" d="M621.019,54.686h9.517L647.63,8.797l17.095,45.889h9.512L653.724-0.002h-12.202L621.019,54.686z"
								/>
						</g>
						<g>
							<path id="DejaVuSans-65_3_" d="M733.416,29.598v-4.395h-41.309c0.396-6.191,2.261-10.898,5.591-14.141
								c3.335-3.242,7.979-4.863,13.94-4.863c3.447,0,6.792,0.43,10.029,1.27s6.46,2.109,9.658,3.809V2.781
								c-3.232-1.367-6.538-2.402-9.922-3.125c-3.389-0.723-6.821-1.074-10.298-1.074c-8.73,0-15.64,2.539-20.737,7.607
								c-5.093,5.088-7.637,11.963-7.637,20.625c0,8.945,2.417,16.045,7.246,21.299c4.834,5.254,11.357,7.891,19.565,7.891
								c7.349,0,13.169-2.373,17.451-7.109C731.278,44.168,733.416,37.723,733.416,29.598z M724.432,32.235
								c-0.059,4.902-1.436,8.828-4.121,11.748c-2.69,2.939-6.245,4.404-10.674,4.404c-5.01,0-9.019-1.406-12.031-4.248
								c-3.013-2.832-4.746-6.826-5.205-11.963L724.432,32.235z"/>
						</g>
						<g>
							<path id="DejaVuSans-6d_3_" d="M790.74,44.188c2.246,4.043,4.937,7.021,8.062,8.936c3.125,1.924,6.802,2.881,11.03,2.881
								c5.698,0,10.093-1.992,13.188-5.986c3.091-3.975,4.639-9.648,4.639-17.002V-0.002h-9.028v32.725
								c0,5.234-0.933,9.121-2.798,11.65c-1.855,2.549-4.683,3.818-8.486,3.818c-4.653,0-8.34-1.553-11.045-4.648
								c-2.7-3.086-4.048-7.295-4.048-12.637V-0.002h-9.033v32.725c0,5.273-0.923,9.16-2.778,11.68s-4.722,3.789-8.594,3.789
								c-4.595,0-8.247-1.562-10.952-4.658c-2.7-3.105-4.048-7.314-4.048-12.627V-0.002h-9.033v54.688h9.033V46.19
								c2.051,3.35,4.512,5.83,7.373,7.422c2.866,1.592,6.265,2.393,10.205,2.393c3.979,0,7.358-1.016,10.142-3.037
								C787.347,50.965,789.407,48.035,790.74,44.188z"/>
						</g>
						<g>
							<path id="DejaVuSans-65_4_" d="M892.352,29.598v-4.395h-41.309c0.396-6.191,2.261-10.898,5.591-14.141
								c3.335-3.242,7.979-4.863,13.94-4.863c3.447,0,6.792,0.43,10.029,1.27s6.46,2.109,9.658,3.809V2.781
								c-3.232-1.367-6.538-2.402-9.922-3.125c-3.389-0.723-6.821-1.074-10.298-1.074c-8.73,0-15.64,2.539-20.737,7.607
								c-5.093,5.088-7.637,11.963-7.637,20.625c0,8.945,2.417,16.045,7.246,21.299c4.834,5.254,11.357,7.891,19.565,7.891
								c7.354,0,13.169-2.373,17.451-7.109C890.213,44.168,892.352,37.723,892.352,29.598z M883.367,32.235
								c-0.059,4.902-1.436,8.828-4.121,11.748c-2.69,2.939-6.245,4.404-10.674,4.404c-5.01,0-9.019-1.406-12.031-4.248
								c-3.013-2.832-4.746-6.826-5.205-11.963L883.367,32.235z"/>
						</g>
						<g>
							<path id="DejaVuSans-6e_2_" d="M952.567,33.016V-0.002h-8.984v32.725c0,5.176-1.011,9.043-3.032,11.602
								c-2.021,2.578-5.049,3.867-9.077,3.867c-4.858,0-8.687-1.553-11.484-4.648c-2.803-3.086-4.204-7.295-4.204-12.637V-0.002
								h-9.033v54.688h9.033V46.19c2.153,3.291,4.688,5.752,7.593,7.373c2.915,1.621,6.279,2.441,10.093,2.441
								c6.284,0,11.03-1.953,14.253-5.83C950.95,46.287,952.567,40.574,952.567,33.016z"/>
						</g>
						<g>
							<path id="DejaVuSans-74_2_" d="M979.364,70.223V54.686h18.501v-6.982h-18.501V18.016c0-4.453,0.61-7.324,1.831-8.594
								c1.216-1.27,3.701-1.904,7.451-1.904h9.219v-7.52h-9.219c-6.938,0-11.724,1.299-14.36,3.877
								c-2.632,2.598-3.95,7.305-3.95,14.141v29.688h-6.597v6.982h6.597v15.537H979.364z"/>
						</g>
					</g>
				</g>
			</g>
			<g id="ytick_3">
				<g id="text_8">
					<g transform="translate(-30.0625 147.079219)scale(0.1 -0.1)">
						<g>
							<path id="DejaVuSans-4d" d="M9.815,72.906h14.702l18.594-49.614l18.701,49.614h14.702V0.001H66.89v64.014l-18.794-50h-9.907
								l-18.799,50V0.001H9.815V72.906z"/>
						</g>
						<g>
							<path id="DejaVuSans-61_2_" d="M120.562,27.487c-7.261,0-12.295-0.83-15.093-2.485c-2.803-1.65-4.204-4.492-4.204-8.506
								c0-3.184,1.05-5.713,3.154-7.588c2.104-1.865,4.961-2.803,8.564-2.803c4.99,0,8.989,1.777,11.997,5.303
								c3.013,3.525,4.517,8.223,4.517,14.072v2.007H120.562z M138.482,31.202V0.001h-8.984v8.291
								c-2.051-3.301-4.609-5.762-7.671-7.344s-6.807-2.363-11.235-2.363c-5.591,0-10.044,1.562-13.359,4.707
								c-3.301,3.145-4.951,7.363-4.951,12.637c0,6.133,2.056,10.776,6.172,13.901c4.126,3.125,10.269,4.688,18.438,4.688h12.607
								v0.889c0,4.136-1.357,7.334-4.077,9.595s-6.538,3.389-11.455,3.389c-3.125,0-6.172-0.376-9.141-1.123
								c-2.954-0.752-5.801-1.875-8.53-3.374v8.311c3.281,1.27,6.47,2.217,9.565,2.842c3.091,0.64,6.104,0.957,9.028,0.957
								c7.92,0,13.828-2.056,17.734-6.157C136.529,45.748,138.482,39.537,138.482,31.202z"/>
						</g>
						<g>
							<path id="DejaVuSans-6a" d="M156.983,54.689h8.984V-0.985c0-6.953-1.328-11.992-3.984-15.117
								c-2.646-3.125-6.919-4.688-12.812-4.688h-3.423v7.598h2.407c3.413,0,5.737,0.801,6.968,2.383
								c1.24,1.572,1.86,4.844,1.86,9.824V54.689z M156.983,75.983h8.984V64.596h-8.984V75.983z"/>
						</g>
						<g>
							<path id="DejaVuSans-6f_4_" d="M205.952,48.39c-4.814,0-8.623-1.88-11.421-5.64c-2.803-3.76-4.204-8.911-4.204-15.454
								s1.392-11.689,4.17-15.449c2.793-3.77,6.611-5.645,11.455-5.645c4.79,0,8.584,1.885,11.372,5.664
								c2.803,3.77,4.204,8.926,4.204,15.43c0,6.479-1.401,11.616-4.204,15.405C214.536,46.495,210.742,48.39,205.952,48.39z
								 M205.952,56.002c7.812,0,13.945-2.544,18.403-7.627c4.473-5.073,6.704-12.1,6.704-21.079c0-8.945-2.231-15.977-6.704-21.074
								c-4.458-5.098-10.591-7.637-18.403-7.637c-7.847,0-13.989,2.539-18.438,7.637c-4.438,5.098-6.655,12.129-6.655,21.074
								c0,8.979,2.217,16.006,6.655,21.079C191.963,53.458,198.106,56.002,205.952,56.002z"/>
						</g>
						<g>
							<path id="DejaVuSans-72_4_" d="M277.632,46.295c-1.011,0.586-2.109,1.011-3.296,1.284c-1.187,0.278-2.495,0.42-3.921,0.42
								c-5.083,0-8.984-1.65-11.704-4.951s-4.077-8.047-4.077-14.233V0.001h-9.033v54.688h9.033v-8.501
								c1.895,3.325,4.355,5.786,7.373,7.393c3.032,1.611,6.714,2.422,11.05,2.422c0.61,0,1.294-0.044,2.046-0.127
								c0.747-0.073,1.577-0.19,2.485-0.361L277.632,46.295z"/>
						</g>
						<g>
							<path id="DejaVuSans-20_6_" d="M277.637,0.001"/>
						</g>
						<g>
							<path id="DejaVuSans-70_2_" d="M327.534,8.204V-20.79h-9.033v75.479h9.033v-8.296c1.895,3.247,4.282,5.659,7.153,7.231
								c2.886,1.582,6.328,2.378,10.332,2.378c6.646,0,12.041-2.637,16.187-7.91c4.155-5.269,6.235-12.202,6.235-20.796
								s-2.08-15.527-6.235-20.811c-4.146-5.273-9.541-7.9-16.187-7.9c-4.004,0-7.446,0.781-10.332,2.363
								C331.817,2.531,329.429,4.952,327.534,8.204z M358.111,27.296c0,6.606-1.357,11.787-4.077,15.547s-6.455,5.64-11.201,5.64
								c-4.761,0-8.501-1.88-11.221-5.64s-4.077-8.94-4.077-15.547c0-6.602,1.357-11.787,4.077-15.547s6.46-5.645,11.221-5.645
								c4.746,0,8.481,1.885,11.201,5.645S358.111,20.695,358.111,27.296z"/>
						</g>
						<g>
							<path id="DejaVuSans-75" d="M381.402,21.573v33.115h8.984V21.925c0-5.176,1.006-9.062,3.013-11.66
								c2.021-2.578,5.054-3.867,9.097-3.867c4.844,0,8.672,1.543,11.484,4.629c2.822,3.105,4.233,7.324,4.233,12.656v31.006h8.984
								V0.001h-8.984v8.408c-2.178-3.32-4.707-5.801-7.593-7.402c-2.876-1.621-6.221-2.422-10.034-2.422
								c-6.279,0-11.05,1.953-14.312,5.859C383.028,8.351,381.402,14.054,381.402,21.573z"/>
						</g>
						<g>
							<path id="DejaVuSans-72_5_" d="M477.388,46.295c-1.011,0.586-2.109,1.011-3.296,1.284c-1.187,0.278-2.495,0.42-3.921,0.42
								c-5.083,0-8.984-1.65-11.704-4.951s-4.077-8.047-4.077-14.233V0.001h-9.033v54.688h9.033v-8.501
								c1.895,3.325,4.355,5.786,7.373,7.393c3.032,1.611,6.714,2.422,11.05,2.422c0.61,0,1.294-0.044,2.046-0.127
								c0.747-0.073,1.577-0.19,2.485-0.361L477.388,46.295z"/>
						</g>
						<g>
							<path id="DejaVuSans-63_1_" d="M526.143,52.594v-8.408c-2.544,1.406-5.088,2.461-7.642,3.159
								c-2.549,0.698-5.127,1.045-7.734,1.045c-5.83,0-10.361-1.846-13.594-5.547c-3.218-3.687-4.829-8.867-4.829-15.547
								s1.611-11.865,4.829-15.566c3.232-3.682,7.764-5.527,13.594-5.527c2.607,0,5.186,0.352,7.734,1.055
								c2.554,0.693,5.098,1.738,7.642,3.145V2.101c-2.51-1.172-5.107-2.051-7.798-2.637c-2.676-0.586-5.532-0.879-8.56-0.879
								c-8.242,0-14.79,2.578-19.644,7.754c-4.844,5.176-7.266,12.168-7.266,20.957c0,8.916,2.451,15.928,7.344,21.03
								c4.907,5.117,11.626,7.676,20.156,7.676c2.764,0,5.459-0.288,8.096-0.859C521.109,54.576,523.662,53.732,526.143,52.594z"/>
						</g>
						<g>
							<path id="DejaVuSans-68_1_" d="M587.232,33.014V0.001h-8.984v32.72c0,5.176-1.011,9.043-3.032,11.606
								c-2.017,2.573-5.044,3.862-9.077,3.862c-4.854,0-8.682-1.548-11.484-4.644c-2.803-3.081-4.204-7.295-4.204-12.642V0.001
								h-9.028v75.981h9.028V46.188c2.158,3.291,4.688,5.752,7.598,7.373c2.915,1.626,6.279,2.441,10.098,2.441
								c6.274,0,11.025-1.943,14.243-5.83C585.62,46.285,587.232,40.568,587.232,33.014z"/>
						</g>
						<g>
							<path id="DejaVuSans-61_3_" d="M630,27.487c-7.261,0-12.29-0.83-15.093-2.485c-2.803-1.65-4.204-4.492-4.204-8.506
								c0-3.184,1.055-5.713,3.159-7.588c2.104-1.865,4.956-2.803,8.56-2.803c4.99,0,8.989,1.777,12.002,5.303
								s4.517,8.223,4.517,14.072v2.007H630z M647.925,31.202V0.001h-8.984v8.291c-2.051-3.301-4.609-5.762-7.671-7.344
								c-3.066-1.582-6.812-2.363-11.235-2.363c-5.596,0-10.049,1.562-13.359,4.707c-3.301,3.145-4.956,7.363-4.956,12.637
								c0,6.133,2.061,10.776,6.172,13.901c4.126,3.125,10.273,4.688,18.438,4.688h12.612v0.889c0,4.136-1.362,7.334-4.077,9.595
								c-2.72,2.261-6.538,3.389-11.455,3.389c-3.125,0-6.172-0.376-9.141-1.123c-2.959-0.752-5.801-1.875-8.53-3.374v8.311
								c3.281,1.27,6.47,2.217,9.561,2.842c3.096,0.64,6.108,0.957,9.033,0.957c7.915,0,13.828-2.056,17.734-6.157
								C645.972,45.748,647.925,39.537,647.925,31.202z"/>
						</g>
						<g>
							<path id="DejaVuSans-73_2_" d="M701.28,53.077v-8.501c-2.529,1.304-5.166,2.28-7.905,2.925
								c-2.729,0.654-5.562,0.981-8.501,0.981c-4.458,0-7.798-0.679-10.029-2.046c-2.231-1.362-3.345-3.418-3.345-6.157
								c0-2.08,0.796-3.716,2.393-4.902c1.592-1.191,4.8-2.319,9.624-3.394l3.076-0.688c6.377-1.362,10.908-3.291,13.594-5.776
								c2.69-2.49,4.033-5.967,4.033-10.43c0-5.078-2.012-9.102-6.03-12.07c-4.023-2.959-9.546-4.434-16.577-4.434
								c-2.93,0-5.981,0.273-9.16,0.859c-3.174,0.566-6.519,1.426-10.029,2.559v9.277c3.325-1.729,6.592-3.027,9.814-3.887
								c3.218-0.859,6.411-1.289,9.575-1.289c4.229,0,7.48,0.723,9.751,2.178c2.28,1.445,3.423,3.486,3.423,6.123
								c0,2.441-0.825,4.307-2.471,5.605c-1.636,1.309-5.239,2.559-10.811,3.77l-3.125,0.742c-5.562,1.162-9.585,2.959-12.065,5.386
								c-2.466,2.427-3.701,5.752-3.701,9.98c0,5.146,1.821,9.116,5.469,11.909c3.647,2.803,8.823,4.204,15.532,4.204
								c3.311,0,6.431-0.249,9.36-0.737C696.109,54.786,698.814,54.059,701.28,53.077z"/>
						</g>
						<g>
							<path id="DejaVuSans-65_5_" d="M765.303,29.596v-4.39H723.99c0.396-6.191,2.261-10.898,5.596-14.141
								c3.33-3.242,7.979-4.863,13.936-4.863c3.447,0,6.792,0.43,10.034,1.27c3.237,0.84,6.455,2.109,9.653,3.809V2.784
								c-3.228-1.367-6.533-2.402-9.922-3.125c-3.384-0.723-6.816-1.074-10.298-1.074c-8.726,0-15.64,2.529-20.732,7.598
								c-5.093,5.088-7.642,11.963-7.642,20.63c0,8.95,2.417,16.045,7.251,21.299c4.834,5.259,11.353,7.891,19.561,7.891
								c7.358,0,13.174-2.373,17.456-7.109C763.164,44.161,765.303,37.731,765.303,29.596z M756.319,32.233
								c-0.063,4.907-1.436,8.823-4.126,11.753c-2.686,2.935-6.245,4.404-10.669,4.404c-5.015,0-9.023-1.416-12.031-4.248
								c-3.013-2.832-4.746-6.826-5.205-11.968L756.319,32.233z"/>
						</g>
					</g>
				</g>
			</g>
			<g id="ytick_4">
				<g id="text_9">
					<g transform="translate(-46.770313 103.591219)scale(0.1 -0.1)">
						<g>
							<path id="DejaVuSans-44" d="M19.671,64.799V8.109h11.924c10.063,0,17.427,2.275,22.095,6.826
								c4.663,4.565,6.997,11.763,6.997,21.597c0,9.761-2.334,16.909-6.997,21.45c-4.668,4.541-12.031,6.816-22.095,6.816H19.671
								L19.671,64.799z M9.813,72.904h20.264c14.126,0,24.492-2.935,31.094-8.809c6.616-5.879,9.922-15.063,9.922-27.563
								c0-12.573-3.32-21.807-9.966-27.705c-6.636-5.884-16.987-8.828-31.05-8.828H9.813V72.904z"/>
						</g>
						<g>
							<path id="DejaVuSans-65_6_" d="M133.206,29.594v-4.39H91.893c0.396-6.187,2.261-10.903,5.596-14.141
								c3.33-3.242,7.979-4.858,13.936-4.858c3.447,0,6.792,0.42,10.029,1.265c3.242,0.845,6.46,2.114,9.658,3.813V2.782
								c-3.228-1.367-6.538-2.407-9.922-3.125s-6.816-1.079-10.298-1.079c-8.73,0-15.64,2.534-20.732,7.607
								c-5.093,5.083-7.642,11.958-7.642,20.625c0,8.95,2.417,16.05,7.251,21.299C94.603,53.368,101.121,56,109.329,56
								c7.354,0,13.174-2.368,17.456-7.109C131.063,44.159,133.206,37.729,133.206,29.594z M124.222,32.235
								c-0.063,4.907-1.44,8.823-4.126,11.748c-2.686,2.939-6.245,4.409-10.674,4.409c-5.01,0-9.019-1.421-12.031-4.253
								c-3.008-2.832-4.741-6.821-5.2-11.968L124.222,32.235z"/>
						</g>
						<g>
							<path id="DejaVuSans-62_1_" d="M187.215,27.299c0,6.602-1.362,11.782-4.082,15.547c-2.715,3.76-6.45,5.64-11.201,5.64
								c-4.761,0-8.501-1.88-11.221-5.64c-2.715-3.765-4.077-8.945-4.077-15.547c0-6.606,1.362-11.787,4.077-15.547
								c2.72-3.765,6.46-5.644,11.221-5.644c4.751,0,8.486,1.88,11.201,5.644C185.853,15.512,187.215,20.692,187.215,27.299z
								 M156.634,46.391c1.895,3.252,4.282,5.659,7.158,7.236C166.678,55.209,170.12,56,174.119,56
								c6.646,0,12.041-2.637,16.187-7.905c4.155-5.273,6.235-12.202,6.235-20.796s-2.08-15.532-6.235-20.815
								c-4.146-5.269-9.541-7.905-16.187-7.905c-3.999,0-7.441,0.791-10.327,2.373c-2.876,1.587-5.264,4.004-7.158,7.251v-8.203
								h-9.028v75.986h9.028V46.391z"/>
						</g>
						<g>
							<path id="DejaVuSans-74_3_" d="M220.316,70.219V54.687h18.501v-6.982h-18.501V18.017c0-4.458,0.61-7.324,1.826-8.594
								c1.221-1.274,3.706-1.909,7.456-1.909h9.219v-7.515h-9.219c-6.938,0-11.724,1.294-14.36,3.877
								c-2.637,2.593-3.955,7.305-3.955,14.141v29.688h-6.592v6.982h6.592v15.532H220.316z"/>
						</g>
						<g>
							<path id="DejaVuSans-20_7_" d="M241.209-0.001"/>
						</g>
						<g>
							<path id="DejaVuSans-63_2_" d="M321.78,52.592v-8.403c-2.544,1.406-5.088,2.456-7.642,3.154s-5.132,1.05-7.734,1.05
								c-5.835,0-10.366-1.851-13.594-5.547c-3.218-3.691-4.829-8.872-4.829-15.547c0-6.68,1.611-11.865,4.829-15.566
								c3.228-3.686,7.759-5.527,13.594-5.527c2.603,0,5.181,0.347,7.734,1.045s5.098,1.748,7.642,3.154V2.094
								c-2.51-1.167-5.112-2.041-7.798-2.627c-2.676-0.591-5.532-0.889-8.564-0.889c-8.237,0-14.785,2.588-19.639,7.764
								c-4.844,5.181-7.266,12.163-7.266,20.957c0,8.916,2.446,15.923,7.344,21.03C290.765,53.441,297.484,56,306.014,56
								c2.759,0,5.459-0.288,8.096-0.859C316.741,54.579,319.3,53.729,321.78,52.592z"/>
						</g>
						<g>
							<path id="DejaVuSans-6f_5_" d="M358.587,48.393c-4.81,0-8.618-1.885-11.421-5.645s-4.204-8.911-4.204-15.449
								c0-6.543,1.392-11.694,4.175-15.454c2.788-3.76,6.606-5.64,11.45-5.64c4.795,0,8.584,1.885,11.377,5.654
								c2.803,3.779,4.204,8.926,4.204,15.439c0,6.475-1.401,11.611-4.204,15.405C367.171,46.493,363.382,48.393,358.587,48.393z
								 M358.587,56c7.812,0,13.95-2.544,18.408-7.627c4.468-5.073,6.704-12.1,6.704-21.074c0-8.95-2.236-15.977-6.704-21.079
								c-4.458-5.093-10.596-7.642-18.408-7.642c-7.842,0-13.989,2.549-18.438,7.642c-4.438,5.102-6.655,12.129-6.655,21.079
								c0,8.975,2.217,16.001,6.655,21.074C344.598,53.456,350.745,56,358.587,56z"/>
						</g>
						<g>
							<path id="DejaVuSans-6e_3_" d="M444.051,33.017V-0.001h-8.984v32.72c0,5.176-1.011,9.048-3.032,11.611
								c-2.021,2.568-5.044,3.857-9.077,3.857c-4.854,0-8.682-1.548-11.484-4.639c-2.803-3.086-4.204-7.3-4.204-12.642V-0.001
								h-9.028v54.687h9.028v-8.501c2.158,3.291,4.688,5.752,7.593,7.378c2.92,1.626,6.284,2.437,10.098,2.437
								c6.279,0,11.03-1.943,14.248-5.83C442.435,46.288,444.051,40.565,444.051,33.017z"/>
						</g>
						<g>
							<path id="DejaVuSans-73_3_" d="M496.82,53.08v-8.501c-2.529,1.299-5.166,2.275-7.905,2.92
								c-2.729,0.659-5.562,0.986-8.501,0.986c-4.458,0-7.803-0.684-10.029-2.046c-2.231-1.367-3.345-3.418-3.345-6.157
								c0-2.085,0.796-3.721,2.393-4.907c1.592-1.187,4.8-2.319,9.624-3.389l3.076-0.688c6.377-1.367,10.908-3.291,13.594-5.781
								c2.69-2.49,4.033-5.967,4.033-10.425c0-5.083-2.012-9.106-6.03-12.075c-4.023-2.959-9.551-4.438-16.582-4.438
								c-2.925,0-5.977,0.288-9.155,0.859c-3.174,0.571-6.519,1.426-10.029,2.563v9.282c3.32-1.733,6.592-3.027,9.814-3.891
								c3.223-0.854,6.411-1.284,9.575-1.284c4.233,0,7.48,0.728,9.756,2.173c2.275,1.45,3.423,3.491,3.423,6.128
								c0,2.437-0.825,4.307-2.476,5.605c-1.636,1.304-5.234,2.559-10.811,3.77l-3.125,0.732c-5.566,1.167-9.585,2.964-12.065,5.391
								c-2.466,2.427-3.696,5.757-3.696,9.985c0,5.146,1.816,9.111,5.469,11.904c3.643,2.803,8.818,4.204,15.527,4.204
								c3.315,0,6.436-0.244,9.355-0.732C491.649,54.784,494.354,54.057,496.82,53.08z"/>
						</g>
						<g>
							<path id="DejaVuSans-6f_6_" d="M535.247,48.393c-4.81,0-8.618-1.885-11.421-5.645s-4.204-8.911-4.204-15.449
								c0-6.543,1.392-11.694,4.175-15.454c2.788-3.76,6.606-5.64,11.45-5.64c4.795,0,8.584,1.885,11.377,5.654
								c2.803,3.779,4.204,8.926,4.204,15.439c0,6.475-1.401,11.611-4.204,15.405C543.831,46.493,540.042,48.393,535.247,48.393z
								 M535.247,56c7.812,0,13.95-2.544,18.408-7.627c4.468-5.073,6.704-12.1,6.704-21.074c0-8.95-2.236-15.977-6.704-21.079
								c-4.458-5.093-10.596-7.642-18.408-7.642c-7.842,0-13.989,2.549-18.438,7.642c-4.438,5.102-6.655,12.129-6.655,21.079
								c0,8.975,2.217,16.001,6.655,21.074C521.258,53.456,527.405,56,535.247,56z"/>
						</g>
						<g>
							<path id="DejaVuSans-6c_1_" d="M575.242,75.985h8.984V-0.001h-8.984V75.985z"/>
						</g>
						<g>
							<path id="DejaVuSans-69_4_" d="M603.026,54.687h8.984V-0.001h-8.984V54.687z M603.026,75.985h8.984V64.594h-8.984V75.985z"/>
						</g>
						<g>
							<path id="DejaVuSans-64_2_" d="M666.795,46.391v29.595h8.984V-0.001h-8.984v8.203c-1.89-3.247-4.272-5.664-7.158-7.251
								c-2.876-1.582-6.333-2.373-10.376-2.373c-6.602,0-11.982,2.637-16.138,7.905c-4.146,5.283-6.221,12.222-6.221,20.815
								s2.075,15.522,6.221,20.796c4.155,5.269,9.536,7.905,16.138,7.905c4.043,0,7.5-0.791,10.376-2.373
								C662.523,52.05,664.905,49.643,666.795,46.391z M636.185,27.299c0-6.606,1.357-11.787,4.077-15.547
								c2.72-3.765,6.455-5.644,11.201-5.644c4.751,0,8.491,1.88,11.221,5.644c2.739,3.76,4.111,8.94,4.111,15.547
								c0,6.602-1.372,11.782-4.111,15.547c-2.729,3.76-6.47,5.64-11.221,5.64c-4.746,0-8.481-1.88-11.201-5.64
								C637.542,39.081,636.185,33.9,636.185,27.299z"/>
						</g>
						<g>
							<path id="DejaVuSans-61_4_" d="M719.144,27.484c-7.261,0-12.29-0.83-15.093-2.485s-4.204-4.487-4.204-8.501
								c0-3.184,1.055-5.718,3.159-7.593c2.104-1.865,4.956-2.798,8.56-2.798c4.99,0,8.989,1.768,12.002,5.298
								c3.008,3.53,4.517,8.223,4.517,14.077v2.002H719.144z M737.068,31.205V-0.001h-8.984v8.296
								c-2.056-3.311-4.609-5.757-7.676-7.344c-3.062-1.582-6.807-2.373-11.23-2.373c-5.596,0-10.049,1.572-13.359,4.717
								c-3.306,3.149-4.956,7.354-4.956,12.627c0,6.147,2.061,10.781,6.172,13.906c4.126,3.125,10.273,4.688,18.438,4.688h12.612
								v0.889c0,4.136-1.362,7.334-4.082,9.595c-2.715,2.261-6.533,3.394-11.45,3.394c-3.125,0-6.172-0.376-9.141-1.128
								c-2.959-0.747-5.801-1.875-8.53-3.374v8.311c3.281,1.274,6.465,2.222,9.561,2.847c3.096,0.64,6.104,0.952,9.033,0.952
								c7.915,0,13.828-2.051,17.734-6.157C735.115,45.751,737.068,39.535,737.068,31.205z"/>
						</g>
						<g>
							<path id="DejaVuSans-74_4_" d="M764.456,70.219V54.687h18.501v-6.982h-18.501V18.017c0-4.458,0.61-7.324,1.826-8.594
								c1.221-1.274,3.706-1.909,7.456-1.909h9.219v-7.515h-9.219c-6.938,0-11.724,1.294-14.36,3.877
								c-2.637,2.593-3.955,7.305-3.955,14.141v29.688h-6.592v6.982h6.592v15.532H764.456z"/>
						</g>
						<g>
							<path id="DejaVuSans-69_5_" d="M794.774,54.687h8.984V-0.001h-8.984V54.687z M794.774,75.985h8.984V64.594h-8.984V75.985z"/>
						</g>
						<g>
							<path id="DejaVuSans-6f_7_" d="M843.743,48.393c-4.81,0-8.618-1.885-11.421-5.645s-4.204-8.911-4.204-15.449
								c0-6.543,1.392-11.694,4.175-15.454c2.788-3.76,6.606-5.64,11.45-5.64c4.795,0,8.584,1.885,11.377,5.654
								c2.803,3.779,4.204,8.926,4.204,15.439c0,6.475-1.401,11.611-4.204,15.405C852.327,46.493,848.538,48.393,843.743,48.393z
								 M843.743,56c7.812,0,13.95-2.544,18.408-7.627c4.468-5.073,6.704-12.1,6.704-21.074c0-8.95-2.236-15.977-6.704-21.079
								c-4.458-5.093-10.596-7.642-18.408-7.642c-7.842,0-13.989,2.549-18.438,7.642c-4.438,5.102-6.655,12.129-6.655,21.079
								c0,8.975,2.217,16.001,6.655,21.074C829.754,53.456,835.901,56,843.743,56z"/>
						</g>
						<g>
							<path id="DejaVuSans-6e_4_" d="M929.207,33.017V-0.001h-8.984v32.72c0,5.176-1.011,9.048-3.032,11.611
								c-2.021,2.568-5.044,3.857-9.077,3.857c-4.854,0-8.682-1.548-11.484-4.639c-2.803-3.086-4.204-7.3-4.204-12.642V-0.001
								h-9.028v54.687h9.028v-8.501c2.158,3.291,4.688,5.752,7.593,7.378c2.92,1.626,6.284,2.437,10.098,2.437
								c6.279,0,11.03-1.943,14.248-5.83C927.591,46.288,929.207,40.565,929.207,33.017z"/>
						</g>
					</g>
				</g>
			</g>
			<g id="ytick_5">
				<g id="text_10">
					<g transform="translate(18.60625 60.103219)scale(0.1 -0.1)">
						<g>
							<path id="DejaVuSans-4f" d="M39.406,66.218c-7.168,0-12.861-2.671-17.08-8.013c-4.204-5.337-6.309-12.612-6.309-21.831
								c0-9.175,2.104-16.436,6.309-21.782c4.219-5.332,9.912-7.998,17.08-7.998c7.158,0,12.827,2.666,17.017,7.998
								c4.185,5.347,6.279,12.607,6.279,21.782c0,9.219-2.095,16.494-6.279,21.831C52.233,63.547,46.565,66.218,39.406,66.218z
								 M39.406,74.22c10.22,0,18.384-3.428,24.502-10.283c6.123-6.855,9.185-16.04,9.185-27.563
								c0-11.489-3.062-20.659-9.185-27.515C57.79,2.004,49.626-1.424,39.406-1.424c-10.249,0-18.447,3.418-24.595,10.254
								c-6.133,6.841-9.204,16.025-9.204,27.544c0,11.523,3.071,20.708,9.204,27.563C20.959,70.793,29.157,74.22,39.406,74.22z"/>
						</g>
						<g>
							<path id="DejaVuSans-74_5_" d="M97.024,70.217V54.689h18.501v-6.987H97.024V18.014c0-4.458,0.61-7.324,1.826-8.594
								c1.221-1.27,3.706-1.904,7.456-1.904h9.219V0.002h-9.219c-6.938,0-11.724,1.289-14.36,3.872
								c-2.637,2.593-3.955,7.31-3.955,14.141v29.688h-6.592v6.987h6.592v15.527H97.024z"/>
						</g>
						<g>
							<path id="DejaVuSans-68_2_" d="M172.81,33.014V0.002h-8.984v32.715c0,5.181-1.011,9.048-3.032,11.611
								c-2.017,2.573-5.044,3.857-9.077,3.857c-4.854,0-8.682-1.543-11.484-4.639c-2.803-3.081-4.204-7.295-4.204-12.642V0.002
								h-9.028v75.981h9.028V46.188c2.158,3.291,4.688,5.747,7.598,7.373c2.915,1.626,6.279,2.437,10.093,2.437
								c6.279,0,11.03-1.938,14.248-5.825C171.198,46.286,172.81,40.568,172.81,33.014z"/>
						</g>
						<g>
							<path id="DejaVuSans-65_7_" d="M237.502,29.592v-4.39h-41.313c0.396-6.187,2.261-10.898,5.596-14.141
								c3.33-3.237,7.979-4.858,13.936-4.858c3.447,0,6.792,0.42,10.034,1.265c3.237,0.845,6.455,2.114,9.653,3.813V2.78
								c-3.228-1.362-6.533-2.407-9.922-3.125c-3.384-0.718-6.816-1.079-10.298-1.079c-8.726,0-15.64,2.539-20.732,7.612
								c-5.093,5.083-7.642,11.958-7.642,20.625c0,8.945,2.417,16.045,7.251,21.294c4.834,5.264,11.353,7.891,19.561,7.891
								c7.358,0,13.174-2.368,17.456-7.109C235.363,44.162,237.502,37.731,237.502,29.592z M228.518,32.233
								c-0.063,4.907-1.436,8.823-4.126,11.753c-2.686,2.935-6.245,4.404-10.669,4.404c-5.015,0-9.023-1.416-12.031-4.248
								c-3.013-2.837-4.746-6.826-5.205-11.973L228.518,32.233z"/>
						</g>
						<g>
							<path id="DejaVuSans-72_6_" d="M283.933,46.296c-1.011,0.586-2.109,1.011-3.296,1.284c-1.191,0.278-2.495,0.42-3.926,0.42
								c-5.083,0-8.984-1.65-11.699-4.951c-2.72-3.306-4.082-8.047-4.082-14.238V0.002h-9.028v54.688h9.028v-8.501
								c1.899,3.32,4.355,5.786,7.378,7.388c3.032,1.616,6.714,2.422,11.045,2.422c0.615,0,1.299-0.039,2.046-0.122
								c0.752-0.073,1.582-0.195,2.485-0.361L283.933,46.296z"/>
						</g>
					</g>
				</g>
			</g>
		</g>
	</g>
</g>
<text transform="matrix(1 0 0 1 338.5 60.2461)" fill="#FFFFFF" font-family="'MyriadPro-Regular'" font-size="12">14.4%</text>
<text transform="matrix(1 0 0 1 240.2324 234.1973)" fill="#FFFFFF" font-family="'MyriadPro-Regular'" font-size="12">9.9%</text>
</svg>
