<?xml version="1.0" encoding="utf-8"?>
<!-- Generator: Adobe Illustrator 16.0.0, SVG Export Plug-In . SVG Version: 6.00 Build 0)  -->
<!DOCTYPE svg PUBLIC "-//W3C//DTD SVG 1.1//EN" "http://www.w3.org/Graphics/SVG/1.1/DTD/svg11.dtd">
<svg version="1.1" id="Layer_1" xmlns="http://www.w3.org/2000/svg" xmlns:xlink="http://www.w3.org/1999/xlink" x="0px" y="0px"
	 width="432px" height="288px" viewBox="0 0 432 288" enable-background="new 0 0 432 288" xml:space="preserve">
<g id="figure_1">
	<g id="axes_1">
		<g id="patch_3">
			<g>
				<g>
					<defs>
						<rect id="SVGID_1_" x="54" y="34.56" width="334.8" height="217.44"/>
					</defs>
					<clipPath id="SVGID_2_">
						<use xlink:href="#SVGID_1_"  overflow="visible"/>
					</clipPath>
					<path clip-path="url(#SVGID_2_)" fill="#8B0000" d="M54,238.41h209.43v-27.18H54V238.41z"/>
				</g>
			</g>
		</g>
		<g id="patch_4">
			<g>
				<g>
					<defs>
						<rect id="SVGID_3_" x="54" y="34.56" width="334.8" height="217.44"/>
					</defs>
					<clipPath id="SVGID_4_">
						<use xlink:href="#SVGID_3_"  overflow="visible"/>
					</clipPath>
					<path clip-path="url(#SVGID_4_)" fill="#8B0000" d="M54,184.05h253.445v-27.18H54V184.05z"/>
				</g>
			</g>
		</g>
		<g id="patch_5">
			<g>
				<g>
					<path fill="#8B0000" d="M54,129.69h283.719v-27.18H54V129.69z"/>
				</g>
			</g>
		</g>
		<g id="patch_6">
			<g>
				<g>
					<path fill="#8B0000" d="M54,75.33h318.857V48.15H54V75.33z"/>
				</g>
			</g>
		</g>
		<g id="matplotlib.axis_1">
			<g id="xtick_1">
				<g id="line2d_1">
					<g>
						<g>
							<path id="m227ed6a22d" stroke="#000000" stroke-width="0.8" stroke-linejoin="round" d="M54,252v3.5"/>
						</g>
					</g>
				</g>
				<g id="text_1">
					<g transform="translate(50.81875 266.598437)scale(0.1 -0.1)">
						<g>
							<path id="DejaVuSans-30" d="M31.783,66.404c-5.073,0-8.892-2.5-11.455-7.5c-2.554-4.99-3.828-12.5-3.828-22.529
								c0-9.99,1.274-17.48,3.828-22.48c2.563-5,6.382-7.5,11.455-7.5c5.112,0,8.945,2.5,11.499,7.5
								c2.563,5,3.843,12.49,3.843,22.48c0,10.029-1.279,17.539-3.843,22.529C40.729,63.904,36.896,66.404,31.783,66.404z
								 M31.783,74.217c8.174,0,14.419-3.232,18.73-9.697c4.316-6.465,6.47-15.84,6.47-28.145c0-12.266-2.153-21.641-6.47-28.105
								c-4.312-6.465-10.557-9.688-18.73-9.688c-8.169,0-14.409,3.223-18.721,9.688s-6.47,15.84-6.47,28.105
								c0,12.305,2.158,21.68,6.47,28.145S23.614,74.217,31.783,74.217z"/>
						</g>
					</g>
				</g>
			</g>
			<g id="xtick_2">
				<g id="line2d_2">
					<g>
						<g>
							<path id="m227ed6a22d_1_" stroke="#000000" stroke-width="0.8" stroke-linejoin="round" d="M159.46,252v3.5"/>
						</g>
					</g>
				</g>
				<g id="text_2">
					<g transform="translate(156.279178 266.598437)scale(0.1 -0.1)">
						<g>
							<path id="DejaVuSans-35" d="M10.797,72.908h38.721v-8.311H19.83V46.736c1.426,0.488,2.852,0.85,4.277,1.094
								c1.44,0.244,2.876,0.361,4.316,0.361c8.135,0,14.575-2.227,19.326-6.689c4.761-4.463,7.139-10.498,7.139-18.115
								c0-7.842-2.441-13.945-7.324-18.291C42.677,0.75,35.792-1.418,26.906-1.418c-3.062,0-6.182,0.254-9.36,0.781
								c-3.164,0.518-6.44,1.299-9.824,2.344v9.922c2.925-1.602,5.952-2.783,9.077-3.564s6.426-1.172,9.907-1.172
								c5.635,0,10.093,1.475,13.374,4.434c3.291,2.959,4.937,6.982,4.937,12.061s-1.646,9.092-4.937,12.051
								c-3.281,2.969-7.739,4.453-13.374,4.453c-2.637,0-5.269-0.293-7.891-0.879c-2.617-0.586-5.288-1.484-8.018-2.734V72.908z"/>
						</g>
					</g>
				</g>
			</g>
			<g id="xtick_3">
				<g id="line2d_3">
					<g>
						<g>
							<path id="m227ed6a22d_2_" stroke="#000000" stroke-width="0.8" stroke-linejoin="round" d="M264.921,252v3.5"/>
						</g>
					</g>
				</g>
				<g id="text_3">
					<g transform="translate(258.558355 266.598437)scale(0.1 -0.1)">
						<g>
							<path id="DejaVuSans-31" d="M12.405,8.299h16.113v55.625l-17.539-3.516v8.984l17.441,3.516h9.863V8.299h16.113v-8.301H12.405
								V8.299z"/>
						</g>
						<g>
							<path id="DejaVuSans-30_1_" d="M95.403,66.404c-5.068,0-8.887-2.5-11.455-7.5c-2.549-4.99-3.828-12.5-3.828-22.529
								c0-9.99,1.279-17.48,3.828-22.48c2.568-5,6.387-7.5,11.455-7.5c5.117,0,8.955,2.5,11.504,7.5
								c2.559,5,3.838,12.49,3.838,22.48c0,10.029-1.279,17.539-3.838,22.529C104.358,63.904,100.52,66.404,95.403,66.404z
								 M95.403,74.217c8.174,0,14.424-3.232,18.74-9.697c4.307-6.465,6.465-15.84,6.465-28.145c0-12.266-2.158-21.641-6.465-28.105
								c-4.316-6.465-10.566-9.688-18.74-9.688c-8.164,0-14.404,3.223-18.721,9.688c-4.307,6.465-6.465,15.84-6.465,28.105
								c0,12.305,2.158,21.68,6.465,28.145C80.999,70.984,87.239,74.217,95.403,74.217z"/>
						</g>
					</g>
				</g>
			</g>
			<g id="xtick_4">
				<g id="line2d_4">
					<g>
						<g>
							<path id="m227ed6a22d_3_" stroke="#000000" stroke-width="0.8" stroke-linejoin="round" d="M370.381,252v3.5"/>
						</g>
					</g>
				</g>
				<g id="text_4">
					<g transform="translate(364.018783 266.598437)scale(0.1 -0.1)">
						<g>
							<path id="DejaVuSans-31_1_" d="M12.41,8.299h16.104v55.625l-17.529-3.516v8.984l17.441,3.516h9.854V8.299h16.113v-8.301
								H12.41V8.299z"/>
						</g>
						<g>
							<path id="DejaVuSans-35_1_" d="M74.422,72.908h38.721v-8.311H83.455V46.736c1.426,0.488,2.852,0.85,4.277,1.094
								c1.436,0.244,2.871,0.361,4.316,0.361c8.135,0,14.57-2.227,19.326-6.689s7.139-10.498,7.139-18.115
								c0-7.842-2.441-13.945-7.324-18.291c-4.893-4.346-11.777-6.514-20.664-6.514c-3.057,0-6.182,0.254-9.355,0.781
								c-3.164,0.518-6.445,1.299-9.824,2.344v9.922c2.92-1.602,5.947-2.783,9.072-3.564s6.426-1.172,9.912-1.172
								c5.635,0,10.088,1.475,13.369,4.434c3.291,2.959,4.941,6.982,4.941,12.061s-1.65,9.092-4.941,12.051
								c-3.281,2.969-7.734,4.453-13.369,4.453c-2.637,0-5.273-0.293-7.891-0.879s-5.293-1.484-8.018-2.734V72.908L74.422,72.908z"
								/>
						</g>
					</g>
				</g>
			</g>
			<g id="text_5">
				<g transform="translate(157.04375 280.276563)scale(0.1 -0.1)">
					<g>
						<path id="DejaVuSans-4c" d="M9.812,72.902h9.858V8.293h35.503V0.002H9.812V72.902z"/>
					</g>
					<g>
						<path id="DejaVuSans-6f" d="M86.306,48.39c-4.81,0-8.618-1.875-11.421-5.645c-2.803-3.75-4.204-8.906-4.204-15.449
							s1.392-11.699,4.175-15.449c2.788-3.77,6.606-5.645,11.45-5.645c4.795,0,8.584,1.885,11.377,5.654
							c2.803,3.779,4.204,8.936,4.204,15.439c0,6.484-1.401,11.621-4.204,15.41C94.89,46.496,91.101,48.39,86.306,48.39z
							 M86.306,55.998c7.812,0,13.95-2.539,18.408-7.627c4.468-5.068,6.704-12.09,6.704-21.074c0-8.945-2.236-15.977-6.704-21.074
							c-4.458-5.098-10.596-7.646-18.408-7.646c-7.842,0-13.989,2.549-18.438,7.646c-4.438,5.098-6.655,12.129-6.655,21.074
							c0,8.984,2.217,16.006,6.655,21.074C72.317,53.459,78.464,55.998,86.306,55.998z"/>
					</g>
					<g>
						<path id="DejaVuSans-61" d="M151.159,27.482c-7.261,0-12.29-0.83-15.093-2.48c-2.803-1.66-4.204-4.492-4.204-8.506
							c0-3.184,1.055-5.713,3.159-7.588c2.104-1.865,4.956-2.803,8.56-2.803c4.99,0,8.989,1.768,12.002,5.303
							c3.008,3.525,4.517,8.223,4.517,14.072v2.002H151.159z M169.084,31.203V0.002H160.1v8.291
							c-2.056-3.311-4.609-5.762-7.676-7.344c-3.062-1.582-6.807-2.373-11.23-2.373c-5.596,0-10.049,1.572-13.359,4.717
							c-3.306,3.145-4.956,7.363-4.956,12.627c0,6.143,2.061,10.781,6.172,13.906c4.126,3.125,10.273,4.688,18.438,4.688H160.1
							v0.889c0,4.141-1.362,7.344-4.082,9.6c-2.715,2.256-6.533,3.389-11.45,3.389c-3.125,0-6.172-0.371-9.141-1.123
							c-2.959-0.752-5.801-1.875-8.53-3.379v8.311c3.281,1.27,6.465,2.227,9.561,2.852s6.104,0.947,9.033,0.947
							c7.915,0,13.828-2.051,17.734-6.152C167.131,45.754,169.084,39.543,169.084,31.203z"/>
					</g>
					<g>
						<path id="DejaVuSans-6e" d="M233.049,33.019V0.002h-8.984v32.715c0,5.186-1.011,9.053-3.032,11.611
							c-2.021,2.578-5.044,3.857-9.077,3.857c-4.854,0-8.682-1.543-11.484-4.639c-2.803-3.086-4.204-7.295-4.204-12.637V0.002
							h-9.028v54.688h9.028v-8.506c2.158,3.301,4.688,5.752,7.593,7.383c2.92,1.621,6.284,2.432,10.098,2.432
							c6.279,0,11.03-1.943,14.248-5.83C231.433,46.281,233.049,40.568,233.049,33.019z"/>
					</g>
					<g>
						<path id="DejaVuSans-73" d="M285.818,53.078v-8.496c-2.529,1.299-5.166,2.266-7.905,2.92
							c-2.729,0.654-5.562,0.986-8.501,0.986c-4.458,0-7.803-0.684-10.029-2.051c-2.231-1.367-3.345-3.418-3.345-6.152
							c0-2.09,0.796-3.721,2.393-4.912c1.592-1.182,4.8-2.314,9.624-3.389l3.076-0.684c6.377-1.367,10.908-3.301,13.594-5.781
							c2.69-2.5,4.033-5.967,4.033-10.43c0-5.078-2.012-9.102-6.03-12.07c-4.023-2.969-9.551-4.443-16.582-4.443
							c-2.925,0-5.977,0.283-9.155,0.859c-3.174,0.576-6.519,1.436-10.029,2.568v9.277c3.32-1.729,6.592-3.027,9.81-3.887
							c3.228-0.859,6.411-1.289,9.58-1.289c4.233,0,7.48,0.723,9.751,2.178c2.28,1.445,3.428,3.486,3.428,6.123
							c0,2.441-0.825,4.307-2.476,5.605c-1.636,1.309-5.234,2.559-10.811,3.77l-3.125,0.732c-5.566,1.162-9.585,2.959-12.065,5.391
							c-2.466,2.432-3.701,5.752-3.701,9.99c0,5.137,1.821,9.111,5.474,11.904c3.643,2.803,8.818,4.199,15.527,4.199
							c3.315,0,6.436-0.244,9.355-0.732C280.647,54.787,283.352,54.054,285.818,53.078z"/>
					</g>
					<g>
						<path id="DejaVuSans-20" d="M293.635,0.002"/>
					</g>
					<g>
						<path id="DejaVuSans-77" d="M329.626,54.689h8.984l11.235-42.676l11.172,42.676h10.596l11.23-42.676l11.191,42.676h8.984
							L388.703,0.002h-10.591l-11.768,44.824L354.533,0.002h-10.61L329.626,54.689z"/>
					</g>
					<g>
						<path id="DejaVuSans-69" d="M416.633,54.689h8.984V0.002h-8.984V54.689z M416.633,75.988h8.984V64.592h-8.984V75.988z"/>
					</g>
					<g>
						<path id="DejaVuSans-74" d="M453.308,70.217V54.689h18.501v-6.982h-18.501V18.019c0-4.463,0.61-7.324,1.826-8.594
							c1.221-1.27,3.706-1.914,7.456-1.914h9.219v-7.51h-9.219c-6.938,0-11.724,1.289-14.36,3.877s-3.955,7.305-3.955,14.141v29.688
							h-6.592v6.982h6.592v15.527H453.308L453.308,70.217z"/>
					</g>
					<g>
						<path id="DejaVuSans-68" d="M529.094,33.019V0.002h-8.984v32.715c0,5.186-1.011,9.053-3.032,11.611
							c-2.021,2.578-5.044,3.857-9.077,3.857c-4.854,0-8.682-1.543-11.484-4.639c-2.803-3.086-4.204-7.295-4.204-12.637V0.002
							h-9.028v75.986h9.028V46.183c2.158,3.301,4.688,5.752,7.593,7.383c2.92,1.621,6.284,2.432,10.098,2.432
							c6.279,0,11.03-1.943,14.248-5.83C527.478,46.281,529.094,40.568,529.094,33.019z"/>
					</g>
					<g>
						<path id="DejaVuSans-20_1_" d="M537.58,0.002"/>
					</g>
					<g>
						<path id="DejaVuSans-70" d="M587.478,8.205v-29.004h-9.028v75.488h9.028v-8.301c1.895,3.252,4.282,5.664,7.163,7.236
							c2.881,1.582,6.328,2.373,10.322,2.373c6.65,0,12.041-2.627,16.182-7.9c4.16-5.273,6.24-12.207,6.24-20.801
							s-2.08-15.527-6.24-20.811c-4.141-5.273-9.531-7.91-16.182-7.91c-3.994,0-7.441,0.791-10.322,2.373
							S589.372,4.953,587.478,8.205z M618.059,27.297c0,6.602-1.367,11.787-4.082,15.547s-6.445,5.645-11.201,5.645
							s-8.501-1.885-11.221-5.645c-2.715-3.76-4.077-8.945-4.077-15.547s1.362-11.787,4.077-15.547
							c2.72-3.76,6.465-5.645,11.221-5.645s8.486,1.885,11.201,5.645S618.059,20.695,618.059,27.297z"/>
					</g>
					<g>
						<path id="DejaVuSans-72" d="M673.957,46.301c-1.016,0.586-2.109,1.006-3.301,1.279c-1.191,0.283-2.5,0.42-3.926,0.42
							c-5.078,0-8.984-1.65-11.699-4.951c-2.715-3.311-4.082-8.047-4.082-14.238V0.002h-9.023v54.688h9.023v-8.506
							c1.895,3.32,4.355,5.791,7.383,7.393c3.027,1.611,6.719,2.422,11.045,2.422c0.615,0,1.299-0.039,2.041-0.127
							c0.762-0.068,1.582-0.195,2.49-0.352L673.957,46.301z"/>
					</g>
					<g>
						<path id="DejaVuSans-6f_1_" d="M704.543,48.39c-4.824,0-8.633-1.875-11.426-5.645c-2.803-3.75-4.199-8.906-4.199-15.449
							s1.387-11.699,4.16-15.449c2.793-3.77,6.621-5.645,11.465-5.645c4.785,0,8.574,1.885,11.367,5.654
							c2.803,3.779,4.199,8.936,4.199,15.439c0,6.484-1.396,11.621-4.199,15.41C713.117,46.496,709.328,48.39,704.543,48.39z
							 M704.543,55.998c7.812,0,13.945-2.539,18.398-7.627c4.473-5.068,6.699-12.09,6.699-21.074c0-8.945-2.227-15.977-6.699-21.074
							c-4.453-5.098-10.586-7.646-18.398-7.646c-7.852,0-13.994,2.549-18.438,7.646s-6.66,12.129-6.66,21.074
							c0,8.984,2.217,16.006,6.66,21.074C690.549,53.459,696.692,55.998,704.543,55.998z"/>
					</g>
					<g>
						<path id="DejaVuSans-62" d="M783.801,27.297c0,6.602-1.367,11.787-4.082,15.547s-6.455,5.645-11.201,5.645
							c-4.756,0-8.506-1.885-11.221-5.645s-4.082-8.945-4.082-15.547s1.367-11.787,4.082-15.547s6.465-5.645,11.221-5.645
							c4.746,0,8.486,1.885,11.201,5.645S783.801,20.695,783.801,27.297z M753.215,46.388c1.895,3.252,4.287,5.664,7.158,7.236
							c2.881,1.582,6.328,2.373,10.332,2.373c6.65,0,12.041-2.627,16.182-7.9c4.16-5.273,6.24-12.207,6.24-20.801
							s-2.08-15.527-6.24-20.811c-4.141-5.273-9.531-7.91-16.182-7.91c-4.004,0-7.451,0.791-10.332,2.373
							c-2.871,1.582-5.264,4.004-7.158,7.256V0.002h-9.023v75.986h9.023V46.388z"/>
					</g>
					<g>
						<path id="DejaVuSans-6c" d="M808.01,75.988h8.984V0.002h-8.984V75.988z"/>
					</g>
					<g>
						<path id="DejaVuSans-65" d="M882.571,29.592v-4.385h-41.309c0.391-6.191,2.266-10.898,5.586-14.141
							c3.34-3.242,7.988-4.863,13.945-4.863c3.447,0,6.797,0.42,10.029,1.27c3.232,0.84,6.455,2.109,9.658,3.809V2.785
							c-3.232-1.367-6.543-2.412-9.922-3.125c-3.389-0.723-6.816-1.084-10.293-1.084c-8.73,0-15.645,2.539-20.742,7.607
							c-5.098,5.088-7.637,11.963-7.637,20.625c0,8.945,2.422,16.055,7.246,21.299c4.834,5.264,11.357,7.891,19.57,7.891
							c7.344,0,13.164-2.373,17.441-7.109C880.432,44.162,882.571,37.726,882.571,29.592z M873.586,32.238
							c-0.059,4.902-1.436,8.818-4.121,11.748c-2.695,2.939-6.25,4.404-10.674,4.404c-5.01,0-9.014-1.416-12.031-4.248
							c-3.018-2.842-4.746-6.826-5.205-11.973L873.586,32.238z"/>
					</g>
					<g>
						<path id="DejaVuSans-6d" d="M939.895,44.191c2.246,4.043,4.941,7.012,8.066,8.936c3.125,1.914,6.797,2.871,11.025,2.871
							c5.693,0,10.088-1.992,13.193-5.986c3.086-3.975,4.629-9.648,4.629-16.992V0.002h-9.023v32.715
							c0,5.244-0.938,9.131-2.793,11.66c-1.855,2.539-4.688,3.809-8.496,3.809c-4.648,0-8.34-1.543-11.035-4.639
							c-2.705-3.086-4.053-7.295-4.053-12.637V0.002h-9.033v32.715c0,5.273-0.918,9.17-2.773,11.689s-4.727,3.779-8.594,3.779
							c-4.6,0-8.252-1.553-10.957-4.658c-2.695-3.105-4.043-7.305-4.043-12.617V0.002h-9.043v54.688h9.043v-8.506
							c2.051,3.359,4.512,5.83,7.363,7.422c2.871,1.602,6.27,2.393,10.215,2.393c3.975,0,7.354-1.006,10.137-3.027
							C936.496,50.959,938.567,48.029,939.895,44.191z"/>
					</g>
					<g>
						<path id="DejaVuSans-73_1_" d="M1029.582,53.078v-8.496c-2.529,1.299-5.156,2.266-7.9,2.92
							c-2.725,0.654-5.566,0.986-8.506,0.986c-4.453,0-7.793-0.684-10.029-2.051c-2.227-1.367-3.34-3.418-3.34-6.152
							c0-2.09,0.791-3.721,2.393-4.912c1.592-1.182,4.805-2.314,9.619-3.389l3.076-0.684c6.377-1.367,10.908-3.301,13.594-5.781
							c2.695-2.5,4.033-5.967,4.033-10.43c0-5.078-2.002-9.102-6.025-12.07s-9.551-4.443-16.582-4.443
							c-2.93,0-5.977,0.283-9.16,0.859c-3.174,0.576-6.523,1.436-10.029,2.568v9.277c3.33-1.729,6.592-3.027,9.814-3.887
							s6.406-1.289,9.58-1.289c4.229,0,7.471,0.723,9.746,2.178c2.285,1.445,3.428,3.486,3.428,6.123
							c0,2.441-0.82,4.307-2.471,5.605c-1.631,1.309-5.244,2.559-10.81,3.77l-3.125,0.732c-5.566,1.162-9.59,2.959-12.07,5.391
							c-2.461,2.432-3.701,5.752-3.701,9.99c0,5.137,1.826,9.111,5.469,11.904c3.643,2.803,8.818,4.199,15.537,4.199
							c3.31,0,6.426-0.244,9.355-0.732C1024.416,54.787,1027.121,54.054,1029.582,53.078z"/>
					</g>
					<g>
						<path id="DejaVuSans-20_2_" d="M1037.404,0.002"/>
					</g>
					<g>
						<path id="DejaVuSans-69_1_" d="M1078.615,54.689h8.984V0.002h-8.984V54.689z M1078.615,75.988h8.984V64.592h-8.984V75.988z"/>
					</g>
					<g>
						<path id="DejaVuSans-6e_1_" d="M1151.867,33.019V0.002h-8.984v32.715c0,5.186-1.016,9.053-3.027,11.611
							c-2.031,2.578-5.059,3.857-9.082,3.857c-4.863,0-8.691-1.543-11.484-4.639c-2.803-3.086-4.199-7.295-4.199-12.637V0.002
							h-9.043v54.688h9.043v-8.506c2.148,3.301,4.688,5.752,7.588,7.383c2.92,1.621,6.279,2.432,10.088,2.432
							c6.289,0,11.035-1.943,14.258-5.83S1151.867,40.568,1151.867,33.019z"/>
					</g>
					<g>
						<path id="DejaVuSans-20_3_" d="M1160.354,0.002"/>
					</g>
					<g>
						<path id="DejaVuSans-25" d="M1264.846,32.082c-2.842,0-5.059-1.211-6.67-3.613c-1.602-2.402-2.412-5.762-2.412-10.059
							c0-4.238,0.811-7.559,2.412-9.99c1.611-2.432,3.828-3.643,6.67-3.643c2.764,0,4.951,1.211,6.562,3.643s2.422,5.752,2.422,9.99
							c0,4.268-0.811,7.617-2.422,10.029C1269.797,30.871,1267.609,32.082,1264.846,32.082z M1264.846,38.283
							c5.146,0,9.229-1.787,12.246-5.381c3.037-3.574,4.551-8.398,4.551-14.492s-1.523-10.918-4.561-14.492
							c-3.047-3.555-7.129-5.342-12.236-5.342c-5.205,0-9.326,1.787-12.363,5.342c-3.018,3.574-4.531,8.398-4.531,14.492
							c0,6.123,1.523,10.967,4.561,14.531C1255.559,36.496,1259.66,38.283,1264.846,38.283z M1214.455,68.019
							c-2.803,0-5.01-1.211-6.631-3.643c-1.602-2.412-2.402-5.752-2.402-9.99c0-4.287,0.801-7.637,2.393-10.059
							c1.592-2.402,3.799-3.613,6.641-3.613c2.832,0,5.049,1.211,6.65,3.613c1.621,2.422,2.422,5.771,2.422,10.059
							c0,4.199-0.811,7.52-2.432,9.961C1219.465,66.789,1217.258,68.019,1214.455,68.019z M1258.547,74.22h7.812l-45.605-75.645
							h-7.812L1258.547,74.22z M1214.455,74.22c5.146,0,9.248-1.787,12.295-5.342c3.066-3.564,4.59-8.398,4.59-14.492
							c0-6.143-1.523-10.996-4.561-14.541c-3.037-3.555-7.148-5.332-12.324-5.332c-5.186,0-9.268,1.787-12.285,5.342
							c-3.008,3.574-4.512,8.418-4.512,14.531c0,6.064,1.514,10.879,4.531,14.453C1205.217,72.433,1209.309,74.22,1214.455,74.22z"
							/>
					</g>
				</g>
			</g>
		</g>
		<g id="matplotlib.axis_2">
			<g id="ytick_1">
				<g id="text_6">
					<g transform="translate(-28.910938 228.619219)scale(0.1 -0.1)">
						<g>
							<path id="DejaVuSans-41" d="M34.188,63.184L20.799,26.905h26.812L34.188,63.184z M28.612,72.911h11.187l27.778-72.91H57.327
								l-6.641,18.701H17.83L11.19,0.001H0.78L28.612,72.911z"/>
						</g>
						<g>
							<path id="DejaVuSans-62_1_" d="M117.098,27.296c0,6.611-1.362,11.787-4.082,15.547c-2.715,3.76-6.45,5.645-11.201,5.645
								c-4.761,0-8.501-1.885-11.221-5.645c-2.715-3.76-4.077-8.936-4.077-15.547c0-6.602,1.362-11.787,4.077-15.547
								c2.72-3.76,6.46-5.635,11.221-5.635c4.751,0,8.486,1.875,11.201,5.635C115.736,15.508,117.098,20.694,117.098,27.296z
								 M86.517,46.387c1.895,3.252,4.282,5.664,7.158,7.236c2.886,1.592,6.328,2.373,10.327,2.373c6.646,0,12.041-2.637,16.187-7.9
								c4.155-5.273,6.235-12.207,6.235-20.801s-2.08-15.527-6.235-20.811c-4.146-5.273-9.541-7.91-16.187-7.91
								c-3.999,0-7.441,0.801-10.327,2.383c-2.876,1.582-5.264,3.994-7.158,7.246V0.001h-9.028v75.986h9.028V46.387z"/>
						</g>
						<g>
							<path id="DejaVuSans-6f_2_" d="M162.493,48.389c-4.81,0-8.618-1.885-11.421-5.635c-2.803-3.77-4.204-8.916-4.204-15.459
								c0-6.533,1.392-11.689,4.175-15.449c2.788-3.76,6.606-5.645,11.45-5.645c4.795,0,8.584,1.885,11.377,5.654
								c2.803,3.789,4.204,8.926,4.204,15.439c0,6.475-1.401,11.611-4.204,15.41C171.077,46.495,167.288,48.389,162.493,48.389z
								 M162.493,55.997c7.812,0,13.95-2.539,18.408-7.617c4.468-5.078,6.704-12.109,6.704-21.084
								c0-8.945-2.236-15.967-6.704-21.074c-4.458-5.098-10.596-7.646-18.408-7.646c-7.842,0-13.989,2.549-18.438,7.646
								c-4.438,5.107-6.655,12.129-6.655,21.074c0,8.975,2.217,16.006,6.655,21.084C148.504,53.458,154.652,55.997,162.493,55.997z"
								/>
						</g>
						<g>
							<path id="DejaVuSans-76" d="M196.053,54.688h9.512l17.095-45.889l17.095,45.889h9.517L228.753,0.001h-12.202L196.053,54.688z
								"/>
						</g>
						<g>
							<path id="DejaVuSans-65_1_" d="M308.451,29.591v-4.385h-41.313c0.396-6.191,2.261-10.908,5.596-14.141
								c3.33-3.242,7.979-4.863,13.936-4.863c3.447,0,6.792,0.42,10.029,1.27c3.242,0.84,6.46,2.119,9.658,3.809V2.784
								c-3.228-1.367-6.538-2.412-9.922-3.125c-3.384-0.723-6.816-1.084-10.298-1.084c-8.73,0-15.64,2.539-20.732,7.617
								s-7.642,11.953-7.642,20.625c0,8.945,2.417,16.045,7.251,21.289c4.834,5.264,11.353,7.891,19.561,7.891
								c7.354,0,13.174-2.363,17.456-7.109C306.307,44.161,308.451,37.735,308.451,29.591z M299.466,32.237
								c-0.063,4.902-1.44,8.818-4.126,11.748c-2.686,2.939-6.245,4.404-10.674,4.404c-5.01,0-9.019-1.416-12.031-4.248
								c-3.008-2.832-4.741-6.816-5.2-11.973L299.466,32.237z"/>
						</g>
						<g>
							<path id="DejaVuSans-20_4_" d="M313.768,0.001"/>
						</g>
						<g>
							<path id="DejaVuSans-24" d="M379.354-14.706h-4.893l-0.044,14.707c-3.418,0.059-6.836,0.459-10.249,1.191
								c-3.418,0.742-6.855,1.836-10.312,3.311v8.779c3.32-2.09,6.68-3.652,10.078-4.717c3.403-1.055,6.914-1.592,10.527-1.631V29.2
								c-7.197,1.172-12.432,3.154-15.703,5.957c-3.267,2.803-4.902,6.641-4.902,11.533c0,5.303,1.772,9.482,5.327,12.529
								c3.55,3.066,8.643,4.824,15.278,5.283v11.484h4.893V64.659c3.022-0.137,5.947-0.459,8.779-0.967
								c2.837-0.508,5.601-1.191,8.301-2.07v-8.545c-2.7,1.367-5.474,2.422-8.33,3.174c-2.842,0.752-5.762,1.191-8.75,1.309v-20.84
								c7.388-1.133,12.817-3.174,16.299-6.113c3.486-2.93,5.234-6.924,5.234-11.992c0-5.508-1.851-9.844-5.547-13.018
								c-3.701-3.174-9.028-5.01-15.986-5.498V-14.706z M374.461,37.598v20.029c-3.77-0.43-6.65-1.514-8.638-3.232
								c-1.992-1.719-2.983-4.014-2.983-6.875c0-2.812,0.913-4.99,2.749-6.553C367.43,39.405,370.389,38.282,374.461,37.598z
								 M379.354,28.223V7.081c4.126,0.557,7.241,1.729,9.346,3.516s3.154,4.15,3.154,7.08c0,2.861-1.006,5.137-3.018,6.826
								C386.839,26.192,383.675,27.442,379.354,28.223z"/>
						</g>
						<g>
							<path id="DejaVuSans-39" d="M420.164,1.514v8.984c2.48-1.182,4.985-2.07,7.515-2.686c2.544-0.615,5.039-0.918,7.485-0.918
								c6.509,0,11.479,2.188,14.907,6.562c3.438,4.375,5.4,11.016,5.889,19.951c-1.885-2.803-4.282-4.951-7.188-6.455
								c-2.896-1.504-6.099-2.246-9.609-2.246c-7.29,0-13.062,2.197-17.31,6.602c-4.253,4.414-6.377,10.459-6.377,18.115
								c0,7.471,2.212,13.477,6.641,17.998c4.429,4.531,10.317,6.797,17.671,6.797c8.438,0,14.878-3.232,19.312-9.707
								c4.448-6.455,6.675-15.84,6.675-28.135c0-11.494-2.729-20.664-8.188-27.52c-5.449-6.846-12.778-10.283-21.982-10.283
								c-2.48,0-4.99,0.254-7.534,0.742C425.54-0.195,422.904,0.538,420.164,1.514z M439.788,32.423
								c4.429,0,7.935,1.504,10.518,4.531c2.593,3.027,3.892,7.188,3.892,12.471c0,5.244-1.299,9.385-3.892,12.422
								c-2.583,3.037-6.089,4.561-10.518,4.561c-4.424,0-7.93-1.523-10.513-4.561s-3.877-7.178-3.877-12.422
								c0-5.283,1.294-9.443,3.877-12.471S435.365,32.423,439.788,32.423z"/>
						</g>
						<g>
							<path id="DejaVuSans-31_2_" d="M485.208,8.301h16.108v55.625l-17.529-3.516v8.984l17.437,3.516h9.858V8.301h16.113V0.001
								h-41.987V8.301z"/>
						</g>
						<g>
							<path id="DejaVuSans-2c" d="M548.143,12.403h10.298V4.005l-7.998-15.625h-6.299l3.999,15.625V12.403z"/>
						</g>
						<g>
							<path id="DejaVuSans-36" d="M601.229,40.372c-4.429,0-7.939-1.514-10.532-4.541c-2.583-3.018-3.872-7.168-3.872-12.441
								c0-5.244,1.289-9.385,3.872-12.432c2.593-3.047,6.104-4.57,10.532-4.57s7.935,1.523,10.518,4.57s3.872,7.188,3.872,12.432
								c0,5.273-1.289,9.424-3.872,12.441C609.163,38.858,605.657,40.372,601.229,40.372z M620.809,71.299v-8.984
								c-2.48,1.162-4.98,2.061-7.5,2.666c-2.524,0.625-5.024,0.938-7.5,0.938c-6.514,0-11.484-2.188-14.922-6.592
								c-3.428-4.395-5.386-11.035-5.879-19.922c1.919,2.842,4.326,5.01,7.222,6.514c2.905,1.514,6.099,2.266,9.575,2.266
								c7.324,0,13.11-2.227,17.363-6.67c4.248-4.434,6.372-10.479,6.372-18.125c0-7.49-2.212-13.496-6.641-18.027
								c-4.424-4.521-10.317-6.787-17.671-6.787c-8.438,0-14.888,3.232-19.346,9.688c-4.458,6.475-6.685,15.84-6.685,28.115
								c0,11.514,2.734,20.713,8.203,27.559c5.469,6.855,12.808,10.283,22.017,10.283c2.476,0,4.976-0.244,7.5-0.732
								C615.438,72.989,618.07,72.266,620.809,71.299z"/>
						</g>
						<g>
							<path id="DejaVuSans-39_1_" d="M642.821,1.514v8.984c2.48-1.182,4.985-2.07,7.515-2.686c2.544-0.615,5.039-0.918,7.485-0.918
								c6.509,0,11.479,2.188,14.907,6.562c3.438,4.375,5.4,11.016,5.889,19.951c-1.885-2.803-4.282-4.951-7.188-6.455
								c-2.896-1.504-6.099-2.246-9.609-2.246c-7.29,0-13.062,2.197-17.31,6.602c-4.253,4.414-6.377,10.459-6.377,18.115
								c0,7.471,2.212,13.477,6.641,17.998c4.429,4.531,10.317,6.797,17.671,6.797c8.438,0,14.878-3.232,19.312-9.707
								c4.448-6.455,6.675-15.84,6.675-28.135c0-11.494-2.729-20.664-8.188-27.52c-5.449-6.846-12.778-10.283-21.982-10.283
								c-2.476,0-4.985,0.254-7.529,0.742C648.197-0.195,645.56,0.538,642.821,1.514z M662.445,32.423
								c4.429,0,7.935,1.504,10.518,4.531c2.593,3.027,3.892,7.188,3.892,12.471c0,5.244-1.299,9.385-3.892,12.422
								c-2.583,3.037-6.089,4.561-10.518,4.561c-4.424,0-7.93-1.523-10.513-4.561s-3.877-7.178-3.877-12.422
								c0-5.283,1.294-9.443,3.877-12.471S658.021,32.423,662.445,32.423z"/>
						</g>
						<g>
							<path id="DejaVuSans-30_2_" d="M727.24,66.407c-5.073,0-8.892-2.5-11.45-7.5c-2.554-4.99-3.828-12.5-3.828-22.529
								c0-9.99,1.274-17.49,3.828-22.49c2.559-5,6.377-7.5,11.45-7.5c5.117,0,8.95,2.5,11.499,7.5c2.563,5,3.848,12.5,3.848,22.49
								c0,10.029-1.284,17.539-3.848,22.529C736.19,63.907,732.357,66.407,727.24,66.407z M727.24,74.219
								c8.179,0,14.424-3.232,18.735-9.707c4.312-6.455,6.47-15.84,6.47-28.135c0-12.275-2.158-21.641-6.47-28.115
								c-4.312-6.455-10.557-9.688-18.735-9.688c-8.164,0-14.404,3.232-18.716,9.688c-4.316,6.475-6.47,15.84-6.47,28.115
								c0,12.295,2.153,21.68,6.47,28.135C712.835,70.987,719.075,74.219,727.24,74.219z"/>
						</g>
					</g>
				</g>
			</g>
			<g id="ytick_2">
				<g id="text_7">
					<g transform="translate(5.646875 168.660313)scale(0.1 -0.1)">
						<g>
							<path id="DejaVuSans-24_1_" d="M33.795-14.706h-4.888L28.859,0.001C25.441,0.06,22.028,0.46,18.61,1.193
								S11.754,3.029,8.297,4.494v8.789c3.325-2.09,6.685-3.652,10.078-4.727c3.408-1.045,6.919-1.582,10.532-1.621v22.266
								c-7.197,1.172-12.432,3.154-15.703,5.957s-4.907,6.641-4.907,11.523c0,5.312,1.777,9.492,5.327,12.539
								c3.555,3.066,8.647,4.824,15.283,5.273v11.484h4.888V64.65c3.022-0.127,5.952-0.449,8.784-0.957s5.596-1.191,8.296-2.07
								v-8.545c-2.7,1.367-5.474,2.422-8.33,3.174c-2.842,0.742-5.757,1.191-8.75,1.309V36.72
								c7.388-1.133,12.817-3.174,16.299-6.113c3.491-2.93,5.234-6.924,5.234-11.992c0-5.508-1.851-9.844-5.547-13.027
								c-3.696-3.164-9.028-5-15.986-5.488V-14.706z M28.908,37.599v20.02c-3.77-0.42-6.65-1.504-8.643-3.223
								c-1.987-1.719-2.983-4.014-2.983-6.875c0-2.812,0.918-4.99,2.749-6.553C21.876,39.406,24.835,38.283,28.908,37.599z
								 M33.795,28.224V7.072c4.126,0.557,7.241,1.729,9.346,3.516c2.104,1.797,3.154,4.16,3.154,7.09
								c0,2.861-1.001,5.137-3.013,6.816C41.281,26.193,38.121,27.443,33.795,28.224z"/>
						</g>
						<g>
							<path id="DejaVuSans-36_1_" d="M96.637,40.373c-4.424,0-7.935-1.514-10.527-4.551c-2.583-3.008-3.877-7.158-3.877-12.432
								c0-5.244,1.294-9.385,3.877-12.432c2.593-3.047,6.104-4.57,10.527-4.57c4.429,0,7.935,1.523,10.518,4.57
								s3.877,7.188,3.877,12.432c0,5.273-1.294,9.424-3.877,12.432C104.572,38.859,101.066,40.373,96.637,40.373z M116.217,71.291
								v-8.984c-2.48,1.172-4.98,2.07-7.5,2.676c-2.52,0.625-5.02,0.938-7.5,0.938c-6.509,0-11.484-2.197-14.922-6.592
								c-3.428-4.395-5.386-11.035-5.874-19.922c1.914,2.832,4.321,5.01,7.217,6.514c2.905,1.514,6.099,2.266,9.58,2.266
								c7.324,0,13.11-2.227,17.358-6.67s6.377-10.479,6.377-18.125c0-7.49-2.217-13.506-6.641-18.037
								c-4.429-4.512-10.317-6.777-17.676-6.777c-8.438,0-14.883,3.232-19.341,9.688c-4.458,6.465-6.689,15.84-6.689,28.105
								c0,11.523,2.734,20.713,8.203,27.568S91.617,74.22,100.826,74.22c2.48,0,4.98-0.244,7.5-0.742
								C110.846,72.99,113.478,72.267,116.217,71.291z"/>
						</g>
						<g>
							<path id="DejaVuSans-35_2_" d="M138.043,72.912h38.721v-8.32h-29.688V46.74c1.426,0.488,2.852,0.85,4.277,1.094
								c1.44,0.234,2.876,0.352,4.316,0.352c8.135,0,14.575-2.227,19.326-6.68c4.761-4.463,7.139-10.498,7.139-18.115
								c0-7.842-2.441-13.936-7.324-18.291c-4.888-4.355-11.772-6.523-20.659-6.523c-3.062,0-6.182,0.264-9.36,0.781
								c-3.164,0.527-6.44,1.309-9.824,2.344v9.922c2.925-1.592,5.952-2.773,9.077-3.555s6.426-1.172,9.907-1.172
								c5.635,0,10.093,1.475,13.374,4.434c3.291,2.959,4.937,6.973,4.937,12.061c0,5.068-1.646,9.092-4.937,12.041
								c-3.281,2.969-7.739,4.453-13.374,4.453c-2.637,0-5.269-0.283-7.891-0.869c-2.617-0.576-5.288-1.494-8.018-2.734V72.912
								L138.043,72.912z"/>
						</g>
						<g>
							<path id="DejaVuSans-2c_1_" d="M202.589,12.404h10.298V4.005l-8.003-15.625h-6.294l3.999,15.625V12.404z"/>
						</g>
						<g>
							<path id="DejaVuSans-30_3_" d="M254.44,66.408c-5.073,0-8.892-2.5-11.455-7.5c-2.554-4.99-3.828-12.5-3.828-22.539
								c0-9.98,1.274-17.48,3.828-22.48c2.563-5,6.382-7.5,11.455-7.5c5.112,0,8.945,2.5,11.499,7.5c2.563,5,3.843,12.5,3.843,22.48
								c0,10.039-1.279,17.549-3.843,22.539C263.385,63.908,259.552,66.408,254.44,66.408z M254.44,74.22
								c8.174,0,14.419-3.242,18.73-9.707c4.316-6.455,6.47-15.84,6.47-28.145c0-12.266-2.153-21.641-6.47-28.105
								c-4.312-6.455-10.557-9.688-18.73-9.688c-8.169,0-14.409,3.232-18.721,9.688c-4.312,6.465-6.47,15.84-6.47,28.105
								c0,12.305,2.158,21.689,6.47,28.145C240.031,70.978,246.271,74.22,254.44,74.22z"/>
						</g>
						<g>
							<path id="DejaVuSans-30_4_" d="M318.063,66.408c-5.073,0-8.892-2.5-11.455-7.5c-2.554-4.99-3.828-12.5-3.828-22.539
								c0-9.98,1.274-17.48,3.828-22.48c2.563-5,6.382-7.5,11.455-7.5c5.112,0,8.945,2.5,11.499,7.5c2.563,5,3.843,12.5,3.843,22.48
								c0,10.039-1.279,17.549-3.843,22.539C327.008,63.908,323.175,66.408,318.063,66.408z M318.063,74.22
								c8.174,0,14.419-3.242,18.73-9.707c4.316-6.455,6.47-15.84,6.47-28.145c0-12.266-2.153-21.641-6.47-28.105
								c-4.312-6.455-10.557-9.688-18.73-9.688c-8.169,0-14.409,3.232-18.721,9.688c-4.312,6.465-6.47,15.84-6.47,28.105
								c0,12.305,2.158,21.689,6.47,28.145C303.654,70.978,309.894,74.22,318.063,74.22z"/>
						</g>
						<g>
							<path id="DejaVuSans-30_5_" d="M381.686,66.408c-5.073,0-8.892-2.5-11.455-7.5c-2.554-4.99-3.828-12.5-3.828-22.539
								c0-9.98,1.274-17.48,3.828-22.48c2.563-5,6.382-7.5,11.455-7.5c5.112,0,8.945,2.5,11.499,7.5c2.563,5,3.843,12.5,3.843,22.48
								c0,10.039-1.279,17.549-3.843,22.539C390.631,63.908,386.798,66.408,381.686,66.408z M381.686,74.22
								c8.174,0,14.419-3.242,18.73-9.707c4.316-6.455,6.47-15.84,6.47-28.145c0-12.266-2.153-21.641-6.47-28.105
								c-4.312-6.455-10.557-9.688-18.73-9.688c-8.169,0-14.409,3.232-18.721,9.688c-4.312,6.465-6.47,15.84-6.47,28.105
								c0,12.305,2.158,21.689,6.47,28.145C367.277,70.978,373.517,74.22,381.686,74.22z"/>
						</g>
					</g>
					<g transform="translate(-7.570312 179.858125)scale(0.1 -0.1)">
						<g>
							<path id="DejaVuSans-74_1_" d="M18.311,70.222V54.694h18.501v-6.992H18.311V18.015c0-4.453,0.61-7.324,1.831-8.594
								c1.216-1.27,3.701-1.904,7.451-1.904h9.219v-7.51h-9.219c-6.938,0-11.724,1.289-14.36,3.867
								c-2.632,2.598-3.95,7.305-3.95,14.141v29.688H2.686v6.992h6.597v15.527H18.311z"/>
						</g>
						<g>
							<path id="DejaVuSans-6f_3_" d="M69.82,48.386c-4.814,0-8.623-1.875-11.421-5.635c-2.803-3.76-4.204-8.916-4.204-15.459
								s1.392-11.689,4.17-15.449c2.793-3.76,6.611-5.645,11.455-5.645c4.79,0,8.584,1.895,11.372,5.664
								c2.803,3.779,4.204,8.926,4.204,15.43c0,6.484-1.401,11.621-4.204,15.41C78.404,46.491,74.61,48.386,69.82,48.386z
								 M69.82,56.003c7.812,0,13.945-2.539,18.403-7.627c4.473-5.068,6.704-12.1,6.704-21.084c0-8.945-2.231-15.967-6.704-21.074
								C83.765,1.12,77.632-1.419,69.82-1.419c-7.847,0-13.989,2.539-18.438,7.637c-4.438,5.107-6.655,12.129-6.655,21.074
								c0,8.984,2.217,16.016,6.655,21.084C55.83,53.464,61.973,56.003,69.82,56.003z"/>
						</g>
						<g>
							<path id="DejaVuSans-20_5_" d="M100.391,0.007"/>
						</g>
						<g>
							<path id="DejaVuSans-24_2_" d="M165.977-14.7h-4.893l-0.049,14.707c-3.413,0.059-6.831,0.449-10.249,1.182
								s-6.855,1.846-10.312,3.311v8.789c3.325-2.09,6.685-3.662,10.078-4.727c3.408-1.055,6.919-1.592,10.532-1.621v22.266
								c-7.197,1.162-12.432,3.145-15.703,5.957c-3.271,2.793-4.907,6.641-4.907,11.523c0,5.303,1.777,9.482,5.327,12.539
								c3.555,3.057,8.647,4.814,15.283,5.273v11.484h4.893V64.655c3.018-0.137,5.947-0.459,8.779-0.967
								c2.832-0.498,5.601-1.182,8.296-2.061v-8.555c-2.695,1.367-5.474,2.422-8.325,3.184c-2.847,0.742-5.762,1.182-8.75,1.309
								v-20.84c7.383-1.143,12.817-3.184,16.294-6.113c3.491-2.93,5.234-6.934,5.234-12.002c0-5.498-1.846-9.834-5.547-13.018
								c-3.696-3.174-9.023-5.01-15.981-5.498V-14.7z M161.084,37.595v20.029c-3.77-0.43-6.65-1.504-8.643-3.232
								c-1.987-1.719-2.983-4.014-2.983-6.875c0-2.803,0.918-4.99,2.749-6.553C154.053,39.401,157.012,38.288,161.084,37.595z
								 M165.977,28.22V7.077c4.121,0.547,7.236,1.719,9.341,3.516s3.159,4.15,3.159,7.08c0,2.861-1.006,5.146-3.018,6.826
								C173.457,26.198,170.298,27.439,165.977,28.22z"/>
						</g>
						<g>
							<path id="DejaVuSans-39_2_" d="M206.787,1.511v8.984c2.476-1.172,4.98-2.07,7.515-2.676c2.539-0.625,5.034-0.928,7.485-0.928
								c6.509,0,11.479,2.188,14.902,6.562c3.438,4.375,5.405,11.025,5.894,19.951c-1.885-2.803-4.282-4.951-7.188-6.445
								c-2.896-1.504-6.099-2.256-9.609-2.256c-7.295,0-13.062,2.197-17.314,6.611c-4.248,4.414-6.372,10.449-6.372,18.105
								c0,7.48,2.212,13.477,6.641,18.008c4.424,4.531,10.317,6.797,17.671,6.797c8.438,0,14.873-3.242,19.312-9.707
								c4.448-6.465,6.67-15.84,6.67-28.145c0-11.484-2.729-20.664-8.184-27.52c-5.449-6.855-12.778-10.273-21.987-10.273
								c-2.48,0-4.99,0.244-7.529,0.723C212.158-0.198,209.527,0.534,206.787,1.511z M226.411,32.429
								c4.424,0,7.93,1.504,10.513,4.531c2.598,3.027,3.892,7.188,3.892,12.461c0,5.234-1.294,9.375-3.892,12.422
								c-2.583,3.047-6.089,4.57-10.513,4.57c-4.429,0-7.935-1.523-10.518-4.57s-3.872-7.188-3.872-12.422
								c0-5.273,1.289-9.434,3.872-12.461S221.983,32.429,226.411,32.429z"/>
						</g>
						<g>
							<path id="DejaVuSans-31_3_" d="M271.831,8.298h16.108v55.625l-17.529-3.516v8.984l17.437,3.516h9.858V8.298h16.108V0.007
								h-41.982V8.298z"/>
						</g>
						<g>
							<path id="DejaVuSans-2c_2_" d="M334.766,12.409h10.298V4.001l-8.003-15.625h-6.294l3.999,15.625V12.409z"/>
						</g>
						<g>
							<path id="DejaVuSans-36_2_" d="M387.852,40.378c-4.429,0-7.939-1.523-10.532-4.551c-2.583-3.018-3.877-7.168-3.877-12.441
								c0-5.234,1.294-9.375,3.877-12.432c2.593-3.037,6.104-4.561,10.532-4.561c4.424,0,7.93,1.523,10.513,4.561
								c2.583,3.057,3.877,7.197,3.877,12.432c0,5.273-1.294,9.424-3.877,12.441C395.781,38.855,392.276,40.378,387.852,40.378z
								 M407.427,71.296v-8.984c-2.48,1.172-4.98,2.061-7.5,2.676c-2.52,0.625-5.02,0.938-7.5,0.938
								c-6.509,0-11.484-2.207-14.922-6.602c-3.428-4.395-5.386-11.035-5.874-19.922c1.919,2.832,4.321,5.01,7.217,6.523
								c2.91,1.504,6.099,2.266,9.58,2.266c7.324,0,13.11-2.227,17.358-6.68c4.253-4.434,6.377-10.469,6.377-18.125
								c0-7.48-2.217-13.496-6.641-18.027c-4.429-4.521-10.317-6.777-17.671-6.777c-8.438,0-14.888,3.223-19.346,9.688
								s-6.689,15.84-6.689,28.105c0,11.523,2.734,20.703,8.203,27.559s12.808,10.293,22.017,10.293c2.48,0,4.98-0.254,7.5-0.742
								S404.688,72.273,407.427,71.296z"/>
						</g>
						<g>
							<path id="DejaVuSans-39_3_" d="M429.444,1.511v8.984c2.476-1.172,4.98-2.07,7.515-2.676c2.539-0.625,5.034-0.928,7.485-0.928
								c6.509,0,11.479,2.188,14.902,6.562c3.438,4.375,5.405,11.025,5.894,19.951c-1.885-2.803-4.282-4.951-7.188-6.445
								c-2.896-1.504-6.099-2.256-9.609-2.256c-7.295,0-13.062,2.197-17.314,6.611c-4.248,4.414-6.372,10.449-6.372,18.105
								c0,7.48,2.212,13.477,6.641,18.008c4.424,4.531,10.317,6.797,17.671,6.797c8.438,0,14.873-3.242,19.312-9.707
								c4.448-6.465,6.67-15.84,6.67-28.145c0-11.484-2.725-20.664-8.184-27.52c-5.449-6.855-12.778-10.273-21.987-10.273
								c-2.476,0-4.99,0.244-7.524,0.723C434.815-0.198,432.183,0.534,429.444,1.511z M449.068,32.429
								c4.424,0,7.93,1.504,10.513,4.531c2.598,3.027,3.892,7.188,3.892,12.461c0,5.234-1.294,9.375-3.892,12.422
								c-2.583,3.047-6.089,4.57-10.513,4.57c-4.429,0-7.935-1.523-10.518-4.57s-3.872-7.188-3.872-12.422
								c0-5.273,1.289-9.434,3.872-12.461S444.639,32.429,449.068,32.429z"/>
						</g>
						<g>
							<path id="DejaVuSans-30_6_" d="M513.862,66.413c-5.073,0-8.892-2.5-11.455-7.5c-2.549-5-3.828-12.5-3.828-22.539
								c0-9.99,1.279-17.48,3.828-22.48c2.563-5,6.382-7.5,11.455-7.5c5.112,0,8.945,2.5,11.499,7.5
								c2.563,5,3.843,12.49,3.843,22.48c0,10.039-1.279,17.539-3.843,22.539C522.808,63.913,518.975,66.413,513.862,66.413z
								 M513.862,74.226c8.174,0,14.419-3.242,18.735-9.707c4.312-6.465,6.465-15.84,6.465-28.145
								c0-12.266-2.153-21.641-6.465-28.105c-4.316-6.465-10.562-9.688-18.735-9.688c-8.169,0-14.409,3.223-18.721,9.688
								s-6.47,15.84-6.47,28.105c0,12.305,2.158,21.68,6.47,28.145S505.694,74.226,513.862,74.226z"/>
						</g>
					</g>
				</g>
			</g>
			<g id="ytick_3">
				<g id="text_8">
					<g transform="translate(5.646875 114.300312)scale(0.1 -0.1)">
						<g>
							<path id="DejaVuSans-24_3_" d="M33.795-14.702h-4.888L28.859,0c-3.418,0.063-6.831,0.459-10.249,1.187
								c-3.418,0.742-6.855,1.846-10.312,3.315v8.779c3.325-2.085,6.685-3.657,10.078-4.717c3.408-1.055,6.919-1.597,10.532-1.626
								v22.266c-7.197,1.167-12.432,3.149-15.703,5.952S8.297,41.802,8.297,46.69c0,5.298,1.777,9.478,5.327,12.529
								c3.555,3.062,8.647,4.824,15.283,5.283v11.484h4.888V64.658c3.022-0.137,5.952-0.459,8.784-0.972
								c2.832-0.498,5.596-1.187,8.296-2.061v-8.55c-2.7,1.367-5.474,2.422-8.33,3.174c-2.842,0.752-5.757,1.187-8.75,1.313V36.719
								c7.388-1.138,12.817-3.174,16.299-6.108c3.491-2.93,5.234-6.929,5.234-12.002c0-5.498-1.851-9.839-5.547-13.013
								c-3.696-3.179-9.028-5.015-15.986-5.503V-14.702z M28.907,37.593v20.034c-3.77-0.43-6.65-1.509-8.643-3.237
								c-1.987-1.719-2.983-4.009-2.983-6.875c0-2.803,0.918-4.985,2.749-6.548C21.876,39.404,24.835,38.281,28.907,37.593z
								 M33.795,28.218V7.08c4.126,0.552,7.241,1.724,9.346,3.516s3.154,4.15,3.154,7.075c0,2.866-1.001,5.142-3.013,6.831
								C41.281,26.196,38.121,27.437,33.795,28.218z"/>
						</g>
						<g>
							<path id="DejaVuSans-34" d="M101.422,64.312L76.515,25.391h24.907V64.312z M98.824,72.905h12.407V25.391h10.405v-8.203
								h-10.405V0h-9.81v17.188h-32.91v9.517L98.824,72.905z"/>
						</g>
						<g>
							<path id="DejaVuSans-36_3_" d="M160.26,40.376c-4.424,0-7.935-1.519-10.527-4.546c-2.583-3.022-3.877-7.168-3.877-12.441
								c0-5.239,1.294-9.385,3.877-12.437c2.593-3.042,6.104-4.561,10.527-4.561c4.429,0,7.935,1.519,10.518,4.561
								c2.583,3.052,3.877,7.197,3.877,12.437c0,5.273-1.294,9.419-3.877,12.441C168.195,38.858,164.689,40.376,160.26,40.376z
								 M179.84,71.299v-8.984c-2.48,1.167-4.98,2.056-7.5,2.671c-2.52,0.625-5.02,0.938-7.5,0.938
								c-6.509,0-11.484-2.197-14.922-6.597c-3.428-4.395-5.386-11.035-5.874-19.922c1.914,2.837,4.321,5.005,7.217,6.519
								c2.905,1.509,6.099,2.266,9.58,2.266c7.324,0,13.11-2.227,17.358-6.675c4.248-4.434,6.377-10.479,6.377-18.125
								c0-7.485-2.217-13.496-6.641-18.027c-4.429-4.521-10.317-6.782-17.676-6.782c-8.438,0-14.883,3.232-19.341,9.688
								c-4.458,6.475-6.689,15.84-6.689,28.11c0,11.519,2.734,20.708,8.203,27.563c5.469,6.851,12.808,10.278,22.017,10.278
								c2.48,0,4.98-0.239,7.5-0.728C174.469,72.993,177.101,72.266,179.84,71.299z"/>
						</g>
						<g>
							<path id="DejaVuSans-2c_3_" d="M202.589,12.407h10.298V3.999l-8.003-15.625h-6.294l3.999,15.625V12.407z"/>
						</g>
						<g>
							<path id="DejaVuSans-30_7_" d="M254.44,66.406c-5.073,0-8.892-2.5-11.455-7.5c-2.554-4.99-3.828-12.5-3.828-22.529
								c0-9.99,1.274-17.485,3.828-22.485c2.563-5,6.382-7.5,11.455-7.5c5.112,0,8.945,2.5,11.499,7.5
								c2.563,5,3.843,12.495,3.843,22.485c0,10.029-1.279,17.539-3.843,22.529C263.385,63.906,259.552,66.406,254.44,66.406z
								 M254.44,74.219c8.174,0,14.419-3.232,18.73-9.702c4.316-6.46,6.47-15.84,6.47-28.14c0-12.271-2.153-21.641-6.47-28.11
								c-4.312-6.46-10.557-9.688-18.73-9.688c-8.169,0-14.409,3.228-18.721,9.688c-4.312,6.47-6.47,15.84-6.47,28.11
								c0,12.3,2.158,21.68,6.47,28.14C240.03,70.986,246.271,74.219,254.44,74.219z"/>
						</g>
						<g>
							<path id="DejaVuSans-30_8_" d="M318.063,66.406c-5.073,0-8.892-2.5-11.455-7.5c-2.554-4.99-3.828-12.5-3.828-22.529
								c0-9.99,1.274-17.485,3.828-22.485c2.563-5,6.382-7.5,11.455-7.5c5.112,0,8.945,2.5,11.499,7.5
								c2.563,5,3.843,12.495,3.843,22.485c0,10.029-1.279,17.539-3.843,22.529C327.008,63.906,323.175,66.406,318.063,66.406z
								 M318.063,74.219c8.174,0,14.419-3.232,18.73-9.702c4.316-6.46,6.47-15.84,6.47-28.14c0-12.271-2.153-21.641-6.47-28.11
								c-4.312-6.46-10.557-9.688-18.73-9.688c-8.169,0-14.409,3.228-18.721,9.688c-4.312,6.47-6.47,15.84-6.47,28.11
								c0,12.3,2.158,21.68,6.47,28.14C303.654,70.986,309.894,74.219,318.063,74.219z"/>
						</g>
						<g>
							<path id="DejaVuSans-30_9_" d="M381.686,66.406c-5.073,0-8.892-2.5-11.455-7.5c-2.554-4.99-3.828-12.5-3.828-22.529
								c0-9.99,1.274-17.485,3.828-22.485c2.563-5,6.382-7.5,11.455-7.5c5.112,0,8.945,2.5,11.499,7.5
								c2.563,5,3.843,12.495,3.843,22.485c0,10.029-1.279,17.539-3.843,22.529C390.631,63.906,386.798,66.406,381.686,66.406z
								 M381.686,74.219c8.174,0,14.419-3.232,18.73-9.702c4.316-6.46,6.47-15.84,6.47-28.14c0-12.271-2.153-21.641-6.47-28.11
								c-4.312-6.46-10.557-9.688-18.73-9.688c-8.169,0-14.409,3.228-18.721,9.688c-4.312,6.47-6.47,15.84-6.47,28.11
								c0,12.3,2.158,21.68,6.47,28.14C367.277,70.986,373.517,74.219,381.686,74.219z"/>
						</g>
					</g>
					<g transform="translate(-7.570312 125.498125)scale(0.1 -0.1)">
						<g>
							<path id="DejaVuSans-74_2_" d="M18.311,70.22V54.688h18.501v-6.982H18.311V18.018c0-4.463,0.61-7.324,1.831-8.594
								c1.216-1.274,3.701-1.909,7.451-1.909h9.219V0.001h-9.219c-6.938,0-11.724,1.289-14.36,3.877
								c-2.632,2.593-3.95,7.305-3.95,14.141v29.688H2.686v6.982h6.597V70.22H18.311z"/>
						</g>
						<g>
							<path id="DejaVuSans-6f_4_" d="M69.82,48.389c-4.814,0-8.623-1.88-11.421-5.64c-2.803-3.76-4.204-8.911-4.204-15.454
								c0-6.538,1.392-11.689,4.17-15.449c2.793-3.765,6.611-5.645,11.455-5.645c4.79,0,8.584,1.885,11.372,5.659
								c2.803,3.779,4.204,8.926,4.204,15.435c0,6.479-1.401,11.616-4.204,15.41C78.404,46.495,74.61,48.389,69.82,48.389z
								 M69.82,56.002c7.812,0,13.945-2.544,18.403-7.627c4.473-5.073,6.704-12.1,6.704-21.079c0-8.945-2.231-15.972-6.704-21.074
								C83.765,1.124,77.632-1.42,69.82-1.42c-7.847,0-13.989,2.544-18.438,7.642c-4.438,5.103-6.655,12.129-6.655,21.074
								c0,8.979,2.217,16.006,6.655,21.079C55.83,53.458,61.973,56.002,69.82,56.002z"/>
						</g>
						<g>
							<path id="DejaVuSans-20_6_" d="M100.391,0.001"/>
						</g>
						<g>
							<path id="DejaVuSans-24_4_" d="M165.977-14.701h-4.893l-0.049,14.702c-3.413,0.063-6.831,0.459-10.249,1.187
								c-3.418,0.742-6.855,1.846-10.312,3.315v8.779c3.325-2.085,6.685-3.657,10.078-4.717c3.408-1.055,6.919-1.597,10.532-1.626
								v22.266c-7.197,1.167-12.432,3.149-15.703,5.952s-4.907,6.646-4.907,11.533c0,5.298,1.777,9.478,5.327,12.529
								c3.555,3.062,8.647,4.824,15.283,5.283v11.484h4.893V64.659c3.018-0.137,5.947-0.459,8.779-0.972
								c2.832-0.498,5.601-1.187,8.296-2.061v-8.55c-2.695,1.367-5.474,2.422-8.325,3.174c-2.847,0.752-5.762,1.187-8.75,1.313
								V36.719c7.383-1.138,12.817-3.174,16.294-6.108c3.491-2.93,5.234-6.929,5.234-12.002c0-5.498-1.846-9.839-5.547-13.013
								c-3.696-3.179-9.023-5.015-15.981-5.503V-14.701z M161.084,37.594v20.034c-3.77-0.43-6.65-1.509-8.643-3.237
								c-1.987-1.719-2.983-4.009-2.983-6.875c0-2.803,0.918-4.985,2.749-6.548C154.053,39.405,157.012,38.282,161.084,37.594z
								 M165.977,28.219V7.081c4.121,0.552,7.236,1.724,9.341,3.516c2.104,1.787,3.159,4.15,3.159,7.075
								c0,2.866-1.006,5.142-3.018,6.831C173.457,26.197,170.298,27.437,165.977,28.219z"/>
						</g>
						<g>
							<path id="DejaVuSans-36_4_" d="M228.819,40.377c-4.429,0-7.939-1.519-10.532-4.546c-2.583-3.022-3.877-7.168-3.877-12.441
								c0-5.239,1.294-9.385,3.877-12.437c2.593-3.042,6.104-4.561,10.532-4.561c4.424,0,7.93,1.519,10.513,4.561
								c2.583,3.052,3.877,7.197,3.877,12.437c0,5.273-1.294,9.419-3.877,12.441C236.748,38.858,233.242,40.377,228.819,40.377z
								 M248.394,71.3v-8.984c-2.48,1.162-4.98,2.056-7.5,2.671c-2.52,0.625-5.02,0.938-7.5,0.938
								c-6.509,0-11.484-2.197-14.922-6.597c-3.428-4.395-5.386-11.035-5.874-19.922c1.919,2.837,4.321,5.005,7.217,6.519
								c2.91,1.509,6.099,2.266,9.58,2.266c7.324,0,13.11-2.227,17.358-6.675c4.253-4.434,6.377-10.479,6.377-18.125
								c0-7.49-2.217-13.496-6.641-18.027c-4.429-4.521-10.317-6.777-17.671-6.777c-8.438,0-14.888,3.228-19.346,9.688
								c-4.458,6.47-6.689,15.835-6.689,28.105c0,11.523,2.734,20.713,8.203,27.563s12.808,10.283,22.017,10.283
								c2.48,0,4.98-0.244,7.5-0.732C243.023,72.994,245.655,72.266,248.394,71.3z"/>
						</g>
						<g>
							<path id="DejaVuSans-35_3_" d="M270.22,72.906h38.721v-8.311h-29.688V46.734c1.426,0.488,2.852,0.854,4.282,1.094
								c1.436,0.239,2.871,0.361,4.312,0.361c8.135,0,14.575-2.231,19.326-6.689c4.761-4.458,7.144-10.493,7.144-18.11
								c0-7.842-2.446-13.94-7.329-18.296C302.1,0.753,295.215-1.42,286.328-1.42c-3.062,0-6.182,0.259-9.355,0.781
								c-3.169,0.518-6.445,1.299-9.829,2.344v9.922c2.925-1.597,5.952-2.783,9.077-3.564s6.426-1.172,9.907-1.172
								c5.635,0,10.093,1.479,13.374,4.438c3.291,2.959,4.937,6.978,4.937,12.061c0,5.073-1.646,9.092-4.937,12.051
								c-3.281,2.969-7.739,4.453-13.374,4.453c-2.637,0-5.269-0.293-7.891-0.879c-2.617-0.581-5.288-1.494-8.018-2.734V72.906
								L270.22,72.906z"/>
						</g>
						<g>
							<path id="DejaVuSans-2c_4_" d="M334.766,12.408h10.298V4l-8.003-15.625h-6.294L334.766,4V12.408z"/>
						</g>
						<g>
							<path id="DejaVuSans-30_10_" d="M386.616,66.407c-5.073,0-8.892-2.5-11.455-7.5c-2.549-4.99-3.828-12.5-3.828-22.529
								c0-9.99,1.279-17.485,3.828-22.485c2.563-5,6.382-7.5,11.455-7.5c5.112,0,8.945,2.5,11.499,7.5
								c2.563,5,3.843,12.495,3.843,22.485c0,10.029-1.279,17.539-3.843,22.529C395.562,63.907,391.729,66.407,386.616,66.407z
								 M386.616,74.219c8.174,0,14.419-3.232,18.735-9.702c4.312-6.46,6.465-15.84,6.465-28.14c0-12.275-2.153-21.641-6.465-28.11
								c-4.316-6.46-10.562-9.688-18.735-9.688c-8.169,0-14.409,3.228-18.721,9.688c-4.312,6.47-6.47,15.835-6.47,28.11
								c0,12.3,2.158,21.68,6.47,28.14C372.207,70.987,378.447,74.219,386.616,74.219z"/>
						</g>
						<g>
							<path id="DejaVuSans-30_11_" d="M450.239,66.407c-5.073,0-8.892-2.5-11.455-7.5c-2.549-4.99-3.828-12.5-3.828-22.529
								c0-9.99,1.279-17.485,3.828-22.485c2.563-5,6.382-7.5,11.455-7.5c5.112,0,8.945,2.5,11.499,7.5
								c2.563,5,3.843,12.495,3.843,22.485c0,10.029-1.279,17.539-3.843,22.529C459.185,63.907,455.352,66.407,450.239,66.407z
								 M450.239,74.219c8.174,0,14.419-3.232,18.735-9.702c4.312-6.46,6.465-15.84,6.465-28.14c0-12.275-2.153-21.641-6.465-28.11
								c-4.316-6.46-10.562-9.688-18.735-9.688c-8.169,0-14.409,3.228-18.721,9.688c-4.312,6.47-6.47,15.835-6.47,28.11
								c0,12.3,2.158,21.68,6.47,28.14C435.83,70.987,442.071,74.219,450.239,74.219z"/>
						</g>
						<g>
							<path id="DejaVuSans-30_12_" d="M513.862,66.407c-5.073,0-8.892-2.5-11.455-7.5c-2.549-4.99-3.828-12.5-3.828-22.529
								c0-9.99,1.279-17.485,3.828-22.485c2.563-5,6.382-7.5,11.455-7.5c5.112,0,8.945,2.5,11.499,7.5
								c2.563,5,3.843,12.495,3.843,22.485c0,10.029-1.279,17.539-3.843,22.529C522.808,63.907,518.975,66.407,513.862,66.407z
								 M513.862,74.219c8.174,0,14.419-3.232,18.735-9.702c4.312-6.46,6.465-15.84,6.465-28.14c0-12.275-2.153-21.641-6.465-28.11
								c-4.316-6.46-10.562-9.688-18.735-9.688c-8.169,0-14.409,3.228-18.721,9.688c-4.312,6.47-6.47,15.835-6.47,28.11
								c0,12.3,2.158,21.68,6.47,28.14C499.453,70.987,505.694,74.219,513.862,74.219z"/>
						</g>
					</g>
				</g>
			</g>
			<g id="ytick_4">
				<g id="text_9">
					<g transform="translate(-30.798438 65.539219)scale(0.1 -0.1)">
						<g>
							<path id="DejaVuSans-42" d="M19.674,34.811V8.107h15.825c5.303,0,9.229,1.104,11.782,3.301
								c2.563,2.197,3.843,5.557,3.843,10.078c0,4.561-1.279,7.92-3.843,10.078c-2.554,2.163-6.479,3.247-11.782,3.247H19.674z
								 M19.674,64.796V42.829h14.609c4.81,0,8.394,0.898,10.747,2.7c2.363,1.816,3.55,4.575,3.55,8.281
								c0,3.682-1.187,6.431-3.55,8.252c-2.354,1.821-5.938,2.734-10.747,2.734H19.674z M9.811,72.907h25.205
								c7.52,0,13.311-1.562,17.373-4.688c4.077-3.125,6.113-7.568,6.113-13.33c0-4.468-1.045-8.018-3.125-10.654
								c-2.085-2.637-5.146-4.277-9.189-4.922c4.854-1.04,8.623-3.218,11.313-6.533c2.686-3.301,4.028-7.427,4.028-12.373
								c0-6.509-2.212-11.543-6.641-15.093c-4.424-3.545-10.728-5.312-18.906-5.312H9.811V72.907z"/>
						</g>
						<g>
							<path id="DejaVuSans-65_2_" d="M124.806,29.591v-4.39H83.492c0.396-6.187,2.261-10.898,5.596-14.141
								c3.335-3.237,7.979-4.858,13.936-4.858c3.452,0,6.792,0.42,10.034,1.265c3.237,0.845,6.455,2.114,9.653,3.813V2.78
								c-3.228-1.362-6.533-2.407-9.922-3.125c-3.384-0.718-6.816-1.079-10.293-1.079c-8.73,0-15.645,2.539-20.737,7.612
								c-5.093,5.083-7.642,11.958-7.642,20.625c0,8.945,2.417,16.045,7.251,21.294c4.834,5.264,11.357,7.891,19.565,7.891
								c7.354,0,13.169-2.368,17.451-7.109C122.667,44.162,124.806,37.731,124.806,29.591z M115.821,32.233
								c-0.063,4.907-1.436,8.823-4.126,11.753c-2.686,2.935-6.245,4.404-10.669,4.404c-5.01,0-9.023-1.416-12.031-4.248
								c-3.013-2.837-4.746-6.826-5.205-11.973L115.821,32.233z"/>
						</g>
						<g>
							<path id="DejaVuSans-6c_1_" d="M139.547,75.983h8.984V0.001h-8.984V75.983z"/>
						</g>
						<g>
							<path id="DejaVuSans-6f_5_" d="M188.522,48.39c-4.814,0-8.623-1.88-11.426-5.64c-2.798-3.76-4.199-8.911-4.199-15.454
								s1.387-11.694,4.17-15.454c2.793-3.76,6.611-5.64,11.455-5.64c4.79,0,8.579,1.885,11.372,5.654
								c2.803,3.784,4.204,8.931,4.204,15.439c0,6.479-1.401,11.616-4.204,15.405C197.101,46.496,193.312,48.39,188.522,48.39z
								 M188.522,55.998c7.812,0,13.945-2.539,18.403-7.622c4.468-5.073,6.704-12.1,6.704-21.079c0-8.945-2.236-15.972-6.704-21.079
								c-4.458-5.093-10.591-7.642-18.403-7.642c-7.847,0-13.989,2.549-18.438,7.642c-4.438,5.107-6.66,12.134-6.66,21.079
								c0,8.979,2.222,16.006,6.66,21.079C174.532,53.458,180.675,55.998,188.522,55.998z"/>
						</g>
						<g>
							<path id="DejaVuSans-77_1_" d="M223.297,54.689h8.984l11.23-42.676l11.172,42.676h10.596l11.235-42.676l11.187,42.676h8.984
								L282.374,0.001h-10.596l-11.763,44.824L248.199,0.001h-10.605L223.297,54.689z"/>
						</g>
						<g>
							<path id="DejaVuSans-20_7_" d="M300.88,0.001"/>
						</g>
						<g>
							<path id="DejaVuSans-24_5_" d="M366.461-14.706h-4.888l-0.049,14.707c-3.418,0.059-6.831,0.459-10.249,1.187
								c-3.418,0.737-6.855,1.841-10.312,3.311v8.784c3.325-2.085,6.685-3.657,10.078-4.722c3.408-1.05,6.919-1.592,10.532-1.626
								v22.266c-7.197,1.167-12.432,3.154-15.703,5.957s-4.907,6.646-4.907,11.528c0,5.303,1.777,9.482,5.327,12.534
								c3.555,3.062,8.647,4.819,15.283,5.278v11.484h4.888V64.655c3.022-0.132,5.952-0.459,8.784-0.967
								c2.832-0.503,5.596-1.187,8.296-2.065v-8.545c-2.7,1.367-5.474,2.422-8.33,3.174c-2.842,0.747-5.757,1.187-8.75,1.309V36.72
								c7.388-1.138,12.817-3.174,16.299-6.113c3.491-2.925,5.234-6.924,5.234-11.997c0-5.503-1.851-9.839-5.547-13.018
								c-3.696-3.174-9.028-5.01-15.986-5.498V-14.706z M361.573,37.594v20.029c-3.77-0.425-6.65-1.504-8.643-3.232
								c-1.987-1.719-2.983-4.009-2.983-6.875c0-2.803,0.918-4.985,2.749-6.548C354.542,39.406,357.501,38.283,361.573,37.594z
								 M366.461,28.219V7.077c4.126,0.552,7.241,1.724,9.346,3.516s3.154,4.15,3.154,7.08c0,2.866-1.001,5.142-3.013,6.826
								C373.946,26.198,370.787,27.438,366.461,28.219z"/>
						</g>
						<g>
							<path id="DejaVuSans-20_8_" d="M396.29,0.001"/>
						</g>
						<g>
							<path id="DejaVuSans-34_1_" d="M465.875,64.313l-24.907-38.921h24.907V64.313z M463.278,72.907h12.407V25.392h10.405v-8.203
								h-10.405V0.001h-9.81v17.188h-32.91v9.512L463.278,72.907z"/>
						</g>
						<g>
							<path id="DejaVuSans-36_5_" d="M524.713,40.373c-4.424,0-7.935-1.514-10.527-4.546c-2.583-3.018-3.877-7.163-3.877-12.437
								c0-5.239,1.294-9.385,3.877-12.437c2.593-3.042,6.104-4.565,10.527-4.565c4.429,0,7.935,1.523,10.518,4.565
								c2.583,3.052,3.877,7.197,3.877,12.437c0,5.273-1.294,9.419-3.877,12.437C532.648,38.859,529.142,40.373,524.713,40.373z
								 M544.293,71.295v-8.984c-2.48,1.167-4.98,2.061-7.5,2.671c-2.52,0.625-5.02,0.938-7.5,0.938
								c-6.509,0-11.484-2.197-14.922-6.592c-3.428-4.395-5.386-11.035-5.874-19.922c1.914,2.832,4.321,5.005,7.217,6.514
								c2.905,1.514,6.099,2.266,9.58,2.266c7.324,0,13.11-2.222,17.358-6.67c4.248-4.438,6.377-10.479,6.377-18.125
								c0-7.49-2.217-13.501-6.641-18.032c-4.429-4.521-10.317-6.782-17.676-6.782c-8.438,0-14.883,3.232-19.341,9.688
								c-4.458,6.47-6.689,15.84-6.689,28.11c0,11.523,2.734,20.708,8.203,27.563c5.469,6.855,12.808,10.283,22.017,10.283
								c2.48,0,4.98-0.244,7.5-0.737C538.922,72.995,541.554,72.267,544.293,71.295z"/>
						</g>
						<g>
							<path id="DejaVuSans-2c_5_" d="M567.042,12.404h10.298V4l-8.003-15.625h-6.294L567.042,4V12.404z"/>
						</g>
						<g>
							<path id="DejaVuSans-30_13_" d="M618.893,66.408c-5.073,0-8.892-2.5-11.455-7.5c-2.554-4.99-3.828-12.5-3.828-22.534
								c0-9.99,1.274-17.485,3.828-22.485c2.563-5,6.382-7.5,11.455-7.5c5.112,0,8.945,2.5,11.499,7.5
								c2.563,5,3.843,12.495,3.843,22.485c0,10.034-1.279,17.544-3.843,22.534C627.838,63.908,624.005,66.408,618.893,66.408z
								 M618.893,74.22c8.174,0,14.419-3.237,18.73-9.707c4.316-6.455,6.47-15.835,6.47-28.14c0-12.271-2.153-21.641-6.47-28.11
								c-4.312-6.455-10.557-9.688-18.73-9.688c-8.169,0-14.409,3.232-18.721,9.688c-4.312,6.47-6.47,15.84-6.47,28.11
								c0,12.305,2.158,21.685,6.47,28.14C604.484,70.983,610.724,74.22,618.893,74.22z"/>
						</g>
						<g>
							<path id="DejaVuSans-30_14_" d="M682.516,66.408c-5.073,0-8.892-2.5-11.455-7.5c-2.554-4.99-3.828-12.5-3.828-22.534
								c0-9.99,1.274-17.485,3.828-22.485c2.563-5,6.382-7.5,11.455-7.5c5.112,0,8.945,2.5,11.499,7.5
								c2.563,5,3.843,12.495,3.843,22.485c0,10.034-1.279,17.544-3.843,22.534C691.461,63.908,687.628,66.408,682.516,66.408z
								 M682.516,74.22c8.174,0,14.419-3.237,18.73-9.707c4.316-6.455,6.47-15.835,6.47-28.14c0-12.271-2.153-21.641-6.47-28.11
								c-4.312-6.455-10.557-9.688-18.73-9.688c-8.169,0-14.409,3.232-18.721,9.688c-4.312,6.47-6.47,15.84-6.47,28.11
								c0,12.305,2.158,21.685,6.47,28.14C668.107,70.983,674.347,74.22,682.516,74.22z"/>
						</g>
						<g>
							<path id="DejaVuSans-30_15_" d="M746.139,66.408c-5.073,0-8.892-2.5-11.455-7.5c-2.554-4.99-3.828-12.5-3.828-22.534
								c0-9.99,1.274-17.485,3.828-22.485c2.563-5,6.382-7.5,11.455-7.5c5.112,0,8.945,2.5,11.499,7.5
								c2.563,5,3.843,12.495,3.843,22.485c0,10.034-1.279,17.544-3.843,22.534C755.084,63.908,751.251,66.408,746.139,66.408z
								 M746.139,74.22c8.174,0,14.419-3.237,18.73-9.707c4.316-6.455,6.47-15.835,6.47-28.14c0-12.271-2.153-21.641-6.47-28.11
								c-4.312-6.455-10.557-9.688-18.73-9.688c-8.169,0-14.409,3.232-18.721,9.688c-4.312,6.47-6.47,15.84-6.47,28.11
								c0,12.305,2.158,21.685,6.47,28.14C731.73,70.983,737.97,74.22,746.139,74.22z"/>
						</g>
					</g>
				</g>
			</g>
		</g>
	</g>
</g>
<text transform="matrix(1 0 0 1 337.5 65.6816)" fill="#FFFFFF" font-family="'MyriadPro-Regular'" font-size="12">15.1%</text>
<text transform="matrix(1 0 0 1 227.4981 230.0898)" fill="#FFFFFF" font-family="'MyriadPro-Regular'" font-size="12">9.9%</text>
</svg>
