<?xml version="1.0" encoding="utf-8"?>
<!-- Generator: Adobe Illustrator 16.0.0, SVG Export Plug-In . SVG Version: 6.00 Build 0)  -->
<!DOCTYPE svg PUBLIC "-//W3C//DTD SVG 1.1//EN" "http://www.w3.org/Graphics/SVG/1.1/DTD/svg11.dtd">
<svg version="1.1" id="Layer_1" xmlns="http://www.w3.org/2000/svg" xmlns:xlink="http://www.w3.org/1999/xlink" x="0px" y="0px"
	 width="432px" height="288px" viewBox="0 0 432 288" enable-background="new 0 0 432 288" xml:space="preserve">
<g id="figure_1">
	<g id="axes_1">
		<g id="patch_2">
			<path fill="#FFFFFF" d="M87.784,251.663h334.8V34.223h-334.8V251.663z"/>
		</g>
		<g id="patch_3">
			<g>
				<g>
					<defs>
						<rect id="SVGID_1_" x="87.784" y="34.223" width="334.8" height="217.44"/>
					</defs>
					<clipPath id="SVGID_2_">
						<use xlink:href="#SVGID_1_"  overflow="visible"/>
					</clipPath>
					<path clip-path="url(#SVGID_2_)" fill="#8B0000" d="M87.784,242.604h129.608v-18.119H87.784V242.604z"/>
				</g>
			</g>
		</g>
		<g id="patch_4">
			<g>
				<g>
					<defs>
						<rect id="SVGID_3_" x="87.784" y="34.223" width="334.8" height="217.44"/>
					</defs>
					<clipPath id="SVGID_4_">
						<use xlink:href="#SVGID_3_"  overflow="visible"/>
					</clipPath>
					<path clip-path="url(#SVGID_4_)" fill="#8B0000" d="M87.784,206.363h147.077v-18.12H87.784V206.363z"/>
				</g>
			</g>
		</g>
		<g id="patch_5">
			<g>
				<g>
					<defs>
						<rect id="SVGID_5_" x="87.784" y="34.223" width="334.8" height="217.44"/>
					</defs>
					<clipPath id="SVGID_6_">
						<use xlink:href="#SVGID_5_"  overflow="visible"/>
					</clipPath>
					<path clip-path="url(#SVGID_6_)" fill="#8B0000" d="M87.784,170.123h154.383v-18.12H87.784V170.123z"/>
				</g>
			</g>
		</g>
		<g id="patch_6">
			<g>
				<g>
					<defs>
						<rect id="SVGID_7_" x="87.784" y="34.223" width="334.8" height="217.44"/>
					</defs>
					<clipPath id="SVGID_8_">
						<use xlink:href="#SVGID_7_"  overflow="visible"/>
					</clipPath>
					<path clip-path="url(#SVGID_8_)" fill="#8B0000" d="M87.784,133.883h299.481v-18.12H87.784V133.883z"/>
				</g>
			</g>
		</g>
		<g id="patch_7">
			<g>
				<g>
					<defs>
						<rect id="SVGID_9_" x="87.784" y="34.223" width="334.8" height="217.44"/>
					</defs>
					<clipPath id="SVGID_10_">
						<use xlink:href="#SVGID_9_"  overflow="visible"/>
					</clipPath>
					<path clip-path="url(#SVGID_10_)" fill="#8B0000" d="M87.784,97.643h303.532v-18.12H87.784V97.643z"/>
				</g>
			</g>
		</g>
		<g id="patch_8">
			<g>
				<g>
					<path fill="#8B0000" d="M87.784,61.403h318.856v-18.12H87.784V61.403z"/>
				</g>
			</g>
		</g>
		<g id="matplotlib.axis_1">
			<g id="xtick_1">
				<g id="line2d_1">
					<g>
						<g>
							<path id="m5535532266" stroke="#000000" stroke-width="0.8" stroke-linejoin="round" d="M87.784,251.663v3.5"/>
						</g>
					</g>
				</g>
				<g id="text_1">
					<g transform="translate(50.81875 266.598437)scale(0.1 -0.1)">
						<g>
							<path id="DejaVuSans-30" d="M369.625,69.773c-5.073,0-8.892-2.5-11.455-7.5c-2.554-4.99-3.828-12.5-3.828-22.529
								c0-9.99,1.274-17.48,3.828-22.48c2.563-5,6.382-7.5,11.455-7.5c5.112,0,8.945,2.5,11.499,7.5
								c2.563,5,3.843,12.49,3.843,22.48c0,10.029-1.279,17.539-3.843,22.529C378.57,67.273,374.737,69.773,369.625,69.773z
								 M369.625,77.586c8.174,0,14.419-3.232,18.73-9.697c4.316-6.465,6.47-15.84,6.47-28.145c0-12.266-2.153-21.641-6.47-28.105
								c-4.312-6.465-10.557-9.688-18.73-9.688c-8.169,0-14.409,3.223-18.721,9.688s-6.47,15.84-6.47,28.105
								c0,12.305,2.158,21.68,6.47,28.145S361.456,77.586,369.625,77.586z"/>
						</g>
					</g>
				</g>
			</g>
			<g id="xtick_2">
				<g id="line2d_2">
					<g>
						<g>
							<path id="m5535532266_1_" stroke="#000000" stroke-width="0.8" stroke-linejoin="round" d="M184.25,251.663v3.5"/>
						</g>
					</g>
				</g>
				<g id="text_2">
					<g transform="translate(147.284589 266.598437)scale(0.1 -0.1)">
						<g>
							<path id="DejaVuSans-35" d="M348.638,76.277h38.721v-8.311h-29.688V50.105c1.426,0.488,2.852,0.85,4.277,1.094
								c1.44,0.244,2.876,0.361,4.316,0.361c8.135,0,14.575-2.227,19.326-6.689c4.761-4.463,7.139-10.498,7.139-18.115
								c0-7.842-2.441-13.945-7.324-18.291c-4.888-4.346-11.772-6.514-20.659-6.514c-3.062,0-6.182,0.254-9.36,0.781
								c-3.164,0.518-6.44,1.299-9.824,2.344v9.922c2.925-1.602,5.952-2.783,9.077-3.564s6.426-1.172,9.907-1.172
								c5.635,0,10.093,1.475,13.374,4.434c3.291,2.959,4.937,6.982,4.937,12.061s-1.646,9.092-4.937,12.051
								c-3.281,2.969-7.739,4.453-13.374,4.453c-2.637,0-5.269-0.293-7.891-0.879c-2.617-0.586-5.288-1.484-8.018-2.734V76.277
								L348.638,76.277z"/>
						</g>
					</g>
				</g>
			</g>
			<g id="xtick_3">
				<g id="line2d_3">
					<g>
						<g>
							<path id="m5535532266_2_" stroke="#000000" stroke-width="0.8" stroke-linejoin="round" d="M280.716,251.663v3.5"/>
						</g>
					</g>
				</g>
				<g id="text_3">
					<g transform="translate(240.569177 266.598437)scale(0.1 -0.1)">
						<g>
							<path id="DejaVuSans-31" d="M350.246,11.668h16.113v55.625l-17.529-3.516v8.984l17.432,3.516h9.863V11.668h16.104V3.367
								h-41.982V11.668L350.246,11.668z"/>
						</g>
						<g>
							<path id="DejaVuSans-30_1_" d="M433.244,69.773c-5.068,0-8.887-2.5-11.445-7.5c-2.559-4.99-3.828-12.5-3.828-22.529
								c0-9.99,1.27-17.48,3.828-22.48s6.377-7.5,11.445-7.5c5.117,0,8.945,2.5,11.504,7.5s3.848,12.49,3.848,22.48
								c0,10.029-1.289,17.539-3.848,22.529C442.189,67.273,438.361,69.773,433.244,69.773z M433.244,77.586
								c8.184,0,14.424-3.232,18.73-9.697c4.316-6.465,6.475-15.84,6.475-28.145c0-12.266-2.158-21.641-6.475-28.105
								c-4.307-6.465-10.547-9.688-18.73-9.688c-8.164,0-14.404,3.223-18.711,9.688c-4.316,6.465-6.475,15.84-6.475,28.105
								c0,12.305,2.158,21.68,6.475,28.145C418.839,74.353,425.08,77.586,433.244,77.586z"/>
						</g>
					</g>
				</g>
			</g>
			<g id="xtick_4">
				<g id="line2d_4">
					<g>
						<g>
							<path id="m5535532266_3_" stroke="#000000" stroke-width="0.8" stroke-linejoin="round" d="M377.182,251.663v3.5"/>
						</g>
					</g>
				</g>
				<g id="text_4">
					<g transform="translate(337.035016 266.598437)scale(0.1 -0.1)">
						<g>
							<path id="DejaVuSans-31_1_" d="M350.246,11.668h16.113v55.625l-17.529-3.516v8.984l17.432,3.516h9.863V11.668h16.104V3.367
								h-41.982V11.668L350.246,11.668z"/>
						</g>
						<g>
							<path id="DejaVuSans-35_1_" d="M412.258,76.277h38.721v-8.311h-29.688V50.105c1.426,0.488,2.861,0.85,4.287,1.094
								c1.436,0.244,2.871,0.361,4.307,0.361c8.135,0,14.58-2.227,19.326-6.689c4.766-4.463,7.148-10.498,7.148-18.115
								c0-7.842-2.441-13.945-7.334-18.291c-4.883-4.346-11.768-6.514-20.654-6.514c-3.066,0-6.182,0.254-9.355,0.781
								c-3.174,0.518-6.445,1.299-9.834,2.344v9.922c2.93-1.602,5.957-2.783,9.082-3.564s6.426-1.172,9.902-1.172
								c5.635,0,10.098,1.475,13.379,4.434c3.291,2.959,4.932,6.982,4.932,12.061s-1.641,9.092-4.932,12.051
								c-3.281,2.969-7.744,4.453-13.379,4.453c-2.637,0-5.264-0.293-7.891-0.879c-2.607-0.586-5.283-1.484-8.018-2.734V76.277
								L412.258,76.277z"/>
						</g>
					</g>
				</g>
			</g>
			<g id="text_5">
				<g transform="translate(157.04375 280.276563)scale(0.1 -0.1)">
					<g>
						<path id="DejaVuSans-4c" d="M347.654,76.271h9.858V11.662h35.503V3.371h-45.361V76.271z"/>
					</g>
					<g>
						<path id="DejaVuSans-6f" d="M424.148,51.76c-4.81,0-8.618-1.875-11.421-5.645c-2.803-3.75-4.204-8.906-4.204-15.449
							s1.392-11.699,4.175-15.449c2.788-3.77,6.606-5.645,11.45-5.645c4.795,0,8.584,1.885,11.377,5.654
							c2.803,3.779,4.204,8.936,4.204,15.439c0,6.484-1.401,11.621-4.204,15.41C432.732,49.865,428.943,51.76,424.148,51.76z
							 M424.148,59.367c7.812,0,13.95-2.539,18.408-7.627c4.468-5.068,6.704-12.09,6.704-21.074c0-8.945-2.236-15.977-6.704-21.074
							c-4.458-5.098-10.596-7.646-18.408-7.646c-7.842,0-13.989,2.549-18.438,7.646c-4.438,5.098-6.655,12.129-6.655,21.074
							c0,8.984,2.217,16.006,6.655,21.074C410.158,56.828,416.306,59.367,424.148,59.367z"/>
					</g>
					<g>
						<path id="DejaVuSans-61" d="M489.001,30.851c-7.261,0-12.29-0.83-15.093-2.48c-2.803-1.66-4.204-4.492-4.204-8.506
							c0-3.184,1.055-5.713,3.159-7.588c2.104-1.865,4.956-2.803,8.56-2.803c4.99,0,8.989,1.768,12.002,5.303
							c3.008,3.525,4.517,8.223,4.517,14.072v2.002H489.001z M506.926,34.572V3.371h-8.984v8.291
							c-2.056-3.311-4.609-5.762-7.676-7.344c-3.062-1.582-6.807-2.373-11.23-2.373c-5.596,0-10.049,1.572-13.359,4.717
							c-3.306,3.145-4.956,7.363-4.956,12.627c0,6.143,2.061,10.781,6.172,13.906c4.126,3.125,10.273,4.688,18.438,4.688h12.612
							v0.889c0,4.141-1.362,7.344-4.082,9.6c-2.715,2.256-6.533,3.389-11.45,3.389c-3.125,0-6.172-0.371-9.141-1.123
							c-2.959-0.752-5.801-1.875-8.53-3.379v8.311c3.281,1.27,6.465,2.227,9.561,2.852s6.108,0.947,9.033,0.947
							c7.915,0,13.828-2.051,17.734-6.152C504.973,49.123,506.926,42.912,506.926,34.572z"/>
					</g>
					<g>
						<path id="DejaVuSans-6e" d="M570.891,36.388V3.371h-8.984v32.715c0,5.186-1.006,9.053-3.037,11.611
							c-2.012,2.578-5.039,3.857-9.072,3.857c-4.854,0-8.682-1.543-11.484-4.639c-2.803-3.086-4.209-7.295-4.209-12.637V3.371
							h-9.023v54.688h9.023v-8.506c2.168,3.301,4.688,5.752,7.598,7.383c2.92,1.621,6.289,2.432,10.098,2.432
							c6.279,0,11.035-1.943,14.248-5.83C569.28,49.65,570.891,43.937,570.891,36.388z"/>
					</g>
					<g>
						<path id="DejaVuSans-73" d="M623.655,56.447v-8.496c-2.52,1.299-5.156,2.266-7.9,2.92c-2.725,0.654-5.557,0.986-8.506,0.986
							c-4.453,0-7.793-0.684-10.02-2.051c-2.236-1.367-3.35-3.418-3.35-6.152c0-2.09,0.791-3.721,2.393-4.912
							c1.592-1.182,4.805-2.314,9.629-3.389l3.066-0.684c6.387-1.367,10.918-3.301,13.594-5.781c2.695-2.5,4.043-5.967,4.043-10.43
							c0-5.078-2.012-9.102-6.035-12.07s-9.551-4.443-16.582-4.443c-2.93,0-5.977,0.283-9.16,0.859
							c-3.164,0.576-6.514,1.436-10.02,2.568v9.277c3.32-1.729,6.582-3.027,9.805-3.887s6.406-1.289,9.58-1.289
							c4.229,0,7.48,0.723,9.756,2.178c2.275,1.445,3.418,3.486,3.418,6.123c0,2.441-0.82,4.307-2.471,5.605
							c-1.631,1.309-5.244,2.559-10.811,3.77l-3.125,0.732c-5.566,1.162-9.59,2.959-12.07,5.391
							c-2.461,2.432-3.691,5.752-3.691,9.99c0,5.137,1.816,9.111,5.469,11.904c3.633,2.803,8.818,4.199,15.527,4.199
							c3.311,0,6.426-0.244,9.355-0.732C618.489,58.156,621.194,57.424,623.655,56.447z"/>
					</g>
					<g>
						<path id="DejaVuSans-20" d="M631.477,3.371"/>
					</g>
					<g>
						<path id="DejaVuSans-77" d="M667.463,58.058h8.984l11.24-42.676l11.172,42.676h10.596l11.23-42.676l11.191,42.676h8.984
							L726.545,3.371h-10.586l-11.777,44.824L692.375,3.371H681.76L667.463,58.058z"/>
					</g>
					<g>
						<path id="DejaVuSans-69" d="M754.475,58.058h8.984V3.371h-8.984V58.058z M754.475,79.357h8.984V67.961h-8.984V79.357z"/>
					</g>
					<g>
						<path id="DejaVuSans-74" d="M791.155,73.586V58.058h18.496v-6.982h-18.496V21.388c0-4.463,0.605-7.324,1.816-8.594
							c1.23-1.27,3.711-1.914,7.461-1.914h9.219v-7.51h-9.219c-6.934,0-11.719,1.289-14.355,3.877s-3.965,7.305-3.965,14.141v29.688
							h-6.582v6.982h6.582v15.527H791.155L791.155,73.586z"/>
					</g>
					<g>
						<path id="DejaVuSans-68" d="M866.936,36.388V3.371h-8.984v32.715c0,5.186-1.016,9.053-3.027,11.611
							c-2.031,2.578-5.049,3.857-9.082,3.857c-4.854,0-8.682-1.543-11.484-4.639c-2.803-3.086-4.199-7.295-4.199-12.637V3.371
							h-9.033v75.986h9.033V49.552c2.148,3.301,4.688,5.752,7.588,7.383c2.92,1.621,6.279,2.432,10.098,2.432
							c6.279,0,11.025-1.943,14.248-5.83C865.324,49.65,866.936,43.937,866.936,36.388z"/>
					</g>
					<g>
						<path id="DejaVuSans-20_1_" d="M875.422,3.371"/>
					</g>
					<g>
						<path id="DejaVuSans-70" d="M925.315,11.574V-17.43h-9.023v75.488h9.023v-8.301c1.895,3.252,4.287,5.664,7.168,7.236
							c2.881,1.582,6.328,2.373,10.322,2.373c6.65,0,12.041-2.627,16.182-7.9c4.16-5.273,6.24-12.207,6.24-20.801
							s-2.08-15.527-6.24-20.811c-4.141-5.273-9.531-7.91-16.182-7.91c-3.994,0-7.441,0.791-10.322,2.373
							S927.209,8.322,925.315,11.574z M955.901,30.666c0,6.602-1.367,11.787-4.082,15.547s-6.445,5.645-11.201,5.645
							s-8.506-1.885-11.221-5.645s-4.082-8.945-4.082-15.547s1.367-11.787,4.082-15.547s6.465-5.645,11.221-5.645
							s8.486,1.885,11.201,5.645S955.901,24.064,955.901,30.666z"/>
					</g>
					<g>
						<path id="DejaVuSans-72" d="M1011.799,49.67c-1.016,0.586-2.109,1.006-3.301,1.279c-1.191,0.283-2.5,0.42-3.926,0.42
							c-5.078,0-8.984-1.65-11.699-4.951c-2.715-3.311-4.082-8.047-4.082-14.238V3.371h-9.023v54.688h9.023v-8.506
							c1.895,3.32,4.355,5.791,7.383,7.393c3.027,1.611,6.719,2.422,11.045,2.422c0.615,0,1.299-0.039,2.041-0.127
							c0.762-0.068,1.582-0.195,2.49-0.352L1011.799,49.67z"/>
					</g>
					<g>
						<path id="DejaVuSans-6f_1_" d="M1042.385,51.76c-4.824,0-8.633-1.875-11.426-5.645c-2.803-3.75-4.199-8.906-4.199-15.449
							s1.387-11.699,4.16-15.449c2.793-3.77,6.621-5.645,11.465-5.645c4.785,0,8.574,1.885,11.367,5.654
							c2.803,3.779,4.199,8.936,4.199,15.439c0,6.484-1.396,11.621-4.199,15.41C1050.959,49.865,1047.17,51.76,1042.385,51.76z
							 M1042.385,59.367c7.812,0,13.945-2.539,18.398-7.627c4.473-5.068,6.699-12.09,6.699-21.074
							c0-8.945-2.227-15.977-6.699-21.074c-4.453-5.098-10.586-7.646-18.398-7.646c-7.852,0-13.994,2.549-18.438,7.646
							s-6.66,12.129-6.66,21.074c0,8.984,2.217,16.006,6.66,21.074C1028.391,56.828,1034.533,59.367,1042.385,59.367z"/>
					</g>
					<g>
						<path id="DejaVuSans-62" d="M1121.643,30.666c0,6.602-1.367,11.787-4.082,15.547s-6.455,5.645-11.201,5.645
							c-4.756,0-8.506-1.885-11.221-5.645s-4.082-8.945-4.082-15.547s1.367-11.787,4.082-15.547s6.465-5.645,11.221-5.645
							c4.746,0,8.486,1.885,11.201,5.645S1121.643,24.064,1121.643,30.666z M1091.057,49.758c1.895,3.252,4.287,5.664,7.158,7.236
							c2.881,1.582,6.328,2.373,10.332,2.373c6.65,0,12.041-2.627,16.182-7.9c4.16-5.273,6.24-12.207,6.24-20.801
							s-2.08-15.527-6.24-20.811c-4.141-5.273-9.531-7.91-16.182-7.91c-4.004,0-7.451,0.791-10.332,2.373
							c-2.871,1.582-5.264,4.004-7.158,7.256V3.371h-9.023v75.986h9.023V49.758z"/>
					</g>
					<g>
						<path id="DejaVuSans-6c" d="M1145.852,79.357h8.984V3.371h-8.984V79.357z"/>
					</g>
					<g>
						<path id="DejaVuSans-65" d="M1220.412,32.961v-4.385h-41.309c0.391-6.191,2.266-10.898,5.586-14.141
							c3.34-3.242,7.988-4.863,13.945-4.863c3.447,0,6.797,0.42,10.029,1.27c3.232,0.84,6.455,2.109,9.658,3.809V6.154
							c-3.232-1.367-6.543-2.412-9.922-3.125c-3.389-0.723-6.816-1.084-10.293-1.084c-8.73,0-15.645,2.539-20.742,7.607
							c-5.098,5.088-7.637,11.963-7.637,20.625c0,8.945,2.422,16.055,7.246,21.299c4.834,5.264,11.357,7.891,19.57,7.891
							c7.344,0,13.164-2.373,17.441-7.109C1218.274,47.531,1220.412,41.095,1220.412,32.961z M1211.428,35.607
							c-0.059,4.902-1.436,8.818-4.121,11.748c-2.695,2.939-6.25,4.404-10.674,4.404c-5.01,0-9.014-1.416-12.031-4.248
							c-3.018-2.842-4.746-6.826-5.205-11.973L1211.428,35.607z"/>
					</g>
					<g>
						<path id="DejaVuSans-6d" d="M1277.736,47.56c2.246,4.043,4.941,7.012,8.066,8.936c3.125,1.914,6.797,2.871,11.025,2.871
							c5.693,0,10.088-1.992,13.193-5.986c3.086-3.975,4.629-9.648,4.629-16.992V3.371h-9.023v32.715
							c0,5.244-0.938,9.131-2.793,11.66c-1.855,2.539-4.688,3.809-8.496,3.809c-4.648,0-8.34-1.543-11.035-4.639
							c-2.705-3.086-4.053-7.295-4.053-12.637V3.371h-9.033v32.715c0,5.273-0.918,9.17-2.773,11.689s-4.727,3.779-8.594,3.779
							c-4.6,0-8.252-1.553-10.957-4.658c-2.695-3.105-4.043-7.305-4.043-12.617V3.371h-9.043v54.688h9.043v-8.506
							c2.051,3.359,4.512,5.83,7.363,7.422c2.871,1.602,6.27,2.393,10.215,2.393c3.975,0,7.354-1.006,10.137-3.027
							C1274.338,54.328,1276.408,51.398,1277.736,47.56z"/>
					</g>
					<g>
						<path id="DejaVuSans-73_1_" d="M1367.424,56.447v-8.496c-2.529,1.299-5.156,2.266-7.9,2.92
							c-2.725,0.654-5.566,0.986-8.506,0.986c-4.453,0-7.793-0.684-10.029-2.051c-2.227-1.367-3.34-3.418-3.34-6.152
							c0-2.09,0.791-3.721,2.393-4.912c1.592-1.182,4.805-2.314,9.619-3.389l3.076-0.684c6.377-1.367,10.908-3.301,13.594-5.781
							c2.695-2.5,4.033-5.967,4.033-10.43c0-5.078-2.002-9.102-6.025-12.07s-9.551-4.443-16.582-4.443
							c-2.93,0-5.977,0.283-9.16,0.859c-3.174,0.576-6.523,1.436-10.029,2.568v9.277c3.33-1.729,6.592-3.027,9.814-3.887
							s6.406-1.289,9.58-1.289c4.229,0,7.471,0.723,9.746,2.178c2.285,1.445,3.428,3.486,3.428,6.123
							c0,2.441-0.82,4.307-2.471,5.605c-1.631,1.309-5.244,2.559-10.811,3.77l-3.125,0.732c-5.566,1.162-9.59,2.959-12.07,5.391
							c-2.461,2.432-3.701,5.752-3.701,9.99c0,5.137,1.826,9.111,5.469,11.904c3.643,2.803,8.818,4.199,15.537,4.199
							c3.311,0,6.426-0.244,9.355-0.732C1362.258,58.156,1364.963,57.424,1367.424,56.447z"/>
					</g>
					<g>
						<path id="DejaVuSans-20_2_" d="M1375.246,3.371"/>
					</g>
					<g>
						<path id="DejaVuSans-69_1_" d="M1416.457,58.058h8.984V3.371h-8.984V58.058z M1416.457,79.357h8.984V67.961h-8.984V79.357z"/>
					</g>
					<g>
						<path id="DejaVuSans-6e_1_" d="M1489.709,36.388V3.371h-8.984v32.715c0,5.186-1.016,9.053-3.027,11.611
							c-2.031,2.578-5.059,3.857-9.082,3.857c-4.863,0-8.691-1.543-11.484-4.639c-2.803-3.086-4.199-7.295-4.199-12.637V3.371
							h-9.043v54.688h9.043v-8.506c2.148,3.301,4.688,5.752,7.588,7.383c2.92,1.621,6.279,2.432,10.088,2.432
							c6.289,0,11.035-1.943,14.258-5.83S1489.709,43.937,1489.709,36.388z"/>
					</g>
					<g>
						<path id="DejaVuSans-20_3_" d="M1498.195,3.371"/>
					</g>
					<g>
						<path id="DejaVuSans-25" d="M1602.688,35.451c-2.842,0-5.059-1.211-6.67-3.613c-1.602-2.402-2.412-5.762-2.412-10.059
							c0-4.238,0.811-7.559,2.412-9.99c1.611-2.432,3.828-3.643,6.67-3.643c2.764,0,4.951,1.211,6.562,3.643s2.422,5.752,2.422,9.99
							c0,4.268-0.811,7.617-2.422,10.029C1607.639,34.24,1605.451,35.451,1602.688,35.451z M1602.688,41.652
							c5.146,0,9.229-1.787,12.246-5.381c3.037-3.574,4.551-8.398,4.551-14.492s-1.523-10.918-4.561-14.492
							c-3.047-3.555-7.129-5.342-12.236-5.342c-5.205,0-9.326,1.787-12.363,5.342c-3.018,3.574-4.531,8.398-4.531,14.492
							c0,6.123,1.523,10.967,4.561,14.531C1593.401,39.865,1597.502,41.652,1602.688,41.652z M1552.297,71.388
							c-2.803,0-5.01-1.211-6.631-3.643c-1.602-2.412-2.402-5.752-2.402-9.99c0-4.287,0.801-7.637,2.393-10.059
							c1.592-2.402,3.799-3.613,6.641-3.613c2.832,0,5.049,1.211,6.65,3.613c1.621,2.422,2.422,5.771,2.422,10.059
							c0,4.199-0.811,7.52-2.432,9.961C1557.307,70.158,1555.1,71.388,1552.297,71.388z M1596.389,77.59h7.812l-45.605-75.645
							h-7.812L1596.389,77.59z M1552.297,77.59c5.146,0,9.248-1.787,12.295-5.342c3.066-3.564,4.59-8.398,4.59-14.492
							c0-6.143-1.523-10.996-4.561-14.541c-3.037-3.555-7.148-5.332-12.324-5.332c-5.186,0-9.268,1.787-12.285,5.342
							c-3.008,3.574-4.512,8.418-4.512,14.531c0,6.064,1.514,10.879,4.531,14.453C1543.059,75.802,1547.151,77.59,1552.297,77.59z"
							/>
					</g>
				</g>
			</g>
		</g>
		<g id="matplotlib.axis_2">
			<g id="ytick_1">
				<g id="text_6">
					<g transform="translate(16.975 237.679219)scale(0.1 -0.1)">
						<g>
							<path id="DejaVuSans-4d" d="M347.653,76.275h14.707l18.594-49.609l18.701,49.609h14.702V3.364h-9.624v64.023l-18.799-50
								h-9.902l-18.799,50V3.364h-9.58V76.275z"/>
						</g>
						<g>
							<path id="DejaVuSans-61_1_" d="M458.405,30.855c-7.261,0-12.295-0.83-15.098-2.49c-2.798-1.65-4.199-4.482-4.199-8.496
								c0-3.184,1.05-5.723,3.154-7.598c2.104-1.855,4.956-2.793,8.564-2.793c4.985,0,8.989,1.768,11.997,5.293
								c3.013,3.535,4.517,8.223,4.517,14.082v2.002H458.405z M476.324,34.575V3.364h-8.984v8.301
								c-2.051-3.311-4.609-5.762-7.671-7.344s-6.807-2.373-11.235-2.373c-5.596,0-10.049,1.572-13.359,4.717
								c-3.301,3.145-4.951,7.354-4.951,12.627c0,6.143,2.056,10.781,6.172,13.906c4.121,3.125,10.269,4.688,18.438,4.688h12.607
								v0.889c0,4.141-1.357,7.334-4.077,9.59c-2.72,2.266-6.538,3.398-11.455,3.398c-3.125,0-6.172-0.371-9.141-1.133
								c-2.959-0.742-5.801-1.875-8.53-3.369v8.311c3.281,1.27,6.47,2.227,9.561,2.852c3.096,0.625,6.108,0.947,9.033,0.947
								c7.915,0,13.828-2.051,17.734-6.162C474.371,49.126,476.324,42.905,476.324,34.575z"/>
						</g>
						<g>
							<path id="DejaVuSans-69_2_" d="M494.821,58.052h8.984V3.364h-8.984V58.052z M494.821,79.361h8.984V67.964h-8.984V79.361z"/>
						</g>
						<g>
							<path id="DejaVuSans-6e_2_" d="M568.073,36.392V3.364h-8.984v32.725c0,5.176-1.011,9.053-3.027,11.611
								c-2.021,2.568-5.049,3.857-9.082,3.857c-4.854,0-8.682-1.553-11.484-4.639c-2.798-3.086-4.199-7.305-4.199-12.637V3.364
								h-9.033v54.688h9.033v-8.496c2.153,3.291,4.692,5.752,7.598,7.383c2.91,1.621,6.274,2.432,10.093,2.432
								c6.274,0,11.03-1.943,14.248-5.83C566.461,49.654,568.073,43.931,568.073,36.392z"/>
						</g>
						<g>
							<path id="DejaVuSans-65_1_" d="M632.765,32.964v-4.385h-41.313c0.396-6.191,2.261-10.908,5.596-14.141
								c3.335-3.242,7.979-4.863,13.936-4.863c3.452,0,6.792,0.42,10.034,1.27c3.237,0.84,6.455,2.109,9.653,3.809V6.157
								c-3.228-1.367-6.533-2.412-9.922-3.125c-3.384-0.723-6.816-1.084-10.293-1.084c-8.73,0-15.645,2.529-20.737,7.607
								s-7.642,11.953-7.642,20.625c0,8.945,2.417,16.055,7.251,21.299c4.834,5.264,11.357,7.891,19.565,7.891
								c7.354,0,13.169-2.373,17.451-7.109S632.765,41.099,632.765,32.964z M623.781,35.611c-0.063,4.902-1.436,8.818-4.126,11.738
								c-2.686,2.949-6.245,4.414-10.669,4.414c-5.01,0-9.023-1.426-12.031-4.258c-3.013-2.832-4.746-6.816-5.205-11.963
								L623.781,35.611z"/>
						</g>
					</g>
				</g>
			</g>
			<g id="ytick_2">
				<g id="text_7">
					<g transform="translate(3.790625 201.439219)scale(0.1 -0.1)">
						<g>
							<path id="DejaVuSans-56" d="M366.449,3.367l-27.827,72.91h10.298L372.03,14.9l23.14,61.377h10.249l-27.778-72.91H366.449z"/>
						</g>
						<g>
							<path id="DejaVuSans-65_2_" d="M462.343,32.957v-4.385h-41.313c0.396-6.182,2.261-10.898,5.596-14.141
								c3.335-3.232,7.979-4.854,13.936-4.854c3.447,0,6.792,0.41,10.034,1.26c3.237,0.85,6.455,2.119,9.653,3.818V6.15
								c-3.228-1.357-6.533-2.412-9.922-3.125c-3.384-0.713-6.816-1.084-10.293-1.084c-8.73,0-15.645,2.539-20.737,7.617
								s-7.642,11.953-7.642,20.625c0,8.945,2.417,16.045,7.251,21.289c4.834,5.273,11.353,7.891,19.565,7.891
								c7.354,0,13.169-2.363,17.451-7.109C460.204,47.527,462.343,41.101,462.343,32.957z M453.359,35.603
								c-0.063,4.912-1.436,8.818-4.126,11.748c-2.686,2.939-6.245,4.414-10.669,4.414c-5.01,0-9.023-1.426-12.031-4.258
								c-3.013-2.832-4.746-6.816-5.205-11.973L453.359,35.603z"/>
						</g>
						<g>
							<path id="DejaVuSans-72_1_" d="M508.774,49.666c-1.011,0.586-2.109,1.006-3.296,1.279c-1.187,0.283-2.495,0.43-3.921,0.43
								c-5.083,0-8.984-1.66-11.704-4.961s-4.077-8.047-4.077-14.238V3.367h-9.033v54.687h9.033v-8.496
								c1.895,3.32,4.351,5.781,7.373,7.383c3.032,1.621,6.714,2.422,11.045,2.422c0.615,0,1.299-0.039,2.051-0.117
								c0.747-0.078,1.577-0.195,2.48-0.361L508.774,49.666z"/>
						</g>
						<g>
							<path id="DejaVuSans-6d_1_" d="M560.761,47.556c2.251,4.043,4.937,7.021,8.062,8.936s6.802,2.871,11.035,2.871
								c5.698,0,10.093-1.992,13.184-5.977c3.096-3.984,4.644-9.648,4.644-17.002V3.367h-9.033v32.715
								c0,5.244-0.933,9.131-2.798,11.66c-1.851,2.539-4.683,3.809-8.481,3.809c-4.658,0-8.34-1.543-11.05-4.629
								c-2.695-3.086-4.043-7.305-4.043-12.646V3.367h-9.033v32.715c0,5.273-0.928,9.18-2.783,11.699
								c-1.851,2.52-4.717,3.77-8.594,3.77c-4.59,0-8.242-1.543-10.952-4.648c-2.695-3.105-4.048-7.314-4.048-12.627V3.367h-9.028
								v54.687h9.028v-8.496c2.056,3.359,4.512,5.82,7.378,7.422c2.861,1.592,6.265,2.383,10.2,2.383
								c3.979,0,7.363-1.006,10.142-3.027C557.372,54.324,559.428,51.394,560.761,47.556z"/>
						</g>
						<g>
							<path id="DejaVuSans-6f_2_" d="M636.781,51.765c-4.81,0-8.618-1.885-11.421-5.645s-4.204-8.906-4.204-15.449
								c0-6.543,1.392-11.699,4.175-15.459c2.793-3.76,6.606-5.635,11.45-5.635c4.795,0,8.584,1.875,11.377,5.645
								c2.803,3.789,4.204,8.936,4.204,15.449c0,6.475-1.401,11.611-4.204,15.4C645.365,49.871,641.576,51.765,636.781,51.765z
								 M636.781,59.363c7.812,0,13.95-2.539,18.408-7.617c4.468-5.078,6.704-12.1,6.704-21.074c0-8.955-2.236-15.977-6.704-21.084
								c-4.458-5.088-10.596-7.646-18.408-7.646c-7.842,0-13.989,2.559-18.438,7.646c-4.434,5.107-6.655,12.129-6.655,21.084
								c0,8.975,2.222,15.996,6.655,21.074C622.792,56.824,628.94,59.363,636.781,59.363z"/>
						</g>
						<g>
							<path id="DejaVuSans-6e_3_" d="M722.245,36.384V3.367h-8.984v32.715c0,5.186-1.011,9.053-3.032,11.621
								c-2.017,2.568-5.044,3.848-9.077,3.848c-4.854,0-8.682-1.543-11.484-4.629s-4.204-7.305-4.204-12.646V3.367h-9.028v54.687
								h9.028v-8.496c2.158,3.291,4.688,5.742,7.598,7.373c2.915,1.631,6.279,2.432,10.093,2.432c6.279,0,11.03-1.934,14.248-5.82
								C720.634,49.656,722.245,43.933,722.245,36.384z"/>
						</g>
						<g>
							<path id="DejaVuSans-74_1_" d="M749.047,73.582V58.054h18.501v-6.982h-18.501V21.384c0-4.463,0.61-7.324,1.826-8.594
								c1.221-1.27,3.706-1.904,7.456-1.904h9.219v-7.52h-9.219c-6.938,0-11.724,1.289-14.36,3.877s-3.955,7.314-3.955,14.141
								v29.687h-6.592v6.982h6.592v15.527H749.047L749.047,73.582z"/>
						</g>
					</g>
				</g>
			</g>
			<g id="ytick_3">
				<g id="text_8">
					<g transform="translate(-32.314063 165.199219)scale(0.1 -0.1)">
						<g>
							<path id="DejaVuSans-4e" d="M347.652,76.279h13.281l32.329-60.986v60.986h9.565V3.369h-13.281l-32.314,60.986V3.369h-9.58
								V76.279z"/>
						</g>
						<g>
							<path id="DejaVuSans-65_3_" d="M468.849,32.959v-4.385h-41.313c0.396-6.191,2.261-10.908,5.596-14.141
								c3.335-3.242,7.979-4.863,13.936-4.863c3.452,0,6.792,0.42,10.034,1.27c3.237,0.84,6.455,2.119,9.653,3.809V6.152
								c-3.228-1.367-6.533-2.412-9.922-3.125c-3.384-0.723-6.816-1.084-10.293-1.084c-8.73,0-15.645,2.539-20.737,7.617
								s-7.642,11.953-7.642,20.625c0,8.945,2.417,16.045,7.251,21.289c4.834,5.264,11.357,7.891,19.565,7.891
								c7.354,0,13.169-2.363,17.451-7.109C466.71,47.529,468.849,41.104,468.849,32.959z M459.864,35.605
								c-0.063,4.902-1.436,8.818-4.126,11.748c-2.686,2.939-6.245,4.404-10.669,4.404c-5.01,0-9.023-1.416-12.031-4.248
								c-3.013-2.832-4.746-6.816-5.205-11.973L459.864,35.605z"/>
						</g>
						<g>
							<path id="DejaVuSans-77_1_" d="M478.375,58.057h8.984l11.23-42.676l11.172,42.676h10.596l11.235-42.676l11.187,42.676h8.984
								L537.452,3.369h-10.596l-11.763,44.824L503.277,3.369h-10.605L478.375,58.057z"/>
						</g>
						<g>
							<path id="DejaVuSans-20_4_" d="M555.958,3.369"/>
						</g>
						<g>
							<path id="DejaVuSans-48" d="M597.555,76.279h9.863V46.387h35.84v29.893h9.863V3.369h-9.863v34.717h-35.84V3.369h-9.863
								V76.279z"/>
						</g>
						<g>
							<path id="DejaVuSans-61_2_" d="M697.223,30.85c-7.261,0-12.295-0.82-15.098-2.48c-2.798-1.66-4.199-4.492-4.199-8.496
								c0-3.193,1.05-5.723,3.154-7.598c2.104-1.865,4.956-2.793,8.564-2.793c4.985,0,8.989,1.758,11.997,5.293
								c3.013,3.535,4.517,8.223,4.517,14.082v1.992H697.223z M715.143,34.57V3.369h-8.984v8.301
								c-2.051-3.32-4.609-5.762-7.671-7.344s-6.807-2.383-11.235-2.383c-5.596,0-10.049,1.582-13.359,4.727
								c-3.301,3.145-4.951,7.344-4.951,12.617c0,6.152,2.056,10.781,6.172,13.906c4.121,3.125,10.269,4.688,18.438,4.688h12.607
								v0.898c0,4.131-1.357,7.324-4.077,9.59s-6.538,3.389-11.455,3.389c-3.125,0-6.172-0.371-9.141-1.123
								c-2.959-0.752-5.801-1.875-8.53-3.379v8.32c3.281,1.27,6.47,2.217,9.561,2.842c3.101,0.635,6.108,0.947,9.033,0.947
								c7.915,0,13.828-2.051,17.734-6.152C713.189,49.121,715.143,42.9,715.143,34.57z"/>
						</g>
						<g>
							<path id="DejaVuSans-6d_2_" d="M776.217,47.559c2.251,4.033,4.941,7.021,8.066,8.936s6.802,2.871,11.03,2.871
								c5.698,0,10.093-1.992,13.188-5.977c3.091-3.984,4.639-9.648,4.639-17.002V3.369h-9.033v32.715
								c0,5.244-0.933,9.131-2.793,11.66c-1.855,2.539-4.683,3.809-8.486,3.809c-4.658,0-8.34-1.543-11.045-4.639
								c-2.7-3.076-4.048-7.295-4.048-12.637V3.369h-9.033v32.715c0,5.273-0.928,9.17-2.778,11.689
								c-1.855,2.529-4.722,3.779-8.594,3.779c-4.595,0-8.247-1.543-10.957-4.648c-2.695-3.105-4.043-7.314-4.043-12.627V3.369
								h-9.033v54.688h9.033v-8.496c2.051,3.35,4.507,5.82,7.373,7.422c2.866,1.592,6.265,2.383,10.205,2.383
								c3.979,0,7.358-1.006,10.137-3.027C772.828,54.326,774.884,51.396,776.217,47.559z"/>
						</g>
						<g>
							<path id="DejaVuSans-70_1_" d="M839.742,11.572v-29.004h-9.033v75.488h9.033v-8.301c1.895,3.252,4.277,5.664,7.153,7.236
								c2.886,1.592,6.328,2.373,10.327,2.373c6.646,0,12.046-2.637,16.191-7.9c4.155-5.273,6.23-12.207,6.23-20.801
								s-2.075-15.527-6.23-20.811c-4.146-5.273-9.546-7.91-16.191-7.91c-3.999,0-7.441,0.801-10.327,2.383
								C844.02,5.908,841.637,8.32,839.742,11.572z M870.318,30.664c0,6.611-1.357,11.787-4.077,15.547s-6.455,5.645-11.206,5.645
								c-4.761,0-8.496-1.885-11.216-5.645s-4.077-8.936-4.077-15.547c0-6.602,1.357-11.787,4.077-15.547s6.455-5.635,11.216-5.635
								c4.751,0,8.486,1.875,11.206,5.635S870.318,24.062,870.318,30.664z"/>
						</g>
						<g>
							<path id="DejaVuSans-73_2_" d="M929.391,56.445v-8.496c-2.534,1.299-5.171,2.275-7.91,2.92
								c-2.729,0.654-5.562,0.986-8.496,0.986c-4.458,0-7.803-0.684-10.034-2.051c-2.227-1.357-3.345-3.408-3.345-6.152
								c0-2.08,0.801-3.721,2.393-4.912c1.592-1.182,4.8-2.314,9.624-3.389l3.081-0.684c6.372-1.367,10.903-3.291,13.594-5.781
								c2.686-2.49,4.028-5.967,4.028-10.42c0-5.088-2.012-9.111-6.03-12.08c-4.019-2.959-9.546-4.443-16.577-4.443
								c-2.93,0-5.981,0.293-9.155,0.859c-3.179,0.576-6.523,1.426-10.034,2.568v9.277c3.325-1.729,6.597-3.018,9.814-3.887
								c3.218-0.85,6.411-1.279,9.575-1.279c4.233,0,7.48,0.723,9.751,2.168c2.28,1.445,3.423,3.496,3.423,6.123
								c0,2.441-0.825,4.307-2.471,5.615c-1.636,1.299-5.239,2.559-10.811,3.76l-3.125,0.732c-5.562,1.172-9.585,2.969-12.061,5.391
								c-2.471,2.432-3.706,5.762-3.706,9.99c0,5.146,1.826,9.111,5.469,11.904c3.647,2.803,8.823,4.199,15.532,4.199
								c3.311,0,6.431-0.234,9.36-0.732C924.215,58.154,926.92,57.432,929.391,56.445z"/>
						</g>
						<g>
							<path id="DejaVuSans-68_1_" d="M992.096,36.387V3.369h-8.984v32.715c0,5.176-1.011,9.053-3.027,11.611
								c-2.021,2.568-5.049,3.857-9.082,3.857c-4.854,0-8.682-1.543-11.484-4.639c-2.798-3.076-4.199-7.295-4.199-12.637V3.369
								h-9.033v75.986h9.033V49.561c2.153,3.281,4.688,5.742,7.593,7.373c2.915,1.621,6.279,2.432,10.093,2.432
								c6.279,0,11.03-1.934,14.248-5.82C990.484,49.658,992.096,43.936,992.096,36.387z"/>
						</g>
						<g>
							<path id="DejaVuSans-69_3_" d="M1010.006,58.057h8.984V3.369h-8.984V58.057z M1010.006,79.355h8.984V67.959h-8.984V79.355z"
								/>
						</g>
						<g>
							<path id="DejaVuSans-72_2_" d="M1069.479,49.668c-1.011,0.576-2.109,1.006-3.296,1.279c-1.187,0.283-2.495,0.42-3.921,0.42
								c-5.083,0-8.984-1.65-11.704-4.951s-4.077-8.047-4.077-14.238V3.369h-9.033v54.688h9.033v-8.496
								c1.895,3.32,4.351,5.781,7.373,7.383c3.032,1.621,6.714,2.422,11.045,2.422c0.615,0,1.299-0.039,2.051-0.117
								c0.747-0.078,1.577-0.195,2.48-0.361L1069.479,49.668z"/>
						</g>
						<g>
							<path id="DejaVuSans-65_4_" d="M1125.655,32.959v-4.385h-41.313c0.396-6.191,2.261-10.908,5.596-14.141
								c3.33-3.242,7.979-4.863,13.936-4.863c3.447,0,6.792,0.42,10.029,1.27c3.242,0.84,6.46,2.119,9.658,3.809V6.152
								c-3.228-1.367-6.538-2.412-9.922-3.125c-3.384-0.723-6.816-1.084-10.298-1.084c-8.73,0-15.64,2.539-20.732,7.617
								s-7.642,11.953-7.642,20.625c0,8.945,2.417,16.045,7.251,21.289c4.834,5.264,11.353,7.891,19.561,7.891
								c7.354,0,13.174-2.363,17.456-7.109C1123.512,47.529,1125.655,41.104,1125.655,32.959z M1116.671,35.605
								c-0.063,4.902-1.44,8.818-4.126,11.748c-2.686,2.939-6.245,4.404-10.674,4.404c-5.01,0-9.019-1.416-12.031-4.248
								c-3.008-2.832-4.741-6.816-5.2-11.973L1116.671,35.605z"/>
						</g>
					</g>
				</g>
			</g>
			<g id="ytick_4">
				<g id="text_9">
					<g transform="translate(2.907812 128.959219)scale(0.1 -0.1)">
						<g>
							<path id="DejaVuSans-41" d="M372.03,66.555l-13.394-36.279h26.816L372.03,66.555z M366.449,76.277h11.191l27.778-72.905
								H395.17l-6.641,18.701h-32.861l-6.641-18.701h-10.405L366.449,76.277z"/>
						</g>
						<g>
							<path id="DejaVuSans-6c_1_" d="M415.673,79.353h8.984V3.371h-8.984V79.353z"/>
						</g>
						<g>
							<path id="DejaVuSans-61_3_" d="M468.314,30.852c-7.261,0-12.29-0.825-15.093-2.48c-2.803-1.66-4.204-4.492-4.204-8.501
								c0-3.188,1.05-5.718,3.154-7.593c2.104-1.865,4.961-2.798,8.564-2.798c4.99,0,8.989,1.763,12.002,5.298
								c3.008,3.53,4.512,8.223,4.512,14.077v1.997H468.314z M486.234,34.573V3.371h-8.984v8.296
								c-2.051-3.315-4.609-5.762-7.671-7.344c-3.062-1.587-6.807-2.378-11.235-2.378c-5.591,0-10.044,1.572-13.359,4.722
								c-3.301,3.145-4.951,7.354-4.951,12.622c0,6.147,2.056,10.781,6.172,13.906c4.126,3.125,10.269,4.688,18.438,4.688h12.607
								v0.894c0,4.136-1.357,7.334-4.077,9.595c-2.72,2.256-6.533,3.389-11.45,3.389c-3.125,0-6.172-0.376-9.141-1.123
								c-2.959-0.752-5.806-1.875-8.535-3.379v8.315c3.281,1.27,6.47,2.217,9.565,2.842c3.091,0.635,6.104,0.952,9.028,0.952
								c7.92,0,13.828-2.051,17.734-6.152C484.281,49.119,486.234,42.908,486.234,34.573z"/>
						</g>
						<g>
							<path id="DejaVuSans-62_1_" d="M543.998,30.666c0,6.602-1.357,11.787-4.077,15.547s-6.45,5.64-11.201,5.64
								c-4.761,0-8.501-1.88-11.221-5.64s-4.077-8.945-4.077-15.547c0-6.606,1.357-11.787,4.077-15.547s6.46-5.64,11.221-5.64
								c4.751,0,8.481,1.88,11.201,5.64S543.998,24.06,543.998,30.666z M513.422,49.758c1.895,3.252,4.282,5.664,7.158,7.236
								c2.886,1.582,6.328,2.373,10.327,2.373c6.646,0,12.041-2.632,16.187-7.905c4.155-5.269,6.235-12.202,6.235-20.796
								s-2.08-15.532-6.235-20.811c-4.146-5.273-9.541-7.91-16.187-7.91c-3.999,0-7.441,0.791-10.327,2.378
								c-2.876,1.582-5.264,3.999-7.158,7.251V3.371h-9.033v75.981h9.033V49.758z"/>
						</g>
						<g>
							<path id="DejaVuSans-61_4_" d="M593.07,30.852c-7.261,0-12.29-0.825-15.093-2.48c-2.803-1.66-4.204-4.492-4.204-8.501
								c0-3.188,1.05-5.718,3.154-7.593c2.104-1.865,4.961-2.798,8.564-2.798c4.99,0,8.989,1.763,12.002,5.298
								c3.008,3.53,4.512,8.223,4.512,14.077v1.997H593.07z M610.99,34.573V3.371h-8.984v8.296
								c-2.051-3.315-4.609-5.762-7.671-7.344c-3.062-1.587-6.807-2.378-11.235-2.378c-5.591,0-10.044,1.572-13.359,4.722
								c-3.301,3.145-4.951,7.354-4.951,12.622c0,6.147,2.056,10.781,6.172,13.906c4.126,3.125,10.269,4.688,18.438,4.688h12.607
								v0.894c0,4.136-1.357,7.334-4.077,9.595c-2.72,2.256-6.533,3.389-11.45,3.389c-3.125,0-6.172-0.376-9.141-1.123
								c-2.959-0.752-5.806-1.875-8.535-3.379v8.315c3.281,1.27,6.47,2.217,9.565,2.842c3.091,0.635,6.104,0.952,9.028,0.952
								c7.92,0,13.828-2.051,17.734-6.152C609.037,49.119,610.99,42.908,610.99,34.573z"/>
						</g>
						<g>
							<path id="DejaVuSans-6d_3_" d="M672.069,47.556c2.251,4.043,4.937,7.021,8.062,8.94c3.125,1.914,6.802,2.871,11.03,2.871
								c5.698,0,10.093-1.992,13.188-5.981c3.096-3.979,4.639-9.648,4.639-17.002V3.371h-9.028v32.715
								c0,5.239-0.933,9.126-2.798,11.66c-1.855,2.539-4.683,3.809-8.486,3.809c-4.653,0-8.335-1.543-11.045-4.639
								c-2.7-3.086-4.048-7.295-4.048-12.642V3.371h-9.028v32.715c0,5.273-0.928,9.17-2.783,11.689s-4.717,3.779-8.594,3.779
								c-4.595,0-8.247-1.553-10.952-4.653c-2.7-3.105-4.048-7.314-4.048-12.627V3.371h-9.033v54.688h9.033v-8.501
								c2.051,3.354,4.512,5.825,7.373,7.422c2.866,1.592,6.27,2.388,10.205,2.388c3.979,0,7.358-1.011,10.142-3.027
								C668.676,54.328,670.736,51.399,672.069,47.556z"/>
						</g>
						<g>
							<path id="DejaVuSans-61_5_" d="M751.762,30.852c-7.261,0-12.29-0.825-15.093-2.48c-2.803-1.66-4.204-4.492-4.204-8.501
								c0-3.188,1.05-5.718,3.154-7.593c2.104-1.865,4.961-2.798,8.564-2.798c4.99,0,8.989,1.763,12.002,5.298
								c3.008,3.53,4.512,8.223,4.512,14.077v1.997H751.762z M769.682,34.573V3.371h-8.984v8.296
								c-2.051-3.315-4.609-5.762-7.671-7.344c-3.062-1.587-6.807-2.378-11.235-2.378c-5.591,0-10.044,1.572-13.359,4.722
								c-3.301,3.145-4.951,7.354-4.951,12.622c0,6.147,2.056,10.781,6.172,13.906c4.126,3.125,10.269,4.688,18.438,4.688h12.607
								v0.894c0,4.136-1.357,7.334-4.077,9.595c-2.72,2.256-6.533,3.389-11.45,3.389c-3.125,0-6.172-0.376-9.141-1.123
								c-2.959-0.752-5.806-1.875-8.535-3.379v8.315c3.281,1.27,6.47,2.217,9.565,2.842c3.091,0.635,6.104,0.952,9.028,0.952
								c7.92,0,13.828-2.051,17.734-6.152C767.728,49.119,769.682,42.908,769.682,34.573z"/>
						</g>
					</g>
				</g>
			</g>
			<g id="ytick_5">
				<g id="text_10">
					<g transform="translate(8.842188 92.719219)scale(0.1 -0.1)">
						<g>
							<path id="DejaVuSans-4e_1_" d="M347.652,76.274h13.281l32.329-60.981v60.981h9.565V3.369h-13.281l-32.314,60.986V3.369h-9.58
								V76.274z"/>
						</g>
						<g>
							<path id="DejaVuSans-65_5_" d="M468.849,32.964v-4.39h-41.313c0.396-6.191,2.261-10.903,5.596-14.141
								c3.335-3.242,7.979-4.863,13.936-4.863c3.452,0,6.792,0.425,10.034,1.27c3.237,0.84,6.455,2.114,9.653,3.809V6.152
								c-3.228-1.367-6.533-2.407-9.922-3.125c-3.384-0.723-6.816-1.079-10.293-1.079c-8.73,0-15.645,2.534-20.737,7.607
								c-5.093,5.083-7.642,11.958-7.642,20.625c0,8.95,2.417,16.05,7.251,21.299c4.834,5.259,11.357,7.891,19.565,7.891
								c7.354,0,13.169-2.373,17.451-7.109C466.71,47.529,468.849,41.098,468.849,32.964z M459.864,35.605
								c-0.063,4.902-1.436,8.823-4.126,11.748c-2.686,2.939-6.245,4.404-10.669,4.404c-5.01,0-9.023-1.416-12.031-4.248
								c-3.013-2.832-4.746-6.821-5.205-11.968L459.864,35.605z"/>
						</g>
						<g>
							<path id="DejaVuSans-76" d="M477.154,58.056h9.517l17.095-45.889l17.09,45.889h9.517L509.859,3.369h-12.207L477.154,58.056z"
								/>
						</g>
						<g>
							<path id="DejaVuSans-61_6_" d="M567.633,30.854c-7.261,0-12.295-0.83-15.098-2.485c-2.798-1.655-4.199-4.487-4.199-8.501
								c0-3.188,1.05-5.718,3.154-7.593c2.104-1.865,4.956-2.798,8.564-2.798c4.985,0,8.989,1.768,11.997,5.298
								c3.013,3.53,4.517,8.223,4.517,14.077v2.002H567.633z M585.553,34.57V3.369h-8.984v8.296
								c-2.051-3.311-4.609-5.762-7.671-7.344s-6.807-2.373-11.235-2.373c-5.596,0-10.049,1.572-13.359,4.717
								c-3.301,3.145-4.951,7.354-4.951,12.627c0,6.143,2.056,10.781,6.172,13.906c4.121,3.125,10.269,4.688,18.438,4.688h12.607
								v0.889c0,4.136-1.357,7.334-4.077,9.595s-6.538,3.389-11.455,3.389c-3.125,0-6.172-0.371-9.141-1.123
								c-2.959-0.752-5.801-1.875-8.53-3.374v8.311c3.281,1.27,6.47,2.227,9.561,2.852c3.096,0.635,6.108,0.947,9.033,0.947
								c7.915,0,13.828-2.051,17.734-6.152C583.599,49.121,585.553,42.905,585.553,34.57z"/>
						</g>
						<g>
							<path id="DejaVuSans-64" d="M640.035,49.76v29.595h8.984V3.369h-8.984v8.203c-1.885-3.252-4.272-5.669-7.158-7.251
								c-2.871-1.582-6.333-2.373-10.371-2.373c-6.606,0-11.987,2.637-16.143,7.905c-4.146,5.283-6.221,12.217-6.221,20.811
								s2.075,15.527,6.221,20.801c4.155,5.269,9.536,7.905,16.143,7.905c4.038,0,7.5-0.791,10.371-2.378
								C635.763,55.42,638.15,53.008,640.035,49.76z M609.425,30.664c0-6.602,1.362-11.782,4.077-15.547
								c2.72-3.76,6.455-5.64,11.206-5.64s8.486,1.88,11.216,5.64c2.739,3.765,4.111,8.945,4.111,15.547
								c0,6.606-1.372,11.787-4.111,15.547c-2.729,3.765-6.465,5.645-11.216,5.645s-8.486-1.88-11.206-5.645
								C610.787,42.451,609.425,37.27,609.425,30.664z"/>
						</g>
						<g>
							<path id="DejaVuSans-61_7_" d="M692.389,30.854c-7.261,0-12.295-0.83-15.098-2.485c-2.798-1.655-4.199-4.487-4.199-8.501
								c0-3.188,1.05-5.718,3.154-7.593c2.104-1.865,4.956-2.798,8.564-2.798c4.985,0,8.989,1.768,11.997,5.298
								c3.013,3.53,4.517,8.223,4.517,14.077v2.002H692.389z M710.308,34.57V3.369h-8.984v8.296
								c-2.051-3.311-4.609-5.762-7.671-7.344s-6.807-2.373-11.235-2.373c-5.596,0-10.049,1.572-13.359,4.717
								c-3.301,3.145-4.951,7.354-4.951,12.627c0,6.143,2.056,10.781,6.172,13.906c4.121,3.125,10.269,4.688,18.438,4.688h12.607
								v0.889c0,4.136-1.357,7.334-4.077,9.595s-6.538,3.389-11.455,3.389c-3.125,0-6.172-0.371-9.141-1.123
								c-2.959-0.752-5.801-1.875-8.53-3.374v8.311c3.281,1.27,6.47,2.227,9.561,2.852c3.096,0.635,6.108,0.947,9.033,0.947
								c7.915,0,13.828-2.051,17.734-6.152C708.355,49.121,710.308,42.905,710.308,34.57z"/>
						</g>
					</g>
				</g>
			</g>
			<g id="ytick_6">
				<g id="text_11">
					<g transform="translate(-21.021875 56.479219)scale(0.1 -0.1)">
						<g>
							<path id="DejaVuSans-53" d="M391.356,73.884V64.26c-3.74,1.792-7.271,3.125-10.591,3.999
								c-3.325,0.884-6.533,1.328-9.629,1.328c-5.361,0-9.502-1.04-12.422-3.125c-2.915-2.085-4.375-5.049-4.375-8.892
								c0-3.228,0.972-5.664,2.91-7.31c1.934-1.636,5.605-2.959,11.016-3.97l5.952-1.221c7.354-1.406,12.778-3.872,16.279-7.407
								c3.501-3.53,5.249-8.252,5.249-14.17c0-7.07-2.368-12.432-7.109-16.079c-4.727-3.643-11.665-5.469-20.811-5.469
								c-3.447,0-7.119,0.391-11.016,1.172c-3.887,0.781-7.91,1.938-12.08,3.472v10.156c4.004-2.241,7.925-3.936,11.768-5.078
								c3.843-1.138,7.622-1.704,11.328-1.704c5.625,0,9.971,1.104,13.032,3.311c3.062,2.222,4.595,5.381,4.595,9.487
								c0,3.569-1.099,6.367-3.301,8.389c-2.197,2.021-5.801,3.535-10.811,4.546l-6.016,1.172c-7.358,1.46-12.676,3.75-15.967,6.875
								c-3.281,3.125-4.927,7.476-4.927,13.047c0,6.45,2.275,11.528,6.816,15.234c4.541,3.711,10.796,5.562,18.765,5.562
								c3.428,0,6.909-0.312,10.454-0.938C384.018,76.037,387.65,75.115,391.356,73.884z"/>
						</g>
						<g>
							<path id="DejaVuSans-6f_3_" d="M431.928,51.76c-4.814,0-8.618-1.88-11.421-5.64s-4.204-8.911-4.204-15.454
								s1.392-11.694,4.17-15.454c2.793-3.76,6.611-5.64,11.455-5.64c4.79,0,8.584,1.885,11.377,5.654
								c2.798,3.784,4.199,8.931,4.199,15.439c0,6.479-1.401,11.616-4.199,15.405C440.512,49.865,436.718,51.76,431.928,51.76z
								 M431.928,59.367c7.812,0,13.95-2.539,18.408-7.622c4.468-5.073,6.699-12.1,6.699-21.079c0-8.95-2.231-15.977-6.699-21.079
								c-4.458-5.093-10.596-7.642-18.408-7.642c-7.842,0-13.989,2.549-18.438,7.642c-4.438,5.103-6.655,12.129-6.655,21.079
								c0,8.979,2.217,16.006,6.655,21.079C417.938,56.828,424.086,59.367,431.928,59.367z"/>
						</g>
						<g>
							<path id="DejaVuSans-75" d="M471,24.948v33.105h8.984V25.29c0-5.176,1.006-9.062,3.018-11.655
								c2.017-2.583,5.049-3.877,9.092-3.877c4.844,0,8.672,1.548,11.484,4.644c2.822,3.091,4.233,7.31,4.233,12.656v30.996h8.984
								V3.366h-8.984v8.408c-2.178-3.32-4.707-5.791-7.593-7.407c-2.876-1.611-6.221-2.422-10.029-2.422
								c-6.284,0-11.055,1.953-14.316,5.859C472.626,11.711,471,17.424,471,24.948z"/>
						</g>
						<g>
							<path id="DejaVuSans-74_2_" d="M544.193,73.586V58.054h18.496v-6.982h-18.496V21.384c0-4.458,0.605-7.324,1.826-8.594
								s3.701-1.904,7.451-1.904h9.219v-7.52h-9.219c-6.934,0-11.724,1.294-14.355,3.877c-2.637,2.593-3.955,7.31-3.955,14.141
								v29.688h-6.592v6.982h6.592v15.532H544.193z"/>
						</g>
						<g>
							<path id="DejaVuSans-68_2_" d="M619.979,36.384V3.366h-8.984v32.72c0,5.181-1.011,9.048-3.032,11.611
								c-2.021,2.573-5.049,3.857-9.077,3.857c-4.854,0-8.682-1.548-11.484-4.639c-2.803-3.086-4.204-7.3-4.204-12.642V3.366h-9.033
								v75.986h9.033V49.558c2.158,3.291,4.688,5.747,7.593,7.373c2.92,1.626,6.284,2.437,10.093,2.437
								c6.284,0,11.035-1.943,14.253-5.825C618.363,49.656,619.979,43.938,619.979,36.384z"/>
						</g>
						<g>
							<path id="DejaVuSans-20_5_" d="M628.466,3.366"/>
						</g>
						<g>
							<path id="DejaVuSans-44" d="M679.926,68.166V11.477h11.924c10.059,0,17.427,2.275,22.09,6.831
								c4.668,4.561,7.002,11.758,7.002,21.592c0,9.761-2.334,16.914-7.002,21.455c-4.663,4.541-12.031,6.812-22.09,6.812H679.926
								L679.926,68.166z M670.067,76.277h20.264c14.126,0,24.492-2.939,31.094-8.813c6.616-5.874,9.922-15.063,9.922-27.563
								c0-12.573-3.32-21.807-9.966-27.705c-6.636-5.884-16.987-8.828-31.05-8.828h-20.264V76.277z"/>
						</g>
						<g>
							<path id="DejaVuSans-61_8_" d="M771.537,30.852c-7.261,0-12.29-0.825-15.093-2.485c-2.803-1.655-4.204-4.487-4.204-8.496
								c0-3.188,1.05-5.723,3.154-7.598c2.104-1.86,4.961-2.793,8.564-2.793c4.99,0,8.989,1.763,12.002,5.293
								c3.008,3.535,4.512,8.228,4.512,14.082v1.997H771.537z M789.457,34.573V3.366h-8.984v8.301
								c-2.051-3.315-4.609-5.762-7.671-7.344c-3.062-1.587-6.807-2.378-11.235-2.378c-5.591,0-10.044,1.572-13.359,4.722
								c-3.301,3.145-4.951,7.354-4.951,12.622c0,6.147,2.056,10.781,6.172,13.906c4.126,3.125,10.269,4.688,18.438,4.688h12.607
								v0.894c0,4.136-1.357,7.334-4.077,9.59c-2.72,2.261-6.533,3.394-11.45,3.394c-3.125,0-6.172-0.376-9.141-1.128
								c-2.959-0.747-5.806-1.875-8.535-3.374v8.315c3.281,1.27,6.47,2.217,9.565,2.842c3.091,0.635,6.104,0.952,9.028,0.952
								c7.92,0,13.828-2.051,17.734-6.157C787.504,49.118,789.457,42.907,789.457,34.573z"/>
						</g>
						<g>
							<path id="DejaVuSans-6b" d="M807.611,79.353h9.033V34.48l26.812,23.574h11.47l-28.999-25.576l30.234-29.111h-11.719
								l-27.798,26.704V3.366h-9.033V79.353z"/>
						</g>
						<g>
							<path id="DejaVuSans-6f_4_" d="M887.006,51.76c-4.81,0-8.618-1.88-11.421-5.64s-4.204-8.911-4.204-15.454
								s1.392-11.694,4.175-15.454c2.793-3.76,6.606-5.64,11.45-5.64c4.795,0,8.584,1.885,11.377,5.654
								c2.803,3.784,4.204,8.931,4.204,15.439c0,6.479-1.401,11.616-4.204,15.405C895.59,49.865,891.801,51.76,887.006,51.76z
								 M887.006,59.367c7.812,0,13.95-2.539,18.408-7.622c4.468-5.073,6.704-12.1,6.704-21.079c0-8.95-2.236-15.977-6.704-21.079
								c-4.458-5.093-10.596-7.642-18.408-7.642c-7.842,0-13.989,2.549-18.438,7.642c-4.434,5.103-6.655,12.129-6.655,21.079
								c0,8.979,2.222,16.006,6.655,21.079C873.016,56.828,879.164,59.367,887.006,59.367z"/>
						</g>
						<g>
							<path id="DejaVuSans-74_3_" d="M935.892,73.586V58.054h18.501v-6.982h-18.501V21.384c0-4.458,0.61-7.324,1.826-8.594
								c1.221-1.27,3.706-1.904,7.456-1.904h9.219v-7.52h-9.219c-6.938,0-11.724,1.294-14.36,3.877
								c-2.637,2.593-3.955,7.31-3.955,14.141v29.688h-6.592v6.982h6.592v15.532H935.892z"/>
						</g>
						<g>
							<path id="DejaVuSans-61_9_" d="M991.068,30.852c-7.261,0-12.29-0.825-15.093-2.485c-2.803-1.655-4.204-4.487-4.204-8.496
								c0-3.188,1.055-5.723,3.159-7.598c2.104-1.86,4.956-2.793,8.56-2.793c4.99,0,8.989,1.763,12.002,5.293
								c3.013,3.535,4.517,8.228,4.517,14.082v1.997H991.068z M1008.993,34.573V3.366h-8.984v8.301
								c-2.051-3.315-4.609-5.762-7.671-7.344c-3.066-1.587-6.812-2.378-11.235-2.378c-5.596,0-10.049,1.572-13.359,4.722
								c-3.301,3.145-4.956,7.354-4.956,12.622c0,6.147,2.061,10.781,6.172,13.906c4.126,3.125,10.273,4.688,18.438,4.688h12.612
								v0.894c0,4.136-1.362,7.334-4.077,9.59c-2.72,2.261-6.538,3.394-11.455,3.394c-3.125,0-6.172-0.376-9.141-1.128
								c-2.959-0.747-5.801-1.875-8.53-3.374v8.315c3.281,1.27,6.47,2.217,9.561,2.842c3.096,0.635,6.104,0.952,9.033,0.952
								c7.915,0,13.828-2.051,17.734-6.157C1007.04,49.118,1008.993,42.907,1008.993,34.573z"/>
						</g>
					</g>
				</g>
			</g>
		</g>
	</g>
</g>
<rect x="371.5" y="46.122" fill="none" width="66" height="21"/>
<text transform="matrix(1 0 0 1 371.5 54.6416)" fill="#FFFFFF" font-family="'MyriadPro-Regular'" font-size="12">16.5%</text>
<rect x="184.5" y="137.122" fill="none" width="66" height="21"/>
<text transform="matrix(1 0 0 1 184.5 145.6416)" fill="#FFFFFF" font-family="'MyriadPro-Regular'" font-size="12">16.5%</text>
<rect x="190.021" y="228.984" fill="none" width="66" height="21"/>
<text transform="matrix(1 0 0 1 190.0205 237.5039)" fill="#FFF7EC" font-family="'MyriadPro-Regular'" font-size="12">6.7%</text>
<path fill="#5D5D5D" d="M412.979,135.719c3.314-0.657,6.441-2.899,8.1-5.815c0.907-1.623,1.727-4.017,2.087-6.084
	c0.245-1.449,0.303-2.82,0.415-9.135c0.199-11.742,0.63-15.508,2.243-19.7c1.526-3.998,4.021-6.065,7.925-6.587
	c0.951-0.136,1.801-0.349,1.916-0.484c0.114-0.155,0.158-0.425,0.101-0.715c-0.087-0.463-0.158-0.483-1.411-0.617
	c-6.615-0.674-9.439-5.019-10.438-16.084c-0.129-1.43-0.274-5.62-0.348-10.082c-0.116-6.527-0.188-7.879-0.435-9.366
	c-0.969-5.794-4.008-9.848-8.521-11.373c-1.484-0.502-3.617-0.829-4.208-0.617c-0.417,0.135-0.591,0.579-0.39,1.081
	c0.104,0.27,0.391,0.367,1.398,0.482c4.856,0.521,8.172,3.205,9.771,7.877c0.882,2.607,0.953,3.243,1.1,10.756
	c0.204,11.491,0.607,15.779,1.879,19.949c0.98,3.283,2.682,5.869,4.729,7.241c0.663,0.443,1.299,0.81,1.398,0.81
	c0.114,0,0.201,0.097,0.201,0.193c0,0.116-0.087,0.192-0.201,0.192c-0.101,0-0.735,0.368-1.398,0.812
	c-1.396,0.927-3.054,3.014-3.859,4.848c-1.066,2.434-1.813,5.833-2.245,10.274c-0.23,2.376-0.488,10.255-0.501,15.063
	c-0.012,7.029-1.841,11.51-5.704,13.925c-1.425,0.89-2.896,1.392-4.727,1.624c-0.863,0.117-1.628,0.252-1.687,0.309
	c-0.188,0.155-0.157,0.927,0.045,1.198C410.413,135.971,411.682,135.97,412.979,135.719z"/>
<path fill="#5D5D5D" d="M412.703,243.771c3.313-0.656,6.44-2.897,8.099-5.814c0.907-1.622,1.728-4.018,2.087-6.084
	c0.245-1.448,0.304-2.818,0.415-9.135c0.199-11.742,0.63-15.51,2.243-19.699c1.527-3.998,4.021-6.066,7.925-6.588
	c0.951-0.137,1.802-0.35,1.916-0.484c0.114-0.154,0.158-0.425,0.102-0.715c-0.087-0.463-0.159-0.482-1.412-0.617
	c-6.615-0.674-9.439-5.019-10.438-16.084c-0.129-1.43-0.273-5.619-0.348-10.08c-0.116-6.527-0.188-7.88-0.434-9.367
	c-0.97-5.793-4.009-9.848-8.521-11.373c-1.484-0.502-3.617-0.828-4.208-0.616c-0.417,0.136-0.591,0.579-0.389,1.081
	c0.103,0.271,0.39,0.367,1.397,0.482c4.856,0.521,8.172,3.204,9.771,7.877c0.881,2.607,0.953,3.243,1.099,10.756
	c0.204,11.491,0.608,15.779,1.879,19.949c0.981,3.283,2.683,5.869,4.729,7.24c0.663,0.443,1.298,0.811,1.397,0.811
	c0.114,0,0.201,0.099,0.201,0.193c0,0.115-0.087,0.191-0.201,0.191c-0.101,0-0.734,0.369-1.397,0.812
	c-1.396,0.929-3.054,3.015-3.86,4.849c-1.065,2.434-1.812,5.832-2.245,10.273c-0.229,2.376-0.487,10.255-0.501,15.062
	c-0.012,7.029-1.841,11.511-5.704,13.926c-1.425,0.891-2.896,1.393-4.727,1.624c-0.863,0.116-1.627,0.252-1.687,0.31
	c-0.188,0.154-0.156,0.928,0.046,1.197C410.138,244.023,411.406,244.023,412.703,243.771z"/>
<rect x="437.5" y="63.784" fill="none" width="111" height="72.119"/>
<text transform="matrix(1 0 0 1 437.5 72.3047)" fill="#231F20" font-family="'MyriadPro-Regular'" font-size="12">States with the </text>
<text transform="matrix(1 0 0 1 437.5 86.7041)" fill="#231F20" font-family="'MyriadPro-Regular'" font-size="12">highest ratio of </text>
<text transform="matrix(1 0 0 1 437.5 101.1045)" fill="#231F20" font-family="'MyriadPro-Regular'" font-size="12">problem loans</text>
<rect x="437.5" y="172.902" fill="none" width="111" height="72.119"/>
<text transform="matrix(1 0 0 1 437.5 181.4238)" fill="#231F20" font-family="'MyriadPro-Regular'" font-size="12">States with the </text>
<text transform="matrix(1 0 0 1 437.5 195.8232)" fill="#231F20" font-family="'MyriadPro-Regular'" font-size="12">lowest ratio of </text>
<text transform="matrix(1 0 0 1 437.5 210.2226)" fill="#231F20" font-family="'MyriadPro-Regular'" font-size="12">problem loans</text>
</svg>
