<?xml version="1.0" encoding="utf-8"?>
<!-- Generator: Adobe Illustrator 16.0.0, SVG Export Plug-In . SVG Version: 6.00 Build 0)  -->
<!DOCTYPE svg PUBLIC "-//W3C//DTD SVG 1.1//EN" "http://www.w3.org/Graphics/SVG/1.1/DTD/svg11.dtd">
<svg version="1.1" id="Layer_1" xmlns="http://www.w3.org/2000/svg" xmlns:xlink="http://www.w3.org/1999/xlink" x="0px" y="0px"
	 width="432px" height="288px" viewBox="0 0 432 288" enable-background="new 0 0 432 288" xml:space="preserve">
<g id="figure_1">
	<g id="axes_1">
		<g id="patch_3">
			<g>
				<g>
					<g>
						<path fill="#8B0000" d="M54,238.41h226.746v-27.18H54V238.41z"/>
					</g>
				</g>
			</g>
		</g>
		<g id="patch_4">
			<g>
				<g>
					<g>
						<path fill="#8B0000" d="M54,184.05h259.127v-27.18H54V184.05z"/>
					</g>
				</g>
			</g>
		</g>
		<g id="patch_5">
			<g>
				<g>
					<path fill="#8B0000" d="M54,129.69h300.427v-27.18H54V129.69z"/>
				</g>
			</g>
		</g>
		<g id="patch_6">
			<g>
				<g>
					<path fill="#8B0000" d="M54,75.33h318.857V48.15H54V75.33z"/>
				</g>
			</g>
		</g>
		<g id="matplotlib.axis_1">
			<g id="xtick_1">
				<g id="line2d_1">
					<g>
						<g>
							<path id="me2b5cbda2c" stroke="#000000" stroke-width="0.8" stroke-linejoin="round" d="M54,252v3.5"/>
						</g>
					</g>
				</g>
				<g id="text_1">
					<g transform="translate(50.81875 266.598437)scale(0.1 -0.1)">
						<g>
							<path id="DejaVuSans-30" d="M31.783,66.404c-5.073,0-8.892-2.5-11.455-7.5c-2.554-4.99-3.828-12.5-3.828-22.529
								c0-9.99,1.274-17.48,3.828-22.48c2.563-5,6.382-7.5,11.455-7.5c5.112,0,8.945,2.5,11.499,7.5
								c2.563,5,3.843,12.49,3.843,22.48c0,10.029-1.279,17.539-3.843,22.529C40.729,63.904,36.896,66.404,31.783,66.404z
								 M31.783,74.217c8.174,0,14.419-3.232,18.73-9.697c4.316-6.465,6.47-15.84,6.47-28.145c0-12.266-2.153-21.641-6.47-28.105
								c-4.312-6.465-10.557-9.688-18.73-9.688c-8.169,0-14.409,3.223-18.721,9.688s-6.47,15.84-6.47,28.105
								c0,12.305,2.158,21.68,6.47,28.145S23.614,74.217,31.783,74.217z"/>
						</g>
					</g>
				</g>
			</g>
			<g id="xtick_2">
				<g id="line2d_2">
					<g>
						<g>
							<path id="me2b5cbda2c_1_" stroke="#000000" stroke-width="0.8" stroke-linejoin="round" d="M159.056,252v3.5"/>
						</g>
					</g>
				</g>
				<g id="text_2">
					<g transform="translate(155.874655 266.598437)scale(0.1 -0.1)">
						<g>
							<path id="DejaVuSans-35" d="M10.795,72.908h38.721v-8.311H19.828V46.736c1.426,0.488,2.856,0.85,4.282,1.094
								c1.436,0.244,2.876,0.361,4.312,0.361c8.135,0,14.58-2.227,19.326-6.689c4.761-4.463,7.144-10.498,7.144-18.115
								c0-7.842-2.441-13.945-7.329-18.291C42.679,0.75,35.79-1.418,26.908-1.418c-3.066,0-6.182,0.254-9.36,0.781
								c-3.169,0.518-6.445,1.299-9.829,2.344v9.922c2.93-1.602,5.952-2.783,9.077-3.564s6.431-1.172,9.907-1.172
								c5.635,0,10.093,1.475,13.374,4.434c3.291,2.959,4.937,6.982,4.937,12.061s-1.646,9.092-4.937,12.051
								c-3.281,2.969-7.739,4.453-13.374,4.453c-2.637,0-5.264-0.293-7.891-0.879c-2.612-0.586-5.288-1.484-8.018-2.734V72.908
								L10.795,72.908z"/>
						</g>
					</g>
				</g>
			</g>
			<g id="xtick_3">
				<g id="line2d_3">
					<g>
						<g>
							<path id="me2b5cbda2c_2_" stroke="#000000" stroke-width="0.8" stroke-linejoin="round" d="M264.111,252v3.5"/>
						</g>
					</g>
				</g>
				<g id="text_3">
					<g transform="translate(257.749311 266.598437)scale(0.1 -0.1)">
						<g>
							<path id="DejaVuSans-31" d="M12.409,8.299h16.113v55.625l-17.539-3.516v8.984l17.441,3.516h9.863V8.299h16.104v-8.301H12.409
								V8.299z"/>
						</g>
						<g>
							<path id="DejaVuSans-30_1_" d="M95.398,66.404c-5.068,0-8.887-2.5-11.445-7.5c-2.559-4.99-3.828-12.5-3.828-22.529
								c0-9.99,1.27-17.48,3.828-22.48s6.377-7.5,11.445-7.5c5.117,0,8.955,2.5,11.504,7.5c2.559,5,3.848,12.49,3.848,22.48
								c0,10.029-1.289,17.539-3.848,22.529C104.353,63.904,100.515,66.404,95.398,66.404z M95.398,74.217
								c8.184,0,14.434-3.232,18.74-9.697s6.475-15.84,6.475-28.145c0-12.266-2.168-21.641-6.475-28.105s-10.557-9.688-18.74-9.688
								c-8.164,0-14.395,3.223-18.711,9.688s-6.465,15.84-6.465,28.105c0,12.305,2.148,21.68,6.465,28.145
								S87.234,74.217,95.398,74.217z"/>
						</g>
					</g>
				</g>
			</g>
			<g id="xtick_4">
				<g id="line2d_4">
					<g>
						<g>
							<path id="me2b5cbda2c_3_" stroke="#000000" stroke-width="0.8" stroke-linejoin="round" d="M369.168,252v3.5"/>
						</g>
					</g>
				</g>
				<g id="text_4">
					<g transform="translate(362.805216 266.598437)scale(0.1 -0.1)">
						<g>
							<path id="DejaVuSans-31_1_" d="M12.407,8.299h16.113v55.625l-17.539-3.516v8.984l17.441,3.516h9.863V8.299H54.39v-8.301
								H12.407V8.299z"/>
						</g>
						<g>
							<path id="DejaVuSans-35_1_" d="M74.419,72.908h38.721v-8.311H83.452V46.736c1.426,0.488,2.852,0.85,4.277,1.094
								c1.445,0.244,2.881,0.361,4.316,0.361c8.135,0,14.58-2.227,19.326-6.689c4.766-4.463,7.139-10.498,7.139-18.115
								c0-7.842-2.441-13.945-7.324-18.291S99.419-1.418,90.532-1.418c-3.066,0-6.182,0.254-9.365,0.781
								c-3.164,0.518-6.436,1.299-9.824,2.344v9.922c2.93-1.602,5.957-2.783,9.082-3.564s6.426-1.172,9.902-1.172
								c5.635,0,10.098,1.475,13.379,4.434c3.291,2.959,4.932,6.982,4.932,12.061s-1.641,9.092-4.932,12.051
								c-3.281,2.969-7.744,4.453-13.379,4.453c-2.637,0-5.264-0.293-7.891-0.879c-2.617-0.586-5.283-1.484-8.018-2.734V72.908
								L74.419,72.908z"/>
						</g>
					</g>
				</g>
			</g>
			<g id="text_5">
				<g transform="translate(157.04375 280.276563)scale(0.1 -0.1)">
					<g>
						<path id="DejaVuSans-4c" d="M9.812,72.902h9.858V8.293h35.503V0.002H9.812V72.902z"/>
					</g>
					<g>
						<path id="DejaVuSans-6f" d="M86.306,48.39c-4.81,0-8.618-1.875-11.421-5.645c-2.803-3.75-4.204-8.906-4.204-15.449
							s1.392-11.699,4.175-15.449c2.788-3.77,6.606-5.645,11.45-5.645c4.795,0,8.584,1.885,11.377,5.654
							c2.803,3.779,4.204,8.936,4.204,15.439c0,6.484-1.401,11.621-4.204,15.41C94.89,46.496,91.101,48.39,86.306,48.39z
							 M86.306,55.998c7.812,0,13.95-2.539,18.408-7.627c4.468-5.068,6.704-12.09,6.704-21.074c0-8.945-2.236-15.977-6.704-21.074
							c-4.458-5.098-10.596-7.646-18.408-7.646c-7.842,0-13.989,2.549-18.438,7.646c-4.438,5.098-6.655,12.129-6.655,21.074
							c0,8.984,2.217,16.006,6.655,21.074C72.317,53.459,78.464,55.998,86.306,55.998z"/>
					</g>
					<g>
						<path id="DejaVuSans-61" d="M151.16,27.482c-7.261,0-12.29-0.83-15.093-2.48c-2.803-1.66-4.204-4.492-4.204-8.506
							c0-3.184,1.055-5.713,3.159-7.588c2.104-1.865,4.956-2.803,8.56-2.803c4.99,0,8.989,1.768,12.002,5.303
							c3.008,3.525,4.517,8.223,4.517,14.072v2.002H151.16z M169.085,31.203V0.002H160.1v8.291
							c-2.056-3.311-4.609-5.762-7.676-7.344c-3.062-1.582-6.807-2.373-11.23-2.373c-5.596,0-10.049,1.572-13.359,4.717
							c-3.306,3.145-4.956,7.363-4.956,12.627c0,6.143,2.061,10.781,6.172,13.906c4.126,3.125,10.273,4.688,18.438,4.688H160.1
							v0.889c0,4.141-1.362,7.344-4.082,9.6c-2.715,2.256-6.533,3.389-11.45,3.389c-3.125,0-6.172-0.371-9.141-1.123
							c-2.959-0.752-5.801-1.875-8.53-3.379v8.311c3.281,1.27,6.465,2.227,9.561,2.852s6.104,0.947,9.033,0.947
							c7.915,0,13.828-2.051,17.734-6.152C167.131,45.754,169.085,39.543,169.085,31.203z"/>
					</g>
					<g>
						<path id="DejaVuSans-6e" d="M233.049,33.019V0.002h-8.984v32.715c0,5.186-1.011,9.053-3.032,11.611
							c-2.021,2.578-5.044,3.857-9.077,3.857c-4.854,0-8.682-1.543-11.484-4.639c-2.803-3.086-4.204-7.295-4.204-12.637V0.002
							h-9.028v54.688h9.028v-8.506c2.158,3.301,4.688,5.752,7.593,7.383c2.92,1.621,6.284,2.432,10.098,2.432
							c6.279,0,11.03-1.943,14.248-5.83C231.433,46.281,233.049,40.568,233.049,33.019z"/>
					</g>
					<g>
						<path id="DejaVuSans-73" d="M285.818,53.078v-8.496c-2.529,1.299-5.166,2.266-7.905,2.92
							c-2.729,0.654-5.562,0.986-8.501,0.986c-4.458,0-7.803-0.684-10.029-2.051c-2.231-1.367-3.345-3.418-3.345-6.152
							c0-2.09,0.796-3.721,2.393-4.912c1.592-1.182,4.8-2.314,9.624-3.389l3.076-0.684c6.377-1.367,10.908-3.301,13.594-5.781
							c2.69-2.5,4.033-5.967,4.033-10.43c0-5.078-2.012-9.102-6.03-12.07c-4.023-2.969-9.551-4.443-16.582-4.443
							c-2.925,0-5.977,0.283-9.155,0.859c-3.174,0.576-6.519,1.436-10.029,2.568v9.277c3.32-1.729,6.592-3.027,9.81-3.887
							c3.232-0.859,6.411-1.289,9.58-1.289c4.233,0,7.48,0.723,9.751,2.178c2.28,1.445,3.433,3.486,3.433,6.123
							c0,2.441-0.825,4.307-2.48,5.605c-1.636,1.309-5.229,2.559-10.811,3.77l-3.125,0.732c-5.566,1.162-9.585,2.959-12.065,5.391
							c-2.466,2.432-3.701,5.752-3.701,9.99c0,5.137,1.821,9.111,5.479,11.904c3.643,2.803,8.813,4.199,15.522,4.199
							c3.315,0,6.44-0.244,9.355-0.732C280.647,54.787,283.352,54.054,285.818,53.078z"/>
					</g>
					<g>
						<path id="DejaVuSans-20" d="M293.635,0.002"/>
					</g>
					<g>
						<path id="DejaVuSans-77" d="M329.627,54.689h8.984l11.235-42.676l11.172,42.676h10.596l11.23-42.676l11.191,42.676h8.984
							L388.704,0.002h-10.591l-11.768,44.824L354.534,0.002h-10.61L329.627,54.689z"/>
					</g>
					<g>
						<path id="DejaVuSans-69" d="M416.633,54.689h8.984V0.002h-8.984V54.689z M416.633,75.988h8.984V64.592h-8.984V75.988z"/>
					</g>
					<g>
						<path id="DejaVuSans-74" d="M453.308,70.217V54.689h18.501v-6.982h-18.501V18.019c0-4.463,0.61-7.324,1.826-8.594
							c1.221-1.27,3.706-1.914,7.456-1.914h9.219v-7.51h-9.219c-6.938,0-11.724,1.289-14.36,3.877s-3.955,7.305-3.955,14.141v29.688
							h-6.592v6.982h6.592v15.527H453.308L453.308,70.217z"/>
					</g>
					<g>
						<path id="DejaVuSans-68" d="M529.094,33.019V0.002h-8.984v32.715c0,5.186-1.011,9.053-3.032,11.611
							c-2.021,2.578-5.044,3.857-9.077,3.857c-4.854,0-8.682-1.543-11.484-4.639c-2.803-3.086-4.204-7.295-4.204-12.637V0.002
							h-9.028v75.986h9.028V46.183c2.158,3.301,4.688,5.752,7.593,7.383c2.92,1.621,6.284,2.432,10.098,2.432
							c6.279,0,11.03-1.943,14.248-5.83C527.478,46.281,529.094,40.568,529.094,33.019z"/>
					</g>
					<g>
						<path id="DejaVuSans-20_1_" d="M537.581,0.002"/>
					</g>
					<g>
						<path id="DejaVuSans-70" d="M587.478,8.205v-29.004h-9.028v75.488h9.028v-8.301c1.895,3.252,4.282,5.664,7.163,7.236
							c2.881,1.582,6.328,2.373,10.322,2.373c6.65,0,12.041-2.627,16.182-7.9c4.16-5.273,6.24-12.207,6.24-20.801
							s-2.08-15.527-6.24-20.811c-4.141-5.273-9.531-7.91-16.182-7.91c-3.994,0-7.441,0.791-10.322,2.373
							S589.373,4.953,587.478,8.205z M618.059,27.297c0,6.602-1.367,11.787-4.082,15.547s-6.445,5.645-11.201,5.645
							s-8.501-1.885-11.221-5.645c-2.715-3.76-4.077-8.945-4.077-15.547s1.362-11.787,4.077-15.547
							c2.72-3.76,6.465-5.645,11.221-5.645s8.486,1.885,11.201,5.645S618.059,20.695,618.059,27.297z"/>
					</g>
					<g>
						<path id="DejaVuSans-72" d="M673.958,46.301c-1.016,0.586-2.109,1.006-3.301,1.279c-1.191,0.283-2.5,0.42-3.926,0.42
							c-5.078,0-8.984-1.65-11.699-4.951c-2.715-3.311-4.082-8.047-4.082-14.238V0.002h-9.023v54.688h9.023v-8.506
							c1.895,3.32,4.355,5.791,7.383,7.393c3.027,1.611,6.719,2.422,11.045,2.422c0.615,0,1.299-0.039,2.041-0.127
							c0.762-0.068,1.582-0.195,2.49-0.352L673.958,46.301z"/>
					</g>
					<g>
						<path id="DejaVuSans-6f_1_" d="M704.544,48.39c-4.824,0-8.633-1.875-11.426-5.645c-2.803-3.75-4.199-8.906-4.199-15.449
							s1.387-11.699,4.16-15.449c2.793-3.77,6.621-5.645,11.465-5.645c4.785,0,8.574,1.885,11.367,5.654
							c2.803,3.779,4.199,8.936,4.199,15.439c0,6.484-1.396,11.621-4.199,15.41C713.118,46.496,709.329,48.39,704.544,48.39z
							 M704.544,55.998c7.812,0,13.945-2.539,18.398-7.627c4.473-5.068,6.699-12.09,6.699-21.074c0-8.945-2.227-15.977-6.699-21.074
							c-4.453-5.098-10.586-7.646-18.398-7.646c-7.852,0-13.994,2.549-18.438,7.646s-6.66,12.129-6.66,21.074
							c0,8.984,2.217,16.006,6.66,21.074C690.549,53.459,696.692,55.998,704.544,55.998z"/>
					</g>
					<g>
						<path id="DejaVuSans-62" d="M783.801,27.297c0,6.602-1.367,11.787-4.082,15.547s-6.455,5.645-11.201,5.645
							c-4.756,0-8.506-1.885-11.221-5.645s-4.082-8.945-4.082-15.547s1.367-11.787,4.082-15.547s6.465-5.645,11.221-5.645
							c4.746,0,8.486,1.885,11.201,5.645S783.801,20.695,783.801,27.297z M753.215,46.388c1.895,3.252,4.287,5.664,7.158,7.236
							c2.881,1.582,6.328,2.373,10.332,2.373c6.65,0,12.041-2.627,16.182-7.9c4.16-5.273,6.24-12.207,6.24-20.801
							s-2.08-15.527-6.24-20.811c-4.141-5.273-9.531-7.91-16.182-7.91c-4.004,0-7.451,0.791-10.332,2.373
							c-2.871,1.582-5.264,4.004-7.158,7.256V0.002h-9.023v75.986h9.023V46.388z"/>
					</g>
					<g>
						<path id="DejaVuSans-6c" d="M808.01,75.988h8.984V0.002h-8.984V75.988z"/>
					</g>
					<g>
						<path id="DejaVuSans-65" d="M882.571,29.592v-4.385h-41.309c0.391-6.191,2.266-10.898,5.586-14.141
							c3.34-3.242,7.988-4.863,13.945-4.863c3.447,0,6.797,0.42,10.029,1.27c3.232,0.84,6.455,2.109,9.658,3.809V2.785
							c-3.232-1.367-6.543-2.412-9.922-3.125c-3.389-0.723-6.816-1.084-10.293-1.084c-8.73,0-15.645,2.539-20.742,7.607
							c-5.098,5.088-7.637,11.963-7.637,20.625c0,8.945,2.422,16.055,7.246,21.299c4.834,5.264,11.357,7.891,19.57,7.891
							c7.344,0,13.164-2.373,17.441-7.109C880.432,44.162,882.571,37.726,882.571,29.592z M873.586,32.238
							c-0.059,4.902-1.436,8.818-4.121,11.748c-2.695,2.939-6.25,4.404-10.674,4.404c-5.01,0-9.014-1.416-12.031-4.248
							c-3.018-2.842-4.746-6.826-5.205-11.973L873.586,32.238z"/>
					</g>
					<g>
						<path id="DejaVuSans-6d" d="M939.895,44.191c2.246,4.043,4.941,7.012,8.066,8.936c3.125,1.914,6.797,2.871,11.025,2.871
							c5.693,0,10.088-1.992,13.193-5.986c3.086-3.975,4.629-9.648,4.629-16.992V0.002h-9.023v32.715
							c0,5.244-0.938,9.131-2.793,11.66c-1.855,2.539-4.688,3.809-8.496,3.809c-4.648,0-8.34-1.543-11.035-4.639
							c-2.705-3.086-4.053-7.295-4.053-12.637V0.002h-9.033v32.715c0,5.273-0.918,9.17-2.773,11.689s-4.727,3.779-8.594,3.779
							c-4.6,0-8.252-1.553-10.957-4.658c-2.695-3.105-4.043-7.305-4.043-12.617V0.002h-9.043v54.688h9.043v-8.506
							c2.051,3.359,4.512,5.83,7.363,7.422c2.871,1.602,6.27,2.393,10.215,2.393c3.975,0,7.354-1.006,10.137-3.027
							C936.497,50.959,938.567,48.029,939.895,44.191z"/>
					</g>
					<g>
						<path id="DejaVuSans-73_1_" d="M1029.583,53.078v-8.496c-2.529,1.299-5.156,2.266-7.9,2.92
							c-2.725,0.654-5.566,0.986-8.506,0.986c-4.453,0-7.793-0.684-10.029-2.051c-2.227-1.367-3.34-3.418-3.34-6.152
							c0-2.09,0.791-3.721,2.393-4.912c1.592-1.182,4.805-2.314,9.619-3.389l3.076-0.684c6.377-1.367,10.908-3.301,13.594-5.781
							c2.695-2.5,4.033-5.967,4.033-10.43c0-5.078-2.002-9.102-6.025-12.07c-4.023-2.969-9.551-4.443-16.582-4.443
							c-2.93,0-5.977,0.283-9.16,0.859c-3.174,0.576-6.523,1.436-10.029,2.568v9.277c3.33-1.729,6.592-3.027,9.814-3.887
							s6.406-1.289,9.58-1.289c4.229,0,7.471,0.723,9.746,2.178c2.285,1.445,3.428,3.486,3.428,6.123
							c0,2.441-0.82,4.307-2.471,5.605c-1.631,1.309-5.244,2.559-10.81,3.77l-3.125,0.732c-5.566,1.162-9.59,2.959-12.07,5.391
							c-2.461,2.432-3.691,5.752-3.691,9.99c0,5.137,1.816,9.111,5.469,11.904c3.633,2.803,8.809,4.199,15.527,4.199
							c3.31,0,6.426-0.244,9.355-0.732C1024.417,54.787,1027.122,54.054,1029.583,53.078z"/>
					</g>
					<g>
						<path id="DejaVuSans-20_2_" d="M1037.405,0.002"/>
					</g>
					<g>
						<path id="DejaVuSans-69_1_" d="M1078.616,54.689h8.984V0.002h-8.984V54.689z M1078.616,75.988h8.984V64.592h-8.984V75.988z"/>
					</g>
					<g>
						<path id="DejaVuSans-6e_1_" d="M1151.868,33.019V0.002h-8.984v32.715c0,5.186-1.016,9.053-3.027,11.611
							c-2.031,2.578-5.059,3.857-9.082,3.857c-4.863,0-8.691-1.543-11.484-4.639c-2.803-3.086-4.199-7.295-4.199-12.637V0.002
							h-9.043v54.688h9.043v-8.506c2.148,3.301,4.688,5.752,7.588,7.383c2.92,1.621,6.279,2.432,10.088,2.432
							c6.289,0,11.035-1.943,14.258-5.83S1151.868,40.568,1151.868,33.019z"/>
					</g>
					<g>
						<path id="DejaVuSans-20_3_" d="M1160.354,0.002"/>
					</g>
					<g>
						<path id="DejaVuSans-25" d="M1264.846,32.082c-2.842,0-5.059-1.211-6.67-3.613c-1.602-2.402-2.412-5.762-2.412-10.059
							c0-4.238,0.811-7.559,2.412-9.99c1.611-2.432,3.828-3.643,6.67-3.643c2.764,0,4.951,1.211,6.562,3.643s2.422,5.752,2.422,9.99
							c0,4.268-0.811,7.617-2.422,10.029C1269.797,30.871,1267.61,32.082,1264.846,32.082z M1264.846,38.283
							c5.146,0,9.229-1.787,12.246-5.381c3.037-3.574,4.551-8.398,4.551-14.492s-1.523-10.918-4.561-14.492
							c-3.047-3.555-7.129-5.342-12.236-5.342c-5.205,0-9.326,1.787-12.363,5.342c-3.018,3.574-4.531,8.398-4.531,14.492
							c0,6.123,1.523,10.967,4.561,14.531C1255.559,36.496,1259.661,38.283,1264.846,38.283z M1214.456,68.019
							c-2.803,0-5.01-1.211-6.631-3.643c-1.602-2.412-2.402-5.752-2.402-9.99c0-4.287,0.801-7.637,2.393-10.059
							c1.592-2.402,3.799-3.613,6.641-3.613c2.832,0,5.049,1.211,6.65,3.613c1.621,2.422,2.422,5.771,2.422,10.059
							c0,4.199-0.811,7.52-2.432,9.961C1219.465,66.789,1217.258,68.019,1214.456,68.019z M1258.547,74.22h7.812l-45.605-75.645
							h-7.812L1258.547,74.22z M1214.456,74.22c5.146,0,9.248-1.787,12.295-5.342c3.066-3.564,4.59-8.398,4.59-14.492
							c0-6.143-1.523-10.996-4.561-14.541c-3.037-3.555-7.148-5.332-12.324-5.332c-5.186,0-9.268,1.787-12.285,5.342
							c-3.008,3.574-4.512,8.418-4.512,14.531c0,6.064,1.514,10.879,4.531,14.453C1205.217,72.433,1209.309,74.22,1214.456,74.22z"
							/>
					</g>
				</g>
			</g>
		</g>
		<g id="matplotlib.axis_2">
			<g id="ytick_1">
				<g id="text_6">
					<g transform="translate(-50.510938 228.619219)scale(0.1 -0.1)">
						<g>
							<path id="DejaVuSans-4d" d="M9.812,72.911h14.702l18.594-49.609l18.706,49.609h14.702V0.001h-9.624v64.014l-18.799-50h-9.907
								l-18.794,50V0.001h-9.58V72.911z"/>
						</g>
						<g>
							<path id="DejaVuSans-6f_2_" d="M116.887,48.389c-4.81,0-8.618-1.885-11.421-5.635c-2.803-3.77-4.204-8.916-4.204-15.459
								c0-6.533,1.392-11.689,4.175-15.449c2.793-3.76,6.606-5.645,11.45-5.645c4.795,0,8.584,1.885,11.377,5.654
								c2.803,3.789,4.204,8.926,4.204,15.439c0,6.475-1.401,11.611-4.204,15.41C125.471,46.495,121.682,48.389,116.887,48.389z
								 M116.887,55.997c7.812,0,13.95-2.539,18.408-7.617C139.763,43.301,142,36.27,142,27.296c0-8.945-2.236-15.967-6.704-21.074
								c-4.458-5.098-10.596-7.646-18.408-7.646c-7.842,0-13.989,2.549-18.438,7.646c-4.434,5.107-6.655,12.129-6.655,21.074
								c0,8.975,2.222,16.006,6.655,21.084C102.898,53.458,109.046,55.997,116.887,55.997z"/>
						</g>
						<g>
							<path id="DejaVuSans-72_1_" d="M188.572,46.299c-1.011,0.576-2.109,1.006-3.296,1.279c-1.191,0.283-2.495,0.42-3.926,0.42
								c-5.083,0-8.984-1.65-11.699-4.951c-2.72-3.301-4.082-8.047-4.082-14.238V0.001h-9.028v54.688h9.028v-8.496
								c1.899,3.32,4.355,5.781,7.378,7.383c3.032,1.621,6.714,2.422,11.045,2.422c0.615,0,1.299-0.039,2.046-0.117
								c0.752-0.078,1.582-0.195,2.485-0.361L188.572,46.299z"/>
						</g>
						<g>
							<path id="DejaVuSans-65_1_" d="M244.749,29.591v-4.385h-41.313c0.396-6.191,2.261-10.908,5.591-14.141
								c3.335-3.242,7.983-4.863,13.94-4.863c3.447,0,6.792,0.42,10.029,1.27c3.242,0.84,6.46,2.119,9.658,3.809V2.784
								c-3.232-1.367-6.538-2.412-9.922-3.125c-3.389-0.723-6.816-1.084-10.298-1.084c-8.73,0-15.64,2.539-20.732,7.617
								c-5.098,5.078-7.642,11.953-7.642,20.625c0,8.945,2.417,16.045,7.251,21.289c4.829,5.264,11.352,7.891,19.56,7.891
								c7.354,0,13.174-2.363,17.451-7.109C242.605,44.161,244.749,37.735,244.749,29.591z M235.764,32.237
								c-0.063,4.902-1.44,8.818-4.126,11.748c-2.69,2.939-6.245,4.404-10.674,4.404c-5.01,0-9.019-1.416-12.031-4.248
								c-3.008-2.832-4.746-6.816-5.2-11.973L235.764,32.237z"/>
						</g>
						<g>
							<path id="DejaVuSans-20_4_" d="M250.066,0.001"/>
						</g>
						<g>
							<path id="DejaVuSans-74_1_" d="M300.169,70.216V54.688h18.496v-6.982h-18.496V18.018c0-4.463,0.605-7.324,1.826-8.594
								c1.221-1.279,3.701-1.904,7.451-1.904h9.219v-7.52h-9.219c-6.934,0-11.724,1.289-14.355,3.877
								c-2.637,2.588-3.955,7.305-3.955,14.141v29.688h-6.592v6.982h6.592v15.527H300.169L300.169,70.216z"/>
						</g>
						<g>
							<path id="DejaVuSans-68_1_" d="M375.955,33.018V0.001h-8.984v32.715c0,5.176-1.011,9.053-3.032,11.611
								c-2.021,2.568-5.049,3.857-9.077,3.857c-4.854,0-8.682-1.543-11.484-4.639c-2.803-3.076-4.204-7.295-4.204-12.637V0.001
								h-9.033v75.986h9.033V46.192c2.158,3.281,4.692,5.742,7.593,7.373c2.925,1.621,6.284,2.432,10.093,2.432
								c6.284,0,11.035-1.934,14.263-5.82C374.343,46.29,375.955,40.567,375.955,33.018z"/>
						</g>
						<g>
							<path id="DejaVuSans-61_1_" d="M418.723,27.481c-7.261,0-12.29-0.82-15.093-2.48s-4.204-4.492-4.204-8.496
								c0-3.193,1.05-5.723,3.154-7.598c2.104-1.865,4.961-2.793,8.564-2.793c4.99,0,8.989,1.758,12.002,5.293
								c3.008,3.535,4.512,8.223,4.512,14.082v1.992H418.723z M436.643,31.202V0.001h-8.984v8.301
								c-2.051-3.32-4.609-5.762-7.671-7.344s-6.807-2.383-11.235-2.383c-5.591,0-10.044,1.582-13.359,4.727
								c-3.301,3.145-4.951,7.344-4.951,12.617c0,6.152,2.056,10.781,6.172,13.906c4.126,3.125,10.269,4.688,18.438,4.688h12.607
								v0.898c0,4.131-1.357,7.324-4.077,9.59s-6.533,3.389-11.45,3.389c-3.125,0-6.172-0.371-9.141-1.123
								c-2.959-0.752-5.806-1.875-8.535-3.379v8.32c3.281,1.27,6.47,2.217,9.565,2.842c3.091,0.635,6.104,0.947,9.028,0.947
								c7.92,0,13.828-2.051,17.734-6.152C434.69,45.753,436.643,39.532,436.643,31.202z"/>
						</g>
						<g>
							<path id="DejaVuSans-6e_2_" d="M500.613,33.018V0.001h-8.984v32.715c0,5.176-1.011,9.053-3.032,11.611
								c-2.021,2.568-5.049,3.857-9.077,3.857c-4.854,0-8.682-1.543-11.484-4.639c-2.803-3.076-4.204-7.295-4.204-12.637V0.001
								h-9.033v54.688h9.033v-8.496c2.158,3.281,4.688,5.742,7.593,7.373c2.92,1.621,6.284,2.432,10.093,2.432
								c6.284,0,11.035-1.934,14.258-5.82C499.002,46.29,500.613,40.567,500.613,33.018z"/>
						</g>
						<g>
							<path id="DejaVuSans-20_5_" d="M509.099,0.001"/>
						</g>
						<g>
							<path id="DejaVuSans-32" d="M560.076,8.301h34.419V0.001h-46.279v8.301c3.74,3.867,8.838,9.062,15.298,15.586
								c6.47,6.533,10.532,10.742,12.188,12.646c3.154,3.545,5.356,6.533,6.606,8.994c1.265,2.461,1.895,4.883,1.895,7.256
								c0,3.877-1.362,7.031-4.082,9.463c-2.715,2.451-6.26,3.672-10.625,3.672c-3.091,0-6.357-0.527-9.795-1.602
								c-3.428-1.074-7.095-2.705-11.001-4.893v9.971c3.97,1.592,7.676,2.793,11.128,3.604c3.457,0.811,6.616,1.221,9.482,1.221
								c7.554,0,13.574-1.895,18.062-5.674c4.492-3.77,6.733-8.809,6.733-15.127c0-2.998-0.562-5.84-1.685-8.525
								c-1.113-2.686-3.159-5.84-6.128-9.482c-0.811-0.957-3.398-3.682-7.764-8.193C574.172,22.716,568.025,16.407,560.076,8.301z"
								/>
						</g>
						<g>
							<path id="DejaVuSans-30_2_" d="M636.292,66.407c-5.073,0-8.892-2.5-11.455-7.5c-2.549-4.99-3.828-12.5-3.828-22.529
								c0-9.99,1.279-17.49,3.828-22.49c2.563-5,6.382-7.5,11.455-7.5c5.112,0,8.95,2.5,11.499,7.5c2.563,5,3.843,12.5,3.843,22.49
								c0,10.029-1.279,17.539-3.843,22.529C645.242,63.907,641.404,66.407,636.292,66.407z M636.292,74.219
								c8.179,0,14.424-3.232,18.735-9.707c4.312-6.455,6.47-15.84,6.47-28.135c0-12.275-2.158-21.641-6.47-28.115
								c-4.312-6.455-10.557-9.688-18.735-9.688c-8.169,0-14.404,3.232-18.721,9.688c-4.312,6.475-6.465,15.84-6.465,28.115
								c0,12.295,2.153,21.68,6.465,28.135C621.887,70.987,628.123,74.219,636.292,74.219z"/>
						</g>
						<g>
							<path id="DejaVuSans-20_6_" d="M668.132,0.001"/>
						</g>
						<g>
							<path id="DejaVuSans-79" d="M732.092-5.077c-2.529-6.504-5.005-10.762-7.422-12.734c-2.407-1.992-5.625-2.988-9.658-2.988
								h-7.188v7.52h5.283c2.471,0,4.385,0.586,5.752,1.768c1.372,1.162,2.891,3.936,4.546,8.291l1.606,4.102l-22.109,53.809h9.517
								l17.095-42.764l17.095,42.764h9.517L732.092-5.077z"/>
						</g>
						<g>
							<path id="DejaVuSans-65_2_" d="M815.305,29.591v-4.385h-41.313c0.396-6.191,2.261-10.908,5.591-14.141
								c3.335-3.242,7.983-4.863,13.94-4.863c3.447,0,6.792,0.42,10.029,1.27c3.242,0.84,6.46,2.119,9.658,3.809V2.784
								c-3.232-1.367-6.538-2.412-9.922-3.125c-3.389-0.723-6.816-1.084-10.298-1.084c-8.73,0-15.64,2.539-20.732,7.617
								c-5.098,5.078-7.642,11.953-7.642,20.625c0,8.945,2.417,16.045,7.251,21.289c4.829,5.264,11.353,7.891,19.561,7.891
								c7.354,0,13.174-2.363,17.451-7.109C813.162,44.161,815.305,37.735,815.305,29.591z M806.321,32.237
								c-0.063,4.902-1.44,8.818-4.126,11.748c-2.69,2.939-6.245,4.404-10.674,4.404c-5.01,0-9.019-1.416-12.031-4.248
								c-3.008-2.832-4.746-6.816-5.2-11.973L806.321,32.237z"/>
						</g>
						<g>
							<path id="DejaVuSans-61_2_" d="M854.905,27.481c-7.261,0-12.29-0.82-15.093-2.48s-4.204-4.492-4.204-8.496
								c0-3.193,1.05-5.723,3.154-7.598c2.104-1.865,4.961-2.793,8.564-2.793c4.99,0,8.989,1.758,12.002,5.293
								c3.008,3.535,4.512,8.223,4.512,14.082v1.992H854.905z M872.825,31.202V0.001h-8.984v8.301
								c-2.051-3.32-4.609-5.762-7.671-7.344s-6.807-2.383-11.235-2.383c-5.591,0-10.044,1.582-13.359,4.727
								c-3.301,3.145-4.951,7.344-4.951,12.617c0,6.152,2.056,10.781,6.172,13.906c4.126,3.125,10.273,4.688,18.442,4.688h12.603
								v0.898c0,4.131-1.353,7.324-4.077,9.59c-2.72,2.266-6.523,3.389-11.445,3.389c-3.125,0-6.177-0.371-9.146-1.123
								c-2.959-0.752-5.806-1.875-8.535-3.379v8.32c3.281,1.27,6.479,2.217,9.565,2.842c3.091,0.635,6.104,0.947,9.028,0.947
								c7.92,0,13.828-2.051,17.734-6.152C870.872,45.753,872.825,39.532,872.825,31.202z"/>
						</g>
						<g>
							<path id="DejaVuSans-72_2_" d="M923.01,46.299c-1.011,0.576-2.109,1.006-3.296,1.279c-1.187,0.283-2.495,0.42-3.921,0.42
								c-5.083,0-8.984-1.65-11.704-4.951s-4.077-8.047-4.077-14.238V0.001h-9.033v54.688h9.033v-8.496
								c1.895,3.32,4.355,5.781,7.373,7.383c3.032,1.621,6.714,2.422,11.05,2.422c0.615,0,1.294-0.039,2.046-0.117
								s1.577-0.195,2.485-0.361L923.01,46.299z"/>
						</g>
						<g>
							<path id="DejaVuSans-73_2_" d="M967.297,53.077v-8.496c-2.529,1.299-5.166,2.275-7.905,2.92
								c-2.729,0.654-5.562,0.986-8.501,0.986c-4.458,0-7.803-0.684-10.029-2.051c-2.231-1.357-3.345-3.408-3.345-6.152
								c0-2.08,0.796-3.721,2.388-4.912c1.597-1.182,4.805-2.314,9.629-3.389l3.076-0.684c6.377-1.367,10.908-3.291,13.594-5.781
								s4.033-5.967,4.033-10.42c0-5.088-2.012-9.111-6.035-12.08c-4.019-2.959-9.546-4.443-16.577-4.443
								c-2.925,0-5.977,0.293-9.155,0.859c-3.179,0.576-6.519,1.426-10.029,2.568v9.277c3.32-1.729,6.592-3.018,9.81-3.887
								c3.218-0.85,6.411-1.279,9.58-1.279c4.233,0,7.48,0.723,9.751,2.168c2.28,1.445,3.418,3.496,3.418,6.123
								c0,2.441-0.82,4.307-2.466,5.615c-1.636,1.299-5.239,2.559-10.815,3.76l-3.125,0.732c-5.562,1.172-9.58,2.969-12.061,5.391
								c-2.471,2.432-3.701,5.762-3.701,9.99c0,5.146,1.821,9.111,5.469,11.904c3.647,2.803,8.823,4.199,15.527,4.199
								c3.315,0,6.436-0.234,9.36-0.732C962.126,54.786,964.827,54.063,967.297,53.077z"/>
						</g>
					</g>
				</g>
			</g>
			<g id="ytick_2">
				<g id="text_7">
					<g transform="translate(-25.54375 174.259219)scale(0.1 -0.1)">
						<g>
							<path id="DejaVuSans-31_2_" d="M12.406,8.295h16.108V63.92l-17.529-3.516v8.984l17.437,3.516h9.858V8.295h16.113v-8.301
								H12.406V8.295z"/>
						</g>
						<g>
							<path id="DejaVuSans-35_2_" d="M74.422,72.905h38.716v-8.311H83.451V46.733c1.426,0.488,2.856,0.859,4.282,1.094
								c1.436,0.234,2.876,0.361,4.312,0.361c8.135,0,14.58-2.236,19.331-6.689c4.761-4.453,7.139-10.488,7.139-18.105
								c0-7.852-2.441-13.945-7.329-18.301c-4.883-4.336-11.768-6.514-20.654-6.514c-3.062,0-6.182,0.264-9.36,0.781
								c-3.169,0.518-6.436,1.299-9.829,2.344v9.922c2.939-1.592,5.952-2.783,9.077-3.564s6.436-1.172,9.907-1.172
								c5.635,0,10.093,1.484,13.374,4.434c3.296,2.969,4.941,6.982,4.941,12.07c0,5.068-1.646,9.082-4.941,12.051
								c-3.281,2.969-7.739,4.453-13.374,4.453c-2.637,0-5.264-0.293-7.891-0.879c-2.612-0.586-5.283-1.504-8.013-2.734V72.905
								L74.422,72.905z"/>
						</g>
						<g>
							<path id="DejaVuSans-20_7_" d="M127.245-0.005"/>
						</g>
						<g>
							<path id="DejaVuSans-74_2_" d="M177.347,70.219V54.682h18.501v-6.973h-18.501V18.022c0-4.463,0.61-7.324,1.826-8.594
								c1.221-1.279,3.706-1.914,7.456-1.914h9.219v-7.52h-9.219c-6.938,0-11.724,1.299-14.36,3.887s-3.955,7.305-3.955,14.141
								v29.688h-6.592v6.973h6.592v15.537H177.347L177.347,70.219z"/>
						</g>
						<g>
							<path id="DejaVuSans-6f_3_" d="M228.851,48.393c-4.81,0-8.618-1.885-11.421-5.645s-4.204-8.906-4.204-15.449
								s1.392-11.699,4.175-15.449c2.788-3.77,6.606-5.645,11.45-5.645c4.795,0,8.584,1.885,11.377,5.654
								c2.803,3.779,4.204,8.926,4.204,15.439c0,6.475-1.401,11.611-4.204,15.41C237.435,46.498,233.646,48.393,228.851,48.393z
								 M228.851,56c7.812,0,13.95-2.549,18.408-7.627c4.468-5.078,6.704-12.1,6.704-21.074c0-8.945-2.236-15.977-6.704-21.074
								c-4.458-5.098-10.596-7.646-18.408-7.646c-7.842,0-13.989,2.549-18.438,7.646c-4.438,5.098-6.655,12.129-6.655,21.074
								c0,8.975,2.217,15.996,6.655,21.074C214.862,53.452,221.009,56,228.851,56z"/>
						</g>
						<g>
							<path id="DejaVuSans-20_8_" d="M259.422-0.005"/>
						</g>
						<g>
							<path id="DejaVuSans-32_1_" d="M310.399,8.295h34.424v-8.301h-46.284v8.301c3.74,3.877,8.838,9.072,15.298,15.596
								c6.47,6.533,10.532,10.742,12.188,12.646c3.154,3.535,5.361,6.533,6.611,8.994c1.26,2.451,1.89,4.873,1.89,7.256
								c0,3.867-1.362,7.031-4.077,9.463c-2.72,2.451-6.265,3.672-10.625,3.672c-3.096,0-6.362-0.537-9.8-1.611
								c-3.428-1.074-7.095-2.695-11.001-4.883v9.961c3.97,1.602,7.681,2.793,11.128,3.613c3.457,0.811,6.621,1.211,9.482,1.211
								c7.554,0,13.574-1.885,18.062-5.664c4.492-3.77,6.738-8.809,6.738-15.127c0-2.998-0.566-5.85-1.689-8.525
								c-1.113-2.686-3.154-5.84-6.123-9.492c-0.811-0.947-3.403-3.672-7.769-8.184C324.496,22.709,318.348,16.401,310.399,8.295z"
								/>
						</g>
						<g>
							<path id="DejaVuSans-30_3_" d="M386.615,66.401c-5.073,0-8.892-2.5-11.45-7.5c-2.554-4.98-3.828-12.5-3.828-22.52
								c0-10,1.274-17.49,3.828-22.49c2.559-5,6.377-7.5,11.45-7.5c5.117,0,8.95,2.5,11.499,7.5c2.563,5,3.848,12.49,3.848,22.49
								c0,10.02-1.284,17.539-3.848,22.52C395.565,63.901,391.732,66.401,386.615,66.401z M386.615,74.213
								c8.179,0,14.424-3.223,18.735-9.697c4.312-6.455,6.47-15.84,6.47-28.135c0-12.275-2.158-21.641-6.47-28.115
								c-4.312-6.455-10.557-9.688-18.735-9.688c-8.164,0-14.404,3.232-18.716,9.688c-4.316,6.475-6.47,15.84-6.47,28.115
								c0,12.295,2.153,21.68,6.47,28.135C372.21,70.991,378.451,74.213,386.615,74.213z"/>
						</g>
						<g>
							<path id="DejaVuSans-20_9_" d="M418.456-0.005"/>
						</g>
						<g>
							<path id="DejaVuSans-79_1_" d="M482.415-5.084c-2.529-6.504-5.005-10.752-7.422-12.734c-2.407-1.982-5.625-2.979-9.653-2.979
								h-7.188v7.51h5.278c2.471,0,4.385,0.596,5.752,1.777c1.372,1.162,2.891,3.926,4.546,8.291l1.611,4.092l-22.109,53.809h9.512
								l17.095-42.754l17.095,42.754h9.517L482.415-5.084z"/>
						</g>
						<g>
							<path id="DejaVuSans-65_3_" d="M565.628,29.594v-4.385h-41.313c0.396-6.191,2.261-10.908,5.596-14.141
								c3.33-3.242,7.979-4.863,13.936-4.863c3.447,0,6.792,0.42,10.029,1.27c3.242,0.84,6.46,2.109,9.658,3.809V2.787
								c-3.228-1.367-6.538-2.412-9.922-3.125c-3.384-0.723-6.816-1.084-10.298-1.084c-8.73,0-15.64,2.529-20.732,7.607
								s-7.642,11.953-7.642,20.625c0,8.945,2.417,16.055,7.251,21.299C527.025,53.373,533.543,56,541.751,56
								c7.354,0,13.174-2.373,17.456-7.109C563.485,44.155,565.628,37.729,565.628,29.594z M556.644,32.241
								c-0.063,4.902-1.44,8.818-4.126,11.738c-2.686,2.949-6.245,4.414-10.674,4.414c-5.01,0-9.019-1.426-12.031-4.258
								c-3.008-2.832-4.741-6.816-5.2-11.963L556.644,32.241z"/>
						</g>
						<g>
							<path id="DejaVuSans-61_3_" d="M605.228,27.485c-7.261,0-12.29-0.83-15.093-2.49c-2.803-1.65-4.204-4.482-4.204-8.496
								c0-3.184,1.055-5.723,3.159-7.598c2.104-1.855,4.956-2.793,8.56-2.793c4.99,0,8.989,1.768,12.002,5.293
								c3.008,3.535,4.517,8.223,4.517,14.082v2.002H605.228z M623.153,31.205V-0.005h-8.984v8.301
								c-2.056-3.311-4.609-5.762-7.676-7.344c-3.062-1.582-6.807-2.373-11.23-2.373c-5.596,0-10.049,1.572-13.359,4.717
								c-3.306,3.145-4.956,7.354-4.956,12.627c0,6.143,2.061,10.781,6.172,13.906c4.126,3.125,10.273,4.688,18.438,4.688h12.612
								v0.889c0,4.141-1.362,7.334-4.082,9.59c-2.715,2.266-6.533,3.398-11.45,3.398c-3.125,0-6.172-0.371-9.141-1.133
								c-2.959-0.742-5.801-1.875-8.53-3.369v8.311c3.281,1.27,6.465,2.227,9.565,2.852c3.096,0.625,6.099,0.947,9.028,0.947
								c7.915,0,13.828-2.051,17.734-6.162C621.2,45.756,623.153,39.536,623.153,31.205z"/>
						</g>
						<g>
							<path id="DejaVuSans-72_3_" d="M673.338,46.303c-1.011,0.576-2.109,1.006-3.301,1.27c-1.187,0.293-2.495,0.43-3.921,0.43
								c-5.083,0-8.984-1.66-11.704-4.961c-2.715-3.301-4.077-8.047-4.077-14.229V-0.005h-9.028v54.688h9.028v-8.496
								c1.895,3.32,4.355,5.781,7.378,7.393C660.741,55.19,664.427,56,668.758,56c0.615,0,1.299-0.049,2.046-0.127
								c0.752-0.078,1.577-0.195,2.485-0.352L673.338,46.303z"/>
						</g>
						<g>
							<path id="DejaVuSans-73_3_" d="M717.62,53.08v-8.496c-2.529,1.289-5.166,2.266-7.905,2.91
								c-2.729,0.664-5.562,0.996-8.501,0.996c-4.458,0-7.803-0.684-10.029-2.051c-2.231-1.367-3.345-3.418-3.345-6.152
								c0-2.09,0.796-3.73,2.393-4.912c1.592-1.182,4.8-2.314,9.624-3.389l3.076-0.684c6.377-1.367,10.908-3.301,13.594-5.781
								c2.69-2.5,4.033-5.977,4.033-10.43c0-5.078-2.012-9.102-6.03-12.07c-4.023-2.969-9.551-4.443-16.582-4.443
								c-2.925,0-5.977,0.283-9.155,0.859c-3.174,0.576-6.519,1.426-10.029,2.568v9.277c3.32-1.738,6.592-3.027,9.81-3.887
								c3.223-0.859,6.411-1.289,9.58-1.289c4.229,0,7.48,0.723,9.751,2.168c2.28,1.455,3.423,3.496,3.423,6.133
								c0,2.441-0.825,4.307-2.471,5.605c-1.636,1.309-5.239,2.559-10.811,3.77l-3.125,0.732c-5.566,1.162-9.585,2.959-12.065,5.391
								c-2.466,2.432-3.701,5.752-3.701,9.99c0,5.137,1.821,9.102,5.469,11.895c3.643,2.812,8.823,4.209,15.532,4.209
								c3.311,0,6.431-0.244,9.355-0.732C712.45,54.78,715.155,54.057,717.62,53.08z"/>
						</g>
					</g>
				</g>
			</g>
			<g id="ytick_3">
				<g id="text_8">
					<g transform="translate(-25.54375 119.899219)scale(0.1 -0.1)">
						<g>
							<path id="DejaVuSans-31_3_" d="M12.406,8.299h16.108v55.625l-17.529-3.516v8.984l17.437,3.516h9.858V8.299h16.113v-8.301
								H12.406V8.299z"/>
						</g>
						<g>
							<path id="DejaVuSans-30_4_" d="M95.404,66.404c-5.073,0-8.892-2.5-11.45-7.5c-2.554-4.99-3.828-12.5-3.828-22.529
								c0-9.99,1.274-17.485,3.828-22.485c2.559-5,6.377-7.5,11.45-7.5c5.117,0,8.95,2.5,11.499,7.5
								c2.563,5,3.848,12.495,3.848,22.485c0,10.029-1.284,17.539-3.848,22.529C104.354,63.904,100.521,66.404,95.404,66.404z
								 M95.404,74.217c8.179,0,14.424-3.232,18.735-9.702c4.312-6.46,6.47-15.84,6.47-28.14c0-12.271-2.158-21.641-6.47-28.11
								c-4.312-6.46-10.557-9.688-18.735-9.688c-8.164,0-14.404,3.228-18.716,9.688c-4.316,6.47-6.47,15.84-6.47,28.11
								c0,12.3,2.153,21.68,6.47,28.14C80.999,70.984,87.24,74.217,95.404,74.217z"/>
						</g>
						<g>
							<path id="DejaVuSans-20_10_" d="M127.244-0.002"/>
						</g>
						<g>
							<path id="DejaVuSans-74_3_" d="M177.347,70.218V54.686h18.501v-6.982h-18.501V18.016c0-4.458,0.61-7.324,1.826-8.594
								c1.221-1.27,3.706-1.904,7.456-1.904h9.219v-7.52h-9.219c-6.938,0-11.724,1.294-14.36,3.877
								c-2.637,2.593-3.955,7.305-3.955,14.141v29.688h-6.592v6.982h6.592v15.532H177.347z"/>
						</g>
						<g>
							<path id="DejaVuSans-6f_4_" d="M228.851,48.392c-4.81,0-8.618-1.88-11.421-5.64c-2.803-3.765-4.204-8.916-4.204-15.454
								c0-6.543,1.392-11.694,4.175-15.454c2.788-3.76,6.606-5.64,11.45-5.64c4.795,0,8.584,1.885,11.377,5.654
								c2.803,3.784,4.204,8.926,4.204,15.439c0,6.479-1.401,11.611-4.204,15.405C237.435,46.492,233.646,48.392,228.851,48.392z
								 M228.851,55.999c7.812,0,13.95-2.539,18.408-7.622c4.468-5.073,6.704-12.1,6.704-21.079c0-8.95-2.236-15.977-6.704-21.079
								c-4.458-5.093-10.596-7.642-18.408-7.642c-7.842,0-13.989,2.549-18.438,7.642c-4.438,5.103-6.655,12.129-6.655,21.079
								c0,8.979,2.217,16.006,6.655,21.079C214.862,53.46,221.009,55.999,228.851,55.999z"/>
						</g>
						<g>
							<path id="DejaVuSans-20_11_" d="M259.422-0.002"/>
						</g>
						<g>
							<path id="DejaVuSans-31_4_" d="M303.617,8.299h16.108v55.625l-17.529-3.516v8.984l17.437,3.516h9.858V8.299h16.113v-8.301
								h-41.987V8.299L303.617,8.299z"/>
						</g>
						<g>
							<path id="DejaVuSans-35_3_" d="M365.633,72.908h38.716v-8.315h-29.688V46.736c1.426,0.488,2.856,0.85,4.282,1.094
								c1.436,0.239,2.876,0.356,4.312,0.356c8.135,0,14.58-2.227,19.331-6.685c4.761-4.463,7.139-10.498,7.139-18.11
								c0-7.847-2.441-13.945-7.329-18.296c-4.883-4.346-11.768-6.519-20.654-6.519c-3.062,0-6.182,0.259-9.36,0.781
								c-3.169,0.522-6.44,1.304-9.829,2.344v9.922c2.93-1.592,5.952-2.778,9.077-3.56s6.431-1.172,9.907-1.172
								c5.635,0,10.093,1.475,13.374,4.434c3.296,2.959,4.941,6.982,4.941,12.065c0,5.073-1.646,9.087-4.941,12.046
								c-3.281,2.969-7.739,4.453-13.374,4.453c-2.637,0-5.264-0.293-7.891-0.874c-2.612-0.586-5.283-1.494-8.013-2.734V72.908z"/>
						</g>
						<g>
							<path id="DejaVuSans-20_12_" d="M418.455-0.002"/>
						</g>
						<g>
							<path id="DejaVuSans-79_2_" d="M482.415-5.08c-2.529-6.509-5.005-10.752-7.422-12.734c-2.407-1.987-5.625-2.983-9.653-2.983
								h-7.188v7.515h5.278c2.471,0,4.385,0.591,5.752,1.768c1.372,1.167,2.891,3.931,4.546,8.296l1.611,4.097l-22.109,53.809h9.512
								l17.095-42.764l17.095,42.764h9.517L482.415-5.08z"/>
						</g>
						<g>
							<path id="DejaVuSans-65_4_" d="M565.628,29.593v-4.39h-41.313c0.396-6.187,2.261-10.903,5.596-14.141
								c3.33-3.242,7.979-4.858,13.936-4.858c3.447,0,6.792,0.42,10.029,1.265c3.242,0.845,6.46,2.114,9.658,3.813V2.781
								c-3.228-1.367-6.538-2.407-9.922-3.125s-6.816-1.079-10.298-1.079c-8.73,0-15.64,2.539-20.732,7.612
								c-5.093,5.083-7.642,11.958-7.642,20.625c0,8.945,2.417,16.045,7.251,21.294c4.834,5.259,11.353,7.891,19.561,7.891
								c7.354,0,13.174-2.368,17.456-7.109C563.485,44.163,565.628,37.728,565.628,29.593z M556.644,32.234
								c-0.063,4.907-1.44,8.823-4.126,11.748c-2.686,2.939-6.245,4.409-10.674,4.409c-5.01,0-9.019-1.416-12.031-4.253
								c-3.008-2.832-4.741-6.821-5.2-11.968L556.644,32.234z"/>
						</g>
						<g>
							<path id="DejaVuSans-61_4_" d="M605.228,27.483c-7.261,0-12.29-0.825-15.093-2.485c-2.803-1.655-4.204-4.487-4.204-8.496
								c0-3.188,1.055-5.723,3.159-7.598c2.104-1.865,4.956-2.793,8.56-2.793c4.99,0,8.989,1.763,12.002,5.293
								c3.008,3.535,4.517,8.228,4.517,14.082v1.997H605.228z M623.153,31.204V-0.002h-8.984v8.301
								c-2.056-3.315-4.609-5.762-7.676-7.344c-3.062-1.587-6.807-2.378-11.23-2.378c-5.596,0-10.049,1.572-13.359,4.722
								c-3.306,3.145-4.956,7.354-4.956,12.622c0,6.147,2.061,10.781,6.172,13.906c4.126,3.125,10.273,4.688,18.438,4.688h12.612
								v0.894c0,4.131-1.362,7.329-4.082,9.59c-2.715,2.261-6.533,3.394-11.45,3.394c-3.125,0-6.172-0.376-9.141-1.128
								c-2.959-0.747-5.801-1.875-8.53-3.374v8.315c3.281,1.27,6.465,2.217,9.565,2.842c3.096,0.635,6.104,0.952,9.028,0.952
								c7.915,0,13.828-2.051,17.734-6.157C621.199,45.75,623.153,39.534,623.153,31.204z"/>
						</g>
						<g>
							<path id="DejaVuSans-72_4_" d="M673.338,46.297c-1.011,0.581-2.109,1.011-3.301,1.279c-1.187,0.283-2.495,0.425-3.921,0.425
								c-5.083,0-8.984-1.65-11.704-4.956c-2.715-3.301-4.077-8.047-4.077-14.233V-0.002h-9.028v54.688h9.028v-8.496
								c1.895,3.32,4.355,5.786,7.378,7.388c3.027,1.616,6.714,2.422,11.045,2.422c0.615,0,1.299-0.039,2.046-0.122
								c0.752-0.073,1.577-0.195,2.485-0.361L673.338,46.297z"/>
						</g>
						<g>
							<path id="DejaVuSans-73_4_" d="M717.62,53.079v-8.501c-2.529,1.304-5.166,2.275-7.905,2.92
								c-2.729,0.659-5.562,0.986-8.501,0.986c-4.458,0-7.803-0.684-10.029-2.046c-2.231-1.367-3.345-3.418-3.345-6.157
								c0-2.085,0.796-3.721,2.393-4.907c1.592-1.187,4.8-2.319,9.624-3.389l3.076-0.688c6.377-1.367,10.908-3.291,13.594-5.781
								c2.69-2.49,4.033-5.962,4.033-10.42c0-5.088-2.012-9.111-6.03-12.08c-4.023-2.959-9.551-4.438-16.582-4.438
								c-2.925,0-5.977,0.288-9.155,0.859c-3.174,0.571-6.519,1.426-10.029,2.563v9.282c3.32-1.729,6.592-3.027,9.81-3.892
								c3.223-0.854,6.411-1.279,9.58-1.279c4.229,0,7.48,0.723,9.751,2.168c2.28,1.45,3.423,3.491,3.423,6.128
								c0,2.437-0.825,4.307-2.471,5.61c-1.636,1.299-5.239,2.554-10.811,3.765l-3.125,0.732c-5.566,1.167-9.585,2.964-12.065,5.391
								c-2.466,2.427-3.701,5.757-3.701,9.985c0,5.146,1.821,9.116,5.469,11.904c3.643,2.803,8.823,4.204,15.532,4.204
								c3.311,0,6.431-0.244,9.355-0.732C712.449,54.788,715.155,54.056,717.62,53.079z"/>
						</g>
					</g>
				</g>
			</g>
			<g id="ytick_4">
				<g id="text_9">
					<g transform="translate(-29.690625 65.539219)scale(0.1 -0.1)">
						<g>
							<path id="DejaVuSans-42" d="M19.67,34.811V8.107H35.5c5.303,0,9.229,1.104,11.782,3.301
								c2.563,2.197,3.843,5.557,3.843,10.078c0,4.561-1.279,7.92-3.843,10.078c-2.554,2.163-6.479,3.247-11.782,3.247H19.67z
								 M19.67,64.796V42.829H34.28c4.814,0,8.398,0.898,10.752,2.7c2.363,1.816,3.545,4.575,3.545,8.281
								c0,3.682-1.182,6.431-3.545,8.252c-2.354,1.821-5.938,2.734-10.752,2.734H19.67z M9.812,72.907h25.205
								c7.52,0,13.311-1.562,17.373-4.688c4.072-3.125,6.108-7.568,6.108-13.33c0-4.468-1.04-8.018-3.125-10.654
								c-2.08-2.637-5.142-4.277-9.185-4.922c4.854-1.04,8.623-3.218,11.313-6.533c2.686-3.301,4.028-7.427,4.028-12.373
								c0-6.509-2.212-11.543-6.641-15.093c-4.424-3.545-10.728-5.312-18.906-5.312H9.812V72.907z"/>
						</g>
						<g>
							<path id="DejaVuSans-65_5_" d="M124.807,29.591v-4.39H83.493c0.396-6.187,2.261-10.898,5.596-14.141
								c3.33-3.237,7.979-4.858,13.936-4.858c3.447,0,6.792,0.42,10.034,1.265c3.237,0.845,6.455,2.114,9.653,3.813V2.78
								c-3.228-1.362-6.533-2.407-9.922-3.125c-3.384-0.718-6.816-1.079-10.298-1.079c-8.726,0-15.64,2.539-20.732,7.612
								c-5.093,5.083-7.642,11.958-7.642,20.625c0,8.945,2.417,16.045,7.251,21.294c4.834,5.264,11.353,7.891,19.561,7.891
								c7.358,0,13.174-2.368,17.456-7.109C122.668,44.162,124.807,37.731,124.807,29.591z M115.823,32.233
								c-0.063,4.907-1.436,8.823-4.126,11.753c-2.686,2.935-6.245,4.404-10.669,4.404c-5.015,0-9.023-1.416-12.031-4.248
								c-3.013-2.837-4.746-6.826-5.205-11.973L115.823,32.233z"/>
						</g>
						<g>
							<path id="DejaVuSans-6c_1_" d="M139.548,75.983h8.984V0.001h-8.984V75.983z"/>
						</g>
						<g>
							<path id="DejaVuSans-6f_5_" d="M188.518,48.39c-4.81,0-8.618-1.88-11.421-5.64s-4.204-8.911-4.204-15.454
								s1.392-11.694,4.175-15.454c2.793-3.76,6.606-5.64,11.45-5.64c4.795,0,8.584,1.885,11.377,5.654
								c2.803,3.784,4.204,8.931,4.204,15.439c0,6.479-1.401,11.616-4.204,15.405C197.102,46.496,193.313,48.39,188.518,48.39z
								 M188.518,55.998c7.812,0,13.95-2.539,18.408-7.622c4.468-5.073,6.704-12.1,6.704-21.079c0-8.945-2.236-15.972-6.704-21.079
								c-4.458-5.093-10.596-7.642-18.408-7.642c-7.842,0-13.989,2.549-18.438,7.642c-4.434,5.107-6.655,12.134-6.655,21.079
								c0,8.979,2.222,16.006,6.655,21.079C174.529,53.458,180.676,55.998,188.518,55.998z"/>
						</g>
						<g>
							<path id="DejaVuSans-77_1_" d="M223.293,54.689h8.984l11.235-42.676l11.172,42.676h10.596l11.235-42.676l11.187,42.676h8.984
								L282.375,0.001H271.78l-11.768,44.824L248.201,0.001h-10.61L223.293,54.689z"/>
						</g>
						<g>
							<path id="DejaVuSans-20_13_" d="M300.881,0.001"/>
						</g>
						<g>
							<path id="DejaVuSans-31_5_" d="M345.071,8.297h16.113v55.625l-17.534-3.516v8.984l17.437,3.516h9.863V8.297h16.108V0.001
								h-41.987V8.297L345.071,8.297z"/>
						</g>
						<g>
							<path id="DejaVuSans-30_5_" d="M428.069,66.408c-5.073,0-8.887-2.5-11.45-7.5c-2.554-4.99-3.828-12.5-3.828-22.534
								c0-9.99,1.274-17.485,3.828-22.485c2.563-5,6.377-7.5,11.45-7.5c5.117,0,8.95,2.5,11.504,7.5
								c2.559,5,3.843,12.495,3.843,22.485c0,10.034-1.284,17.544-3.843,22.534C437.019,63.908,433.186,66.408,428.069,66.408z
								 M428.069,74.22c8.179,0,14.424-3.237,18.735-9.707c4.312-6.455,6.47-15.835,6.47-28.14c0-12.271-2.158-21.641-6.47-28.11
								c-4.312-6.455-10.557-9.688-18.735-9.688c-8.164,0-14.404,3.232-18.716,9.688c-4.312,6.47-6.47,15.84-6.47,28.11
								c0,12.305,2.158,21.685,6.47,28.14C413.664,70.983,419.905,74.22,428.069,74.22z"/>
						</g>
						<g>
							<path id="DejaVuSans-20_14_" d="M459.914,0.001"/>
						</g>
						<g>
							<path id="DejaVuSans-79_3_" d="M523.869-5.077c-2.529-6.514-5.005-10.757-7.422-12.734c-2.402-1.992-5.625-2.988-9.653-2.988
								h-7.188v7.52h5.278c2.471,0,4.39,0.586,5.752,1.763c1.377,1.167,2.891,3.936,4.546,8.296l1.611,4.097l-22.109,53.813h9.517
								l17.09-42.769l17.095,42.769h9.517L523.869-5.077z"/>
						</g>
						<g>
							<path id="DejaVuSans-65_6_" d="M607.082,29.591v-4.39h-41.313c0.396-6.187,2.261-10.898,5.596-14.141
								c3.33-3.237,7.979-4.858,13.936-4.858c3.447,0,6.792,0.42,10.034,1.265c3.237,0.845,6.455,2.114,9.653,3.813V2.78
								c-3.228-1.362-6.533-2.407-9.922-3.125c-3.384-0.718-6.816-1.079-10.298-1.079c-8.726,0-15.64,2.539-20.732,7.612
								c-5.093,5.083-7.642,11.958-7.642,20.625c0,8.945,2.417,16.045,7.251,21.294c4.834,5.264,11.353,7.891,19.561,7.891
								c7.358,0,13.174-2.368,17.456-7.109C604.944,44.162,607.082,37.731,607.082,29.591z M598.098,32.233
								c-0.063,4.907-1.436,8.823-4.126,11.753c-2.686,2.935-6.245,4.404-10.669,4.404c-5.015,0-9.023-1.416-12.031-4.248
								c-3.013-2.837-4.746-6.826-5.205-11.973L598.098,32.233z"/>
						</g>
						<g>
							<path id="DejaVuSans-61_5_" d="M646.682,27.482c-7.261,0-12.29-0.825-15.093-2.48c-2.803-1.66-4.204-4.492-4.204-8.501
								c0-3.188,1.055-5.718,3.159-7.593c2.104-1.865,4.956-2.798,8.56-2.798c4.99,0,8.989,1.763,12.002,5.298
								c3.013,3.53,4.517,8.223,4.517,14.077v1.997H646.682z M664.607,31.203V0.001h-8.984v8.296
								c-2.051-3.315-4.609-5.762-7.671-7.344c-3.066-1.582-6.812-2.378-11.235-2.378c-5.596,0-10.049,1.577-13.359,4.722
								c-3.301,3.145-4.956,7.354-4.956,12.622c0,6.147,2.061,10.781,6.172,13.906c4.126,3.125,10.273,4.688,18.438,4.688h12.612
								v0.894c0,4.136-1.362,7.334-4.077,9.595c-2.72,2.261-6.538,3.389-11.455,3.389c-3.125,0-6.172-0.376-9.141-1.123
								c-2.959-0.752-5.801-1.875-8.53-3.379v8.315c3.281,1.27,6.47,2.217,9.561,2.842c3.105,0.635,6.108,0.952,9.033,0.952
								c7.915,0,13.828-2.051,17.734-6.152C662.654,45.749,664.607,39.538,664.607,31.203z"/>
						</g>
						<g>
							<path id="DejaVuSans-72_5_" d="M714.792,46.295c-1.011,0.586-2.109,1.011-3.296,1.284c-1.191,0.278-2.495,0.42-3.926,0.42
								c-5.083,0-8.984-1.65-11.699-4.951c-2.72-3.306-4.082-8.047-4.082-14.238V0.001h-9.028v54.688h9.028v-8.501
								c1.899,3.32,4.355,5.786,7.378,7.388c3.032,1.616,6.714,2.422,11.045,2.422c0.615,0,1.299-0.039,2.046-0.122
								c0.752-0.073,1.582-0.195,2.485-0.361L714.792,46.295z"/>
						</g>
						<g>
							<path id="DejaVuSans-73_5_" d="M759.074,53.078v-8.501c-2.529,1.304-5.166,2.275-7.905,2.925
								c-2.729,0.654-5.562,0.981-8.501,0.981c-4.458,0-7.798-0.679-10.029-2.046c-2.231-1.362-3.345-3.418-3.345-6.157
								c0-2.08,0.796-3.716,2.393-4.907c1.592-1.187,4.8-2.314,9.624-3.389l3.076-0.688c6.377-1.362,10.908-3.291,13.594-5.781
								c2.69-2.49,4.033-5.962,4.033-10.42c0-5.083-2.012-9.111-6.03-12.08c-4.023-2.959-9.546-4.438-16.577-4.438
								c-2.93,0-5.981,0.288-9.16,0.859c-3.174,0.576-6.519,1.431-10.029,2.563v9.282c3.325-1.729,6.592-3.027,9.814-3.892
								c3.218-0.854,6.411-1.279,9.575-1.279c4.229,0,7.48,0.723,9.751,2.173c2.28,1.445,3.423,3.486,3.423,6.123
								c0,2.437-0.825,4.307-2.471,5.61c-1.636,1.304-5.239,2.559-10.811,3.765l-3.125,0.732c-5.562,1.167-9.585,2.964-12.065,5.391
								c-2.466,2.432-3.701,5.757-3.701,9.985c0,5.146,1.821,9.116,5.469,11.909c3.647,2.803,8.823,4.199,15.532,4.199
								c3.311,0,6.431-0.244,9.36-0.732C753.904,54.787,756.609,54.059,759.074,53.078z"/>
						</g>
					</g>
				</g>
			</g>
		</g>
	</g>
</g>
<text transform="matrix(1 0 0 1 337.5 65.6816)" fill="#FFFFFF" font-family="'MyriadPro-Regular'" font-size="12">15.2%</text>
<text transform="matrix(1 0 0 1 242.7666 230.6992)" fill="#FFFFFF" font-family="'MyriadPro-Regular'" font-size="12">10.8%</text>
</svg>
