<?xml version="1.0" encoding="utf-8"?>
<!-- Generator: Adobe Illustrator 16.0.0, SVG Export Plug-In . SVG Version: 6.00 Build 0)  -->
<!DOCTYPE svg PUBLIC "-//W3C//DTD SVG 1.1//EN" "http://www.w3.org/Graphics/SVG/1.1/DTD/svg11.dtd">
<svg version="1.1" id="Layer_1" xmlns="http://www.w3.org/2000/svg" xmlns:xlink="http://www.w3.org/1999/xlink" x="0px" y="0px"
	 width="432px" height="288px" viewBox="0 0 432 288" enable-background="new 0 0 432 288" xml:space="preserve">
<g id="figure_1">
	<g id="axes_1">
		<g id="patch_2">
			<path fill="#FFFFFF" d="M54,252h334.8V34.56H54V252z"/>
		</g>
		<g id="patch_3">
			<g>
				<g>
					<defs>
						<rect id="SVGID_1_" x="54" y="34.56" width="334.8" height="217.44"/>
					</defs>
					<clipPath id="SVGID_2_">
						<use xlink:href="#SVGID_1_"  overflow="visible"/>
					</clipPath>
					<path clip-path="url(#SVGID_2_)" fill="#8B0000" d="M54,246.564h270.557v-10.873H54V246.564z"/>
				</g>
			</g>
		</g>
		<g id="patch_4">
			<g>
				<g>
					<defs>
						<rect id="SVGID_3_" x="54" y="34.56" width="334.8" height="217.44"/>
					</defs>
					<clipPath id="SVGID_4_">
						<use xlink:href="#SVGID_3_"  overflow="visible"/>
					</clipPath>
					<path clip-path="url(#SVGID_4_)" fill="#8B0000" d="M54,224.82h271.21v-10.872H54V224.82z"/>
				</g>
			</g>
		</g>
		<g id="patch_5">
			<g>
				<g>
					<defs>
						<rect id="SVGID_5_" x="54" y="34.56" width="334.8" height="217.44"/>
					</defs>
					<clipPath id="SVGID_6_">
						<use xlink:href="#SVGID_5_"  overflow="visible"/>
					</clipPath>
					<path clip-path="url(#SVGID_6_)" fill="#8B0000" d="M54,203.076h282.064v-10.872H54V203.076z"/>
				</g>
			</g>
		</g>
		<g id="patch_6">
			<g>
				<g>
					<defs>
						<rect id="SVGID_7_" x="54" y="34.56" width="334.8" height="217.44"/>
					</defs>
					<clipPath id="SVGID_8_">
						<use xlink:href="#SVGID_7_"  overflow="visible"/>
					</clipPath>
					<path clip-path="url(#SVGID_8_)" fill="#8B0000" d="M54,181.332h292.611V170.46H54V181.332z"/>
				</g>
			</g>
		</g>
		<g id="patch_7">
			<g>
				<g>
					<defs>
						<rect id="SVGID_9_" x="54" y="34.56" width="334.8" height="217.44"/>
					</defs>
					<clipPath id="SVGID_10_">
						<use xlink:href="#SVGID_9_"  overflow="visible"/>
					</clipPath>
					<path clip-path="url(#SVGID_10_)" fill="#8B0000" d="M54,159.588h293.521v-10.872H54V159.588z"/>
				</g>
			</g>
		</g>
		<g id="patch_8">
			<g>
				<g>
					<defs>
						<rect id="SVGID_11_" x="54" y="34.56" width="334.8" height="217.44"/>
					</defs>
					<clipPath id="SVGID_12_">
						<use xlink:href="#SVGID_11_"  overflow="visible"/>
					</clipPath>
					<path clip-path="url(#SVGID_12_)" fill="#8B0000" d="M54,137.844h303.581v-10.872H54V137.844z"/>
				</g>
			</g>
		</g>
		<g id="patch_9">
			<g>
				<g>
					<defs>
						<rect id="SVGID_13_" x="54" y="34.56" width="334.8" height="217.44"/>
					</defs>
					<clipPath id="SVGID_14_">
						<use xlink:href="#SVGID_13_"  overflow="visible"/>
					</clipPath>
					<path clip-path="url(#SVGID_14_)" fill="#8B0000" d="M54,116.1h306.307v-10.872H54V116.1z"/>
				</g>
			</g>
		</g>
		<g id="patch_10">
			<g>
				<g>
					<defs>
						<rect id="SVGID_15_" x="54" y="34.56" width="334.8" height="217.44"/>
					</defs>
					<clipPath id="SVGID_16_">
						<use xlink:href="#SVGID_15_"  overflow="visible"/>
					</clipPath>
					<path clip-path="url(#SVGID_16_)" fill="#8B0000" d="M54,94.356h309.193V83.484H54V94.356z"/>
				</g>
			</g>
		</g>
		<g id="patch_11">
			<g>
				<g>
					<defs>
						<rect id="SVGID_17_" x="54" y="34.56" width="334.8" height="217.44"/>
					</defs>
					<clipPath id="SVGID_18_">
						<use xlink:href="#SVGID_17_"  overflow="visible"/>
					</clipPath>
					<path clip-path="url(#SVGID_18_)" fill="#8B0000" d="M54,72.612h311.148V61.74H54V72.612z"/>
				</g>
			</g>
		</g>
		<g id="patch_12">
			<g>
				<g>
					<path fill="#8B0000" d="M54,50.868h318.857V39.996H54V50.868z"/>
				</g>
			</g>
		</g>
		<g id="matplotlib.axis_1">
			<g id="xtick_1">
				<g id="line2d_1">
					<g>
						<g>
							<path id="m9958e32b69" stroke="#000000" stroke-width="0.8" stroke-linejoin="round" d="M54,252v3.5"/>
						</g>
					</g>
				</g>
				<g id="text_1">
					<g transform="translate(50.81875 266.598437)scale(0.1 -0.1)">
						<g>
							<path id="DejaVuSans-30" d="M31.783,66.404c-5.073,0-8.892-2.5-11.455-7.5c-2.554-4.99-3.828-12.5-3.828-22.529
								c0-9.99,1.274-17.48,3.828-22.48c2.563-5,6.382-7.5,11.455-7.5c5.112,0,8.945,2.5,11.499,7.5
								c2.563,5,3.843,12.49,3.843,22.48c0,10.029-1.279,17.539-3.843,22.529C40.729,63.904,36.896,66.404,31.783,66.404z
								 M31.783,74.217c8.174,0,14.419-3.232,18.73-9.697c4.316-6.465,6.47-15.84,6.47-28.145c0-12.266-2.153-21.641-6.47-28.105
								c-4.312-6.465-10.557-9.688-18.73-9.688c-8.169,0-14.409,3.223-18.721,9.688s-6.47,15.84-6.47,28.105
								c0,12.305,2.158,21.68,6.47,28.145S23.614,74.217,31.783,74.217z"/>
						</g>
					</g>
				</g>
			</g>
			<g id="xtick_2">
				<g id="line2d_2">
					<g>
						<g>
							<path id="m9958e32b69_1_" stroke="#000000" stroke-width="0.8" stroke-linejoin="round" d="M171.968,252v3.5"/>
						</g>
					</g>
				</g>
				<g id="text_2">
					<g transform="translate(168.786934 266.598437)scale(0.1 -0.1)">
						<g>
							<path id="DejaVuSans-35" d="M10.798,72.908h38.716v-8.311H19.826V46.736c1.431,0.488,2.856,0.85,4.282,1.094
								c1.44,0.244,2.876,0.361,4.312,0.361c8.14,0,14.58-2.227,19.331-6.689c4.761-4.463,7.139-10.498,7.139-18.115
								c0-7.842-2.441-13.945-7.329-18.291C42.677,0.75,35.793-1.418,26.906-1.418c-3.062,0-6.182,0.254-9.36,0.781
								c-3.164,0.518-6.44,1.299-9.829,2.344v9.922c2.93-1.602,5.957-2.783,9.082-3.564s6.426-1.172,9.902-1.172
								c5.64,0,10.098,1.475,13.379,4.434c3.291,2.959,4.937,6.982,4.937,12.061s-1.646,9.092-4.937,12.051
								c-3.281,2.969-7.739,4.453-13.379,4.453c-2.632,0-5.264-0.293-7.891-0.879c-2.612-0.586-5.283-1.484-8.013-2.734V72.908
								L10.798,72.908z"/>
						</g>
					</g>
				</g>
			</g>
			<g id="xtick_3">
				<g id="line2d_3">
					<g>
						<g>
							<path id="m9958e32b69_2_" stroke="#000000" stroke-width="0.8" stroke-linejoin="round" d="M289.938,252v3.5"/>
						</g>
					</g>
				</g>
				<g id="text_3">
					<g transform="translate(283.573867 266.598437)scale(0.1 -0.1)">
						<g>
							<path id="DejaVuSans-31" d="M12.406,8.299h16.113v55.625L10.98,60.408v8.984l17.441,3.516h9.863V8.299h16.104v-8.301H12.406
								V8.299z"/>
						</g>
						<g>
							<path id="DejaVuSans-30_1_" d="M95.404,66.404c-5.068,0-8.896-2.5-11.455-7.5c-2.549-4.99-3.828-12.5-3.828-22.529
								c0-9.99,1.279-17.48,3.828-22.48c2.559-5,6.387-7.5,11.455-7.5c5.117,0,8.955,2.5,11.494,7.5
								c2.568,5,3.848,12.49,3.848,22.48c0,10.029-1.279,17.539-3.848,22.529C104.359,63.904,100.521,66.404,95.404,66.404z
								 M95.404,74.217c8.174,0,14.424-3.232,18.74-9.697c4.307-6.465,6.465-15.84,6.465-28.145c0-12.266-2.158-21.641-6.465-28.105
								c-4.316-6.465-10.566-9.688-18.74-9.688C87.24-1.418,81,1.805,76.683,8.27s-6.465,15.84-6.465,28.105
								c0,12.305,2.148,21.68,6.465,28.145S87.24,74.217,95.404,74.217z"/>
						</g>
					</g>
				</g>
			</g>
			<g id="text_4">
				<g transform="translate(157.04375 280.276563)scale(0.1 -0.1)">
					<g>
						<path id="DejaVuSans-4c" d="M9.812,72.902h9.858V8.293h35.503V0.002H9.812V72.902z"/>
					</g>
					<g>
						<path id="DejaVuSans-6f" d="M86.306,48.39c-4.81,0-8.618-1.875-11.421-5.645c-2.803-3.75-4.204-8.906-4.204-15.449
							s1.392-11.699,4.175-15.449c2.788-3.77,6.606-5.645,11.45-5.645c4.795,0,8.584,1.885,11.377,5.654
							c2.803,3.779,4.204,8.936,4.204,15.439c0,6.484-1.401,11.621-4.204,15.41C94.89,46.496,91.101,48.39,86.306,48.39z
							 M86.306,55.998c7.812,0,13.95-2.539,18.408-7.627c4.468-5.068,6.704-12.09,6.704-21.074c0-8.945-2.236-15.977-6.704-21.074
							c-4.458-5.098-10.596-7.646-18.408-7.646c-7.842,0-13.989,2.549-18.438,7.646c-4.438,5.098-6.655,12.129-6.655,21.074
							c0,8.984,2.217,16.006,6.655,21.074C72.316,53.459,78.464,55.998,86.306,55.998z"/>
					</g>
					<g>
						<path id="DejaVuSans-61" d="M151.159,27.482c-7.261,0-12.29-0.83-15.093-2.48c-2.803-1.66-4.204-4.492-4.204-8.506
							c0-3.184,1.055-5.713,3.159-7.588c2.104-1.865,4.956-2.803,8.56-2.803c4.99,0,8.989,1.768,12.002,5.303
							c3.008,3.525,4.517,8.223,4.517,14.072v2.002H151.159z M169.084,31.203V0.002H160.1v8.291
							c-2.056-3.311-4.609-5.762-7.676-7.344c-3.062-1.582-6.807-2.373-11.23-2.373c-5.596,0-10.049,1.572-13.359,4.717
							c-3.306,3.145-4.956,7.363-4.956,12.627c0,6.143,2.061,10.781,6.172,13.906c4.126,3.125,10.273,4.688,18.438,4.688H160.1
							v0.889c0,4.141-1.362,7.344-4.082,9.6c-2.715,2.256-6.533,3.389-11.45,3.389c-3.125,0-6.172-0.371-9.141-1.123
							c-2.959-0.752-5.801-1.875-8.53-3.379v8.311c3.281,1.27,6.465,2.227,9.561,2.852s6.104,0.947,9.033,0.947
							c7.915,0,13.828-2.051,17.734-6.152C167.131,45.754,169.084,39.543,169.084,31.203z"/>
					</g>
					<g>
						<path id="DejaVuSans-6e" d="M233.049,33.019V0.002h-8.984v32.715c0,5.186-1.011,9.053-3.032,11.611
							c-2.021,2.578-5.044,3.857-9.077,3.857c-4.854,0-8.682-1.543-11.484-4.639c-2.803-3.086-4.204-7.295-4.204-12.637V0.002
							h-9.028v54.688h9.028v-8.506c2.158,3.301,4.688,5.752,7.593,7.383c2.92,1.621,6.284,2.432,10.098,2.432
							c6.279,0,11.03-1.943,14.248-5.83C231.433,46.281,233.049,40.568,233.049,33.019z"/>
					</g>
					<g>
						<path id="DejaVuSans-73" d="M285.817,53.078v-8.496c-2.529,1.299-5.166,2.266-7.905,2.92
							c-2.729,0.654-5.562,0.986-8.501,0.986c-4.458,0-7.803-0.684-10.029-2.051c-2.231-1.367-3.345-3.418-3.345-6.152
							c0-2.09,0.796-3.721,2.393-4.912c1.592-1.182,4.8-2.314,9.624-3.389l3.076-0.684c6.377-1.367,10.908-3.301,13.594-5.781
							c2.69-2.5,4.033-5.967,4.033-10.43c0-5.078-2.012-9.102-6.03-12.07c-4.023-2.969-9.551-4.443-16.582-4.443
							c-2.925,0-5.977,0.283-9.155,0.859c-3.174,0.576-6.519,1.436-10.029,2.568v9.277c3.32-1.729,6.592-3.027,9.81-3.887
							c3.223-0.859,6.411-1.289,9.58-1.289c4.229,0,7.48,0.723,9.751,2.178c2.28,1.445,3.423,3.486,3.423,6.123
							c0,2.441-0.825,4.307-2.471,5.605c-1.636,1.309-5.239,2.559-10.811,3.77l-3.125,0.732c-5.566,1.162-9.585,2.959-12.065,5.391
							c-2.466,2.432-3.701,5.752-3.701,9.99c0,5.137,1.821,9.111,5.469,11.904c3.643,2.803,8.823,4.199,15.532,4.199
							c3.311,0,6.431-0.244,9.355-0.732C280.647,54.787,283.352,54.054,285.817,53.078z"/>
					</g>
					<g>
						<path id="DejaVuSans-20" d="M293.635,0.002"/>
					</g>
					<g>
						<path id="DejaVuSans-77" d="M329.626,54.689h8.984l11.235-42.676l11.172,42.676h10.596l11.23-42.676l11.191,42.676h8.984
							L388.703,0.002h-10.591l-11.768,44.824L354.533,0.002h-10.61L329.626,54.689z"/>
					</g>
					<g>
						<path id="DejaVuSans-69" d="M416.633,54.689h8.984V0.002h-8.984V54.689z M416.633,75.988h8.984V64.592h-8.984V75.988z"/>
					</g>
					<g>
						<path id="DejaVuSans-74" d="M453.308,70.217V54.689h18.501v-6.982h-18.501V18.019c0-4.463,0.61-7.324,1.826-8.594
							c1.221-1.27,3.706-1.914,7.456-1.914h9.219v-7.51h-9.219c-6.938,0-11.724,1.289-14.36,3.877s-3.955,7.305-3.955,14.141v29.688
							h-6.592v6.982h6.592v15.527H453.308L453.308,70.217z"/>
					</g>
					<g>
						<path id="DejaVuSans-68" d="M529.094,33.019V0.002h-8.984v32.715c0,5.186-1.011,9.053-3.032,11.611
							c-2.021,2.578-5.044,3.857-9.077,3.857c-4.854,0-8.682-1.543-11.484-4.639c-2.803-3.086-4.204-7.295-4.204-12.637V0.002
							h-9.028v75.986h9.028V46.183c2.158,3.301,4.688,5.752,7.593,7.383c2.92,1.621,6.284,2.432,10.098,2.432
							c6.279,0,11.03-1.943,14.248-5.83C527.478,46.281,529.094,40.568,529.094,33.019z"/>
					</g>
					<g>
						<path id="DejaVuSans-20_1_" d="M537.58,0.002"/>
					</g>
					<g>
						<path id="DejaVuSans-70" d="M587.478,8.205v-29.004h-9.028v75.488h9.028v-8.301c1.895,3.252,4.282,5.664,7.163,7.236
							c2.881,1.582,6.328,2.373,10.322,2.373c6.65,0,12.041-2.627,16.182-7.9c4.16-5.273,6.24-12.207,6.24-20.801
							s-2.08-15.527-6.24-20.811c-4.141-5.273-9.531-7.91-16.182-7.91c-3.994,0-7.441,0.791-10.322,2.373
							S589.372,4.953,587.478,8.205z M618.059,27.297c0,6.602-1.367,11.787-4.082,15.547s-6.445,5.645-11.201,5.645
							s-8.501-1.885-11.221-5.645c-2.715-3.76-4.077-8.945-4.077-15.547s1.362-11.787,4.077-15.547
							c2.72-3.76,6.465-5.645,11.221-5.645s8.486,1.885,11.201,5.645S618.059,20.695,618.059,27.297z"/>
					</g>
					<g>
						<path id="DejaVuSans-72" d="M673.957,46.301c-1.016,0.586-2.109,1.006-3.301,1.279c-1.191,0.283-2.5,0.42-3.926,0.42
							c-5.078,0-8.984-1.65-11.699-4.951c-2.715-3.311-4.082-8.047-4.082-14.238V0.002h-9.023v54.688h9.023v-8.506
							c1.895,3.32,4.355,5.791,7.383,7.393c3.027,1.611,6.719,2.422,11.045,2.422c0.615,0,1.299-0.039,2.041-0.127
							c0.762-0.068,1.582-0.195,2.49-0.352L673.957,46.301z"/>
					</g>
					<g>
						<path id="DejaVuSans-6f_1_" d="M704.543,48.39c-4.824,0-8.633-1.875-11.426-5.645c-2.803-3.75-4.199-8.906-4.199-15.449
							s1.387-11.699,4.16-15.449c2.793-3.77,6.621-5.645,11.465-5.645c4.785,0,8.574,1.885,11.367,5.654
							c2.803,3.779,4.199,8.936,4.199,15.439c0,6.484-1.396,11.621-4.199,15.41C713.117,46.496,709.328,48.39,704.543,48.39z
							 M704.543,55.998c7.812,0,13.945-2.539,18.398-7.627c4.473-5.068,6.699-12.09,6.699-21.074c0-8.945-2.227-15.977-6.699-21.074
							c-4.453-5.098-10.586-7.646-18.398-7.646c-7.852,0-13.994,2.549-18.438,7.646s-6.66,12.129-6.66,21.074
							c0,8.984,2.217,16.006,6.66,21.074C690.549,53.459,696.691,55.998,704.543,55.998z"/>
					</g>
					<g>
						<path id="DejaVuSans-62" d="M783.801,27.297c0,6.602-1.367,11.787-4.082,15.547s-6.455,5.645-11.201,5.645
							c-4.756,0-8.506-1.885-11.221-5.645s-4.082-8.945-4.082-15.547s1.367-11.787,4.082-15.547s6.465-5.645,11.221-5.645
							c4.746,0,8.486,1.885,11.201,5.645S783.801,20.695,783.801,27.297z M753.215,46.388c1.895,3.252,4.287,5.664,7.158,7.236
							c2.881,1.582,6.328,2.373,10.332,2.373c6.65,0,12.041-2.627,16.182-7.9c4.16-5.273,6.24-12.207,6.24-20.801
							s-2.08-15.527-6.24-20.811c-4.141-5.273-9.531-7.91-16.182-7.91c-4.004,0-7.451,0.791-10.332,2.373
							c-2.871,1.582-5.264,4.004-7.158,7.256V0.002h-9.023v75.986h9.023V46.388z"/>
					</g>
					<g>
						<path id="DejaVuSans-6c" d="M808.01,75.988h8.984V0.002h-8.984V75.988z"/>
					</g>
					<g>
						<path id="DejaVuSans-65" d="M882.57,29.592v-4.385h-41.309c0.391-6.191,2.266-10.898,5.586-14.141
							c3.34-3.242,7.988-4.863,13.945-4.863c3.447,0,6.797,0.42,10.029,1.27c3.232,0.84,6.455,2.109,9.658,3.809V2.785
							c-3.232-1.367-6.543-2.412-9.922-3.125c-3.389-0.723-6.816-1.084-10.293-1.084c-8.73,0-15.645,2.539-20.742,7.607
							c-5.098,5.088-7.637,11.963-7.637,20.625c0,8.945,2.422,16.055,7.246,21.299c4.834,5.264,11.357,7.891,19.57,7.891
							c7.344,0,13.164-2.373,17.441-7.109C880.432,44.162,882.57,37.726,882.57,29.592z M873.586,32.238
							c-0.059,4.902-1.436,8.818-4.121,11.748c-2.695,2.939-6.25,4.404-10.674,4.404c-5.01,0-9.014-1.416-12.031-4.248
							c-3.018-2.842-4.746-6.826-5.205-11.973L873.586,32.238z"/>
					</g>
					<g>
						<path id="DejaVuSans-6d" d="M939.895,44.191c2.246,4.043,4.941,7.012,8.066,8.936c3.125,1.914,6.797,2.871,11.025,2.871
							c5.693,0,10.088-1.992,13.193-5.986c3.086-3.975,4.629-9.648,4.629-16.992V0.002h-9.023v32.715
							c0,5.244-0.938,9.131-2.793,11.66c-1.855,2.539-4.688,3.809-8.496,3.809c-4.648,0-8.34-1.543-11.035-4.639
							c-2.705-3.086-4.053-7.295-4.053-12.637V0.002h-9.033v32.715c0,5.273-0.918,9.17-2.773,11.689s-4.727,3.779-8.594,3.779
							c-4.6,0-8.252-1.553-10.957-4.658c-2.695-3.105-4.043-7.305-4.043-12.617V0.002h-9.043v54.688h9.043v-8.506
							c2.051,3.359,4.512,5.83,7.363,7.422c2.871,1.602,6.27,2.393,10.215,2.393c3.975,0,7.354-1.006,10.137-3.027
							C936.496,50.959,938.566,48.029,939.895,44.191z"/>
					</g>
					<g>
						<path id="DejaVuSans-73_1_" d="M1029.582,53.078v-8.496c-2.529,1.299-5.156,2.266-7.9,2.92
							c-2.725,0.654-5.566,0.986-8.506,0.986c-4.453,0-7.793-0.684-10.029-2.051c-2.227-1.367-3.34-3.418-3.34-6.152
							c0-2.09,0.791-3.721,2.393-4.912c1.592-1.182,4.805-2.314,9.619-3.389l3.076-0.684c6.377-1.367,10.908-3.301,13.594-5.781
							c2.695-2.5,4.033-5.967,4.033-10.43c0-5.078-2.002-9.102-6.025-12.07c-4.023-2.969-9.551-4.443-16.582-4.443
							c-2.93,0-5.977,0.283-9.16,0.859c-3.174,0.576-6.523,1.436-10.029,2.568v9.277c3.33-1.729,6.592-3.027,9.814-3.887
							s6.406-1.289,9.58-1.289c4.229,0,7.471,0.723,9.746,2.178c2.285,1.445,3.428,3.486,3.428,6.123
							c0,2.441-0.82,4.307-2.471,5.605c-1.631,1.309-5.244,2.559-10.81,3.77l-3.125,0.732c-5.566,1.162-9.59,2.959-12.07,5.391
							c-2.461,2.432-3.701,5.752-3.701,9.99c0,5.137,1.826,9.111,5.469,11.904c3.643,2.803,8.818,4.199,15.537,4.199
							c3.31,0,6.426-0.244,9.355-0.732C1024.416,54.787,1027.121,54.054,1029.582,53.078z"/>
					</g>
					<g>
						<path id="DejaVuSans-20_2_" d="M1037.404,0.002"/>
					</g>
					<g>
						<path id="DejaVuSans-69_1_" d="M1078.615,54.689h8.984V0.002h-8.984V54.689z M1078.615,75.988h8.984V64.592h-8.984V75.988z"/>
					</g>
					<g>
						<path id="DejaVuSans-6e_1_" d="M1151.867,33.019V0.002h-8.984v32.715c0,5.186-1.016,9.053-3.027,11.611
							c-2.031,2.578-5.059,3.857-9.082,3.857c-4.863,0-8.691-1.543-11.484-4.639c-2.803-3.086-4.199-7.295-4.199-12.637V0.002
							h-9.043v54.688h9.043v-8.506c2.148,3.301,4.688,5.752,7.588,7.383c2.92,1.621,6.279,2.432,10.088,2.432
							c6.289,0,11.035-1.943,14.258-5.83S1151.867,40.568,1151.867,33.019z"/>
					</g>
					<g>
						<path id="DejaVuSans-20_3_" d="M1160.354,0.002"/>
					</g>
					<g>
						<path id="DejaVuSans-25" d="M1264.846,32.082c-2.842,0-5.059-1.211-6.67-3.613c-1.602-2.402-2.412-5.762-2.412-10.059
							c0-4.238,0.811-7.559,2.412-9.99c1.611-2.432,3.828-3.643,6.67-3.643c2.764,0,4.951,1.211,6.562,3.643s2.422,5.752,2.422,9.99
							c0,4.268-0.811,7.617-2.422,10.029C1269.797,30.871,1267.609,32.082,1264.846,32.082z M1264.846,38.283
							c5.146,0,9.229-1.787,12.246-5.381c3.037-3.574,4.551-8.398,4.551-14.492s-1.523-10.918-4.561-14.492
							c-3.047-3.555-7.129-5.342-12.236-5.342c-5.205,0-9.326,1.787-12.363,5.342c-3.018,3.574-4.531,8.398-4.531,14.492
							c0,6.123,1.523,10.967,4.561,14.531C1255.559,36.496,1259.66,38.283,1264.846,38.283z M1214.455,68.019
							c-2.803,0-5.01-1.211-6.631-3.643c-1.602-2.412-2.402-5.752-2.402-9.99c0-4.287,0.801-7.637,2.393-10.059
							c1.592-2.402,3.799-3.613,6.641-3.613c2.832,0,5.049,1.211,6.65,3.613c1.621,2.422,2.422,5.771,2.422,10.059
							c0,4.199-0.811,7.52-2.432,9.961C1219.465,66.789,1217.258,68.019,1214.455,68.019z M1258.547,74.22h7.812l-45.605-75.645
							h-7.812L1258.547,74.22z M1214.455,74.22c5.146,0,9.248-1.787,12.295-5.342c3.066-3.564,4.59-8.398,4.59-14.492
							c0-6.143-1.523-10.996-4.561-14.541c-3.037-3.555-7.148-5.332-12.324-5.332c-5.186,0-9.268,1.787-12.285,5.342
							c-3.008,3.574-4.512,8.418-4.512,14.531c0,6.064,1.514,10.879,4.531,14.453C1205.217,72.433,1209.309,74.22,1214.455,74.22z"
							/>
					</g>
				</g>
			</g>
		</g>
		<g id="matplotlib.axis_2">
			<g id="ytick_1">
				<g id="text_5">
					<g transform="translate(40.6375 244.927219)scale(0.1 -0.1)">
						<g>
							<path id="DejaVuSans-30_2_" d="M31.779,66.401c-5.073,0-8.887-2.5-11.45-7.5c-2.554-4.98-3.828-12.5-3.828-22.52
								c0-10,1.274-17.49,3.828-22.49c2.563-5,6.377-7.5,11.45-7.5c5.117,0,8.95,2.5,11.504,7.5c2.559,5,3.843,12.49,3.843,22.49
								c0,10.02-1.284,17.539-3.843,22.52C40.73,63.901,36.897,66.401,31.779,66.401z M31.779,74.214
								c8.179,0,14.424-3.223,18.735-9.697c4.312-6.455,6.47-15.84,6.47-28.135c0-12.275-2.158-21.641-6.47-28.115
								c-4.312-6.455-10.557-9.688-18.735-9.688c-8.164,0-14.404,3.232-18.716,9.688c-4.312,6.475-6.47,15.84-6.47,28.115
								c0,12.295,2.158,21.68,6.47,28.135C17.375,70.991,23.615,74.214,31.779,74.214z"/>
						</g>
					</g>
				</g>
			</g>
			<g id="ytick_2">
				<g id="text_6">
					<g transform="translate(40.6375 223.183219)scale(0.1 -0.1)">
						<g>
							<path id="DejaVuSans-36" d="M33.015,40.377c-4.424,0-7.935-1.514-10.532-4.551c-2.583-3.018-3.872-7.158-3.872-12.432
								c0-5.244,1.289-9.395,3.872-12.441c2.598-3.047,6.108-4.561,10.532-4.561c4.429,0,7.935,1.514,10.518,4.561
								s3.872,7.197,3.872,12.441c0,5.273-1.289,9.414-3.872,12.432C40.949,38.863,37.443,40.377,33.015,40.377z M52.595,71.295
								v-8.984c-2.48,1.162-4.98,2.061-7.5,2.676c-2.52,0.625-5.02,0.938-7.5,0.938c-6.514,0-11.484-2.197-14.922-6.592
								c-3.428-4.395-5.386-11.035-5.874-19.922c1.914,2.832,4.321,5,7.217,6.514c2.905,1.514,6.099,2.266,9.58,2.266
								c7.319,0,13.105-2.227,17.358-6.67c4.248-4.443,6.372-10.488,6.372-18.125c0-7.5-2.212-13.506-6.641-18.037
								C46.262,0.836,40.368-1.42,33.015-1.42c-8.438,0-14.883,3.232-19.341,9.688c-4.458,6.465-6.689,15.83-6.689,28.105
								c0,11.523,2.734,20.713,8.203,27.568c5.469,6.855,12.808,10.273,22.017,10.273c2.48,0,4.98-0.234,7.5-0.732
								C47.224,72.994,49.856,72.262,52.595,71.295z"/>
						</g>
					</g>
				</g>
			</g>
			<g id="ytick_3">
				<g id="text_7">
					<g transform="translate(40.6375 201.439219)scale(0.1 -0.1)">
						<g>
							<path id="DejaVuSans-35_1_" d="M10.798,72.908h38.716v-8.32H19.826V46.736c1.431,0.488,2.856,0.859,4.282,1.094
								c1.44,0.234,2.876,0.352,4.312,0.352c8.14,0,14.58-2.227,19.331-6.68c4.761-4.453,7.139-10.498,7.139-18.105
								c0-7.852-2.441-13.945-7.329-18.301C42.678,0.75,35.793-1.428,26.906-1.428c-3.062,0-6.182,0.273-9.36,0.781
								c-3.164,0.527-6.44,1.309-9.829,2.344v9.922c2.93-1.582,5.957-2.773,9.082-3.555c3.125-0.781,6.426-1.172,9.902-1.172
								c5.64,0,10.098,1.484,13.379,4.434c3.291,2.959,4.937,6.982,4.937,12.07c0,5.068-1.646,9.082-4.937,12.041
								c-3.281,2.969-7.739,4.453-13.379,4.453c-2.632,0-5.264-0.293-7.891-0.869c-2.612-0.586-5.283-1.504-8.013-2.734V72.908
								L10.798,72.908z"/>
						</g>
					</g>
				</g>
			</g>
			<g id="ytick_4">
				<g id="text_8">
					<g transform="translate(40.6375 179.695219)scale(0.1 -0.1)">
						<g>
							<path id="DejaVuSans-39" d="M10.983,1.522v8.984c2.48-1.182,4.985-2.08,7.515-2.695c2.544-0.615,5.039-0.918,7.485-0.918
								c6.514,0,11.479,2.188,14.907,6.562c3.438,4.375,5.4,11.025,5.889,19.951c-1.885-2.803-4.277-4.951-7.188-6.455
								c-2.896-1.504-6.099-2.246-9.609-2.246c-7.29,0-13.062,2.207-17.31,6.602C8.42,35.731,6.296,41.767,6.296,49.423
								c0,7.48,2.217,13.477,6.641,17.998c4.429,4.531,10.317,6.797,17.671,6.797c8.438,0,14.878-3.232,19.316-9.707
								c4.448-6.455,6.67-15.84,6.67-28.135c0-11.494-2.729-20.664-8.188-27.51C42.956,2.011,35.632-1.427,26.423-1.427
								c-2.48,0-4.99,0.254-7.534,0.742C16.359-0.196,13.723,0.536,10.983,1.522z M30.607,32.421c4.429,0,7.935,1.514,10.518,4.531
								c2.593,3.027,3.892,7.188,3.892,12.471c0,5.244-1.299,9.385-3.892,12.422c-2.583,3.037-6.089,4.561-10.518,4.561
								c-4.424,0-7.93-1.523-10.513-4.561c-2.583-3.037-3.877-7.178-3.877-12.422c0-5.283,1.294-9.443,3.877-12.471
								C22.678,33.935,26.184,32.421,30.607,32.421z"/>
						</g>
					</g>
				</g>
			</g>
			<g id="ytick_5">
				<g id="text_9">
					<g transform="translate(40.6375 157.951219)scale(0.1 -0.1)">
						<g>
							<path id="DejaVuSans-32" d="M19.187,8.301H53.61V0H7.326v8.301c3.74,3.867,8.843,9.062,15.298,15.586
								c6.47,6.533,10.532,10.742,12.188,12.646c3.159,3.545,5.361,6.533,6.611,8.994c1.26,2.461,1.89,4.883,1.89,7.256
								c0,3.877-1.357,7.031-4.077,9.463c-2.72,2.451-6.26,3.672-10.625,3.672c-3.096,0-6.362-0.527-9.8-1.602
								c-3.423-1.074-7.09-2.705-10.996-4.893v9.971c3.965,1.592,7.676,2.793,11.123,3.604c3.457,0.811,6.621,1.221,9.482,1.221
								c7.554,0,13.574-1.895,18.066-5.674c4.487-3.77,6.733-8.809,6.733-15.127c0-2.998-0.562-5.84-1.689-8.525
								c-1.113-2.686-3.154-5.84-6.123-9.482c-0.815-0.957-3.403-3.682-7.769-8.193C33.288,22.715,27.136,16.407,19.187,8.301z"/>
						</g>
					</g>
				</g>
			</g>
			<g id="ytick_6">
				<g id="text_10">
					<g transform="translate(40.6375 136.207219)scale(0.1 -0.1)">
						<g>
							<path id="DejaVuSans-38" d="M31.779,34.626c-4.688,0-8.374-1.255-11.06-3.765c-2.676-2.51-4.019-5.962-4.019-10.347
								c0-4.395,1.343-7.847,4.019-10.356c2.686-2.51,6.372-3.77,11.06-3.77s8.384,1.265,11.079,3.784
								c2.71,2.529,4.062,5.977,4.062,10.342c0,4.385-1.343,7.837-4.028,10.347C40.212,33.371,36.511,34.626,31.779,34.626z
								 M21.921,38.81c-4.229,1.045-7.524,3.013-9.888,5.908c-2.358,2.905-3.535,6.445-3.535,10.61
								c0,5.82,2.075,10.425,6.221,13.813c4.155,3.384,9.844,5.078,17.061,5.078c7.261,0,12.959-1.694,17.095-5.078
								c4.136-3.389,6.206-7.993,6.206-13.813c0-4.165-1.187-7.705-3.55-10.61c-2.354-2.896-5.63-4.863-9.829-5.908
								c4.751-1.104,8.452-3.267,11.094-6.499c2.656-3.218,3.984-7.148,3.984-11.797c0-7.07-2.153-12.5-6.465-16.279
								c-4.316-3.77-10.493-5.659-18.535-5.659c-8.027,0-14.204,1.89-18.53,5.659c-4.312,3.779-6.47,9.209-6.47,16.279
								c0,4.648,1.333,8.579,4.004,11.797C13.459,35.544,17.17,37.707,21.921,38.81z M18.312,54.391c0-3.77,1.177-6.714,3.53-8.828
								c2.363-2.114,5.679-3.174,9.937-3.174c4.243,0,7.554,1.06,9.941,3.174c2.393,2.114,3.594,5.059,3.594,8.828
								c0,3.779-1.201,6.729-3.594,8.843c-2.388,2.114-5.698,3.174-9.941,3.174c-4.258,0-7.573-1.06-9.937-3.174
								C19.489,61.12,18.312,58.171,18.312,54.391z"/>
						</g>
					</g>
				</g>
			</g>
			<g id="ytick_7">
				<g id="text_11">
					<g transform="translate(40.6375 114.463219)scale(0.1 -0.1)">
						<g>
							<path id="DejaVuSans-34" d="M37.795,64.31L12.893,25.389h24.902V64.31z M35.202,72.904h12.407V25.389h10.405v-8.203H47.609
								V-0.002h-9.814v17.188H4.89v9.517L35.202,72.904z"/>
						</g>
					</g>
				</g>
			</g>
			<g id="ytick_8">
				<g id="text_12">
					<g transform="translate(40.6375 92.719219)scale(0.1 -0.1)">
						<g>
							<path id="DejaVuSans-33" d="M40.578,39.311c4.717-1.011,8.403-3.115,11.045-6.313c2.656-3.184,3.984-7.124,3.984-11.812
								c0-7.188-2.471-12.754-7.422-16.704c-4.946-3.936-11.978-5.903-21.094-5.903c-3.052,0-6.196,0.303-9.434,0.903
								c-3.242,0.605-6.587,1.514-10.034,2.72v9.517c2.729-1.592,5.718-2.798,8.97-3.608c3.262-0.815,6.665-1.221,10.22-1.221
								c6.177,0,10.884,1.221,14.126,3.657c3.237,2.437,4.858,5.986,4.858,10.64c0,4.302-1.504,7.661-4.517,10.078
								c-3.013,2.427-7.197,3.643-12.563,3.643h-8.501v8.11h8.892c4.844,0,8.555,0.967,11.128,2.905s3.857,4.727,3.857,8.374
								c0,3.74-1.328,6.611-3.984,8.608c-2.646,2.012-6.44,3.018-11.392,3.018c-2.705,0-5.61-0.298-8.701-0.894
								c-3.096-0.581-6.494-1.489-10.205-2.715v8.779c3.75,1.04,7.261,1.821,10.532,2.344c3.271,0.522,6.353,0.781,9.248,0.781
								c7.49,0,13.413-1.704,17.769-5.107c4.365-3.398,6.548-7.993,6.548-13.784c0-4.043-1.157-7.451-3.472-10.234
								C48.127,42.314,44.841,40.385,40.578,39.311z"/>
						</g>
					</g>
				</g>
			</g>
			<g id="ytick_9">
				<g id="text_13">
					<g transform="translate(40.6375 70.975219)scale(0.1 -0.1)">
						<g>
							<path id="DejaVuSans-37" d="M8.205,72.907H55.08v-4.204L28.61,0.001H18.312L43.22,64.596H8.205V72.907z"/>
						</g>
					</g>
				</g>
			</g>
			<g id="ytick_10">
				<g id="text_14">
					<g transform="translate(40.6375 49.231219)scale(0.1 -0.1)">
						<g>
							<path id="DejaVuSans-31_1_" d="M12.404,8.299h16.113v55.625l-17.534-3.516v8.984l17.437,3.516h9.863V8.299h16.108v-8.301
								H12.404V8.299z"/>
						</g>
					</g>
				</g>
			</g>
		</g>
	</g>
</g>
<text transform="matrix(1 0 0 1 340.5 49.2314)" fill="#FFFFFF" font-family="'MyriadPro-Regular'" font-size="12">13.5%</text>
<text transform="matrix(1 0 0 1 289.0127 245.0692)" fill="#FFFFFF" font-family="'MyriadPro-Regular'" font-size="12">11.5%</text>
</svg>
